<?xml version="1.0" encoding="utf-8"?>
<!-- Generator: Adobe Illustrator 18.1.1, SVG Export Plug-In . SVG Version: 6.00 Build 0)  -->
<svg version="1.1" id="Layer_1" xmlns="http://www.w3.org/2000/svg" xmlns:xlink="http://www.w3.org/1999/xlink" x="0px" y="0px"
	 width="327.6px" height="117.2px" viewBox="-133 362.7 327.6 117.2" enable-background="new -133 362.7 327.6 117.2"
	 xml:space="preserve">
<path fill="#FFFFFF" d="M-79.9,384.3c0.2-0.8,0.5-1.6,1.2-2.2c1.1-0.9,2.7-1.3,4.4-0.1c1-0.8,2-1.7,2.9-2.5c0.1-0.1,0-0.2,0.1-0.4
	c0-0.5,0.1-1.1,0.1-1.6c0-0.2,0-0.4-0.1-0.5c-0.6-0.6-1.2-1.2-1.8-1.8c-0.2-0.2-0.4-0.3-0.7-0.1c-2.2,0.9-4.6-0.8-4.6-3.3
	c0-1.5,0.9-2.8,2.2-3.4c1.3-0.5,2.9-0.1,3.8,1s1.1,2.7,0.4,4c-0.1,0.2-0.2,0.3-0.3,0.5c0,0.1,0.1,0.1,0.1,0.2c0.7,0.7,1.4,1.3,2.1,2
	c1.5-0.5,2.6-0.2,3.2,0.9c0.1,0.1,0.2,0.2,0.2,0.4c0.1,0.7,0.5,0.8,1.1,0.9c1.4,0.3,2.7,0.6,4.1,0.9l0,0c0.3-0.4,0.5-0.9,0.8-1.3
	c0.9-1.1,2-1.4,3.3-1.1c1.4,0.3,2.2,1.2,2.6,2.7c0,0.1,0.1,0.2,0.1,0.2c0,0.4,0,0.7,0,1.1c0,0.1-0.1,0.1-0.1,0.2
	c-0.4,1.7-1.7,2.8-3.4,2.8c-1.6,0-2.9-1.1-3.3-2.8c0-0.2-0.2-0.3-0.4-0.4c-1.5-0.4-3.1-0.7-4.6-1c-0.1,0-0.3,0.1-0.4,0.2
	c-0.8,1.1-1.9,1.4-3.1,0.8c-0.1-0.1-0.3-0.1-0.4,0c-1,0.8-1.9,1.6-2.9,2.5c0.6,1.3,0.5,2.6-0.3,3.8c-0.5,0.8-1.3,1.2-2.1,1.4
	c-0.4,0-0.8,0-1.2,0c-0.4-0.2-0.9-0.3-1.2-0.6c-0.9-0.6-1.4-1.5-1.6-2.5C-79.9,385-79.9,384.7-79.9,384.3z M-56.9,380.4
	c0-0.8-0.6-1.4-1.4-1.4c-0.8,0-1.4,0.6-1.4,1.4c0,0.8,0.6,1.4,1.4,1.4C-57.5,381.8-56.9,381.2-56.9,380.4z M-75.1,370.6
	c-0.8,0-1.4,0.6-1.4,1.4c0,0.8,0.6,1.4,1.4,1.4c0.7,0,1.4-0.7,1.4-1.4C-73.7,371.2-74.3,370.6-75.1,370.6z M-76.5,386.3
	c0.7,0,1.4-0.6,1.4-1.4c0-0.8-0.6-1.4-1.3-1.5c-0.7,0-1.4,0.6-1.4,1.4C-77.8,385.6-77.2,386.3-76.5,386.3z M-68,378.6
	c0-0.5-0.5-1-0.9-0.9c-0.5,0-0.9,0.5-0.9,1s0.5,1,1,1C-68.5,379.5-68,379-68,378.6z"/>
<g>
	<path fill="#FFFFFF" d="M92.4,370c-0.8-4.3-4.3-7.3-8.3-7.3c-0.6,0-1.1,0.1-1.7,0.2c-2.2,0.4-4.1,1.8-5.4,3.8s-1.7,4.5-1.3,6.9
		c0.3,1.6,0.9,3.1,1.5,4.4c1.1,2.5,2.5,5.1,4.5,8.1c0.4,0.6,0.9,1.3,1.3,1.9l0,0l0.1,0.1l0,0c0.2,0.3,0.6,0.5,0.9,0.5
		c0.2,0,0.6-0.1,1-0.6c1.3-1.9,2.5-3.7,3.5-5.5c1.2-2.1,2.7-4.8,3.6-7.9C92.6,373.1,92.7,371.5,92.4,370z M90.9,374.3
		c-0.9,2.9-2.3,5.6-3.4,7.6c-1,1.8-2.2,3.5-3.4,5.4l0,0v-0.1l0,0l0,0c-0.4-0.6-0.9-1.3-1.3-1.9c-1.9-2.9-3.3-5.4-4.4-7.8
		c-0.5-1.2-1.1-2.6-1.4-4.1c-0.4-2.1,0-4.2,1.1-5.9c1.1-1.7,2.7-2.9,4.6-3.3c0.5-0.1,1-0.1,1.5-0.1c3.5,0,6.4,2.6,7.1,6.3
		C91.4,371.6,91.3,372.9,90.9,374.3z M84,367.5c-2.2,0-3.9,1.9-3.9,4.2c0,2.3,1.8,4.2,3.9,4.2s3.9-1.9,3.9-4.2
		C87.9,369.4,86.2,367.5,84,367.5z M84,374.6c-1.5,0-2.7-1.3-2.7-2.9c0-1.6,1.2-2.9,2.7-2.9s2.7,1.3,2.7,2.9
		C86.7,373.3,85.5,374.6,84,374.6z"/>
</g>
<path fill="#FFFFFF" d="M120.1,364.1c0.5,0.2,0.9,0.6,1.2,1c1,1.5,2,3,3,4.5c0.5,0.7,0.5,1.4,0.1,2.1c-0.4,0.7-0.8,1.5-1.2,2.2
	c-0.2,0.3-0.2,0.5,0,0.7c2,2.6,4.3,4.9,6.9,6.9c0.2,0.2,0.4,0.2,0.6,0c0.6-0.4,1.3-0.7,1.9-1.1c0.9-0.5,1.7-0.5,2.6,0.1
	c1.5,1.1,3,2,4.5,3c0.9,0.6,1.2,1.5,0.6,2.4c-1,1.5-2.1,2.8-3.6,3.8c-0.7,0.5-1.5,0.2-2.3,0.1c-2.5-0.6-4.6-1.8-6.6-3.4
	c-4-3-7.5-6.5-10.3-10.6c-1.2-1.7-2.2-3.5-2.7-5.6c-0.1-0.2-0.1-0.5-0.2-0.7c0-0.4,0-0.8,0-1.2c0.2-0.4,0.4-0.7,0.7-1.1
	c1.1-1.3,2.3-2.4,3.7-3.2C119.5,364.1,119.8,364.1,120.1,364.1z M135.9,389c0.2-0.1,0.6-0.2,0.8-0.4c0.9-1,1.9-2,2.7-3
	c0.4-0.4,0.2-0.9-0.3-1.2c-1.5-1-3-1.9-4.4-3c-0.6-0.4-1-0.4-1.6-0.1c-0.8,0.4-1.5,0.8-2.3,1.3c-0.4,0.2-0.6,0.2-0.9,0
	c-1.4-1.2-2.9-2.4-4.2-3.7c-1.3-1.3-2.4-2.7-3.6-4.1c-0.3-0.3-0.3-0.6-0.1-1c0.5-0.8,0.9-1.6,1.3-2.3c0.3-0.5,0.3-0.9-0.1-1.5
	c-1-1.5-2-3-3-4.5c-0.3-0.5-0.8-0.6-1.2-0.3c-1,0.9-2.1,1.8-3,2.8c-0.2,0.2-0.3,0.7-0.3,1c0.1,1.3,0.5,2.4,1.1,3.5
	c0.9,1.9,2.2,3.7,3.6,5.3c2.9,3.4,6.1,6.5,9.9,9C132,388,133.8,388.8,135.9,389z"/>
<g>
	<path fill="#FFFFFF" d="M194.6,369v-0.1c0-0.4-0.2-0.9-0.5-1.2l0,0l0,0c-0.1-0.1-0.2-0.1-0.2-0.2c0,0,0,0-0.1,0
		c-0.1,0-0.2-0.1-0.3-0.1c0,0,0,0-0.1,0c-0.1,0-0.2-0.1-0.3-0.1c0,0,0,0-0.1,0c-0.1,0-0.3,0-0.4,0h-24.8c-0.2,0-0.3,0-0.5,0h-0.1
		c-0.1,0-0.2,0-0.3,0.1c0,0,0,0-0.1,0c-0.1,0-0.2,0.1-0.3,0.1l0,0c-0.1,0-0.2,0.1-0.2,0.1l-0.1,0.1c-0.3,0.3-0.4,0.6-0.5,1
		c0,0,0,0,0,0.1v16.6c0,0,0,0,0,0.1c0.1,0.5,0.3,1,0.7,1.2c0.3,0.2,0.8,0.4,1.3,0.4h25l0,0l0,0c0.1,0,0.3,0,0.4,0c0,0,0,0,0.1,0
		c0.1,0,0.2,0,0.3-0.1l0,0c0.8-0.3,1.2-1,1.2-1.7v-0.1l0,0l0,0v-16C194.6,369,194.6,369,194.6,369L194.6,369z M192.1,368.4l-12,11.5
		l-2.7-2.6l0,0l-9.4-8.9H192.1L192.1,368.4z M167,384.9v-15.5l8.9,8.4L167,384.9z M179.8,385.7h-11.5l8.6-7l2.8,2.7
		c0.1,0.1,0.2,0.1,0.3,0.2l0,0c0,0,0,0,0.1,0l0,0h0.1l0,0c0.1,0,0.3-0.1,0.3-0.2l2.6-2.5l8.7,6.8H179.8L179.8,385.7z M193.2,385
		l-8.9-7.1l8.9-8.5V385z"/>
</g>
<path fill="#FFFFFF" d="M-77.2,431.4l-0.2,3.3h-3.3v11.4h-4.1v-11.5H-87v-3.3h2.2v-1v-1v-0.2c0-1,0-2.5,0.7-3.4
	c0.7-1,1.7-1.7,3.4-1.7c2.8,0,4,0.4,4,0.4l-0.6,3.4c0,0-0.9-0.3-1.8-0.3c-0.9,0-1.6,0.3-1.6,1.2v0.4v1.2v1h3.5V431.4z"/>
<path fill="#FFFFFF" d="M-29.6,430.5c0,0.2,0,0.4,0,0.6c0,6.3-4.6,13.5-13.1,13.5c-2.6,0-5-0.8-7-2.1c0.4,0,0.7,0.1,1.1,0.1
	c2.2,0,4.1-0.8,5.7-2c-2,0-3.7-1.4-4.3-3.3c0.3,0.1,0.6,0.1,0.9,0.1c0.4,0,0.8-0.1,1.2-0.2c-2.1-0.4-3.7-2.4-3.7-4.6c0,0,0,0,0-0.1
	c0.6,0.4,1.3,0.6,2.1,0.6c-1.2-0.8-2-2.3-2-3.9c0-0.9,0.2-1.7,0.6-2.4c2.3,2.9,5.6,4.8,9.5,4.9c-0.1-0.3-0.1-0.7-0.1-1.1
	c0-2.6,2.1-4.7,4.6-4.7c1.3,0,2.5,0.6,3.4,1.5c1-0.2,2-0.6,2.9-1.1c-0.3,1.1-1.1,2-2,2.6c0.9-0.1,1.8-0.4,2.6-0.7
	C-28,429-28.7,429.9-29.6,430.5z"/>
<path fill="#FFFFFF" d="M-118.8,435.2c-0.3-0.4-0.6-0.6-1.2-0.9c-0.3-0.2-1.3-0.5-1.4-0.6c1.7-1,2.5-1.9,2.5-4.3
	c0-2.8-2.3-4.2-5.1-4.2h-8.3v18.9h7.9c3.3,0,6.7-1.8,6.7-5.5C-117.7,437.1-117.9,436.2-118.8,435.2z M-123.6,430.6
	c0,2.4-2,2.1-4.2,2.1v-2.5v-1.5C-125.9,428.7-123.6,428.4-123.6,430.6z M-122.5,438.3c-0.1,2.7-3,2.4-5.3,2.4V436
	C-125.5,436-122.5,435.5-122.5,438.3z"/>
<path fill="#FFFFFF" d="M18.5,425.9H2.1c-1.6,0-2.8,1.3-2.8,2.8v16.4c0,1.6,1.3,2.8,2.8,2.8h16.4c1.6,0,2.8-1.3,2.8-2.8v-16.4
	C21.3,427.1,20.1,425.9,18.5,425.9z M14.4,429.3c0-0.5,0.4-1,1-1h2.5c0.5,0,1,0.4,1,1v2.4c0,0.5-0.4,1-1,1h-2.5c-0.5,0-1-0.4-1-1
	V429.3z M10.3,432.5c2.4,0,4.4,1.9,4.4,4.3c0,2.4-2,4.3-4.4,4.3s-4.4-1.9-4.4-4.3C5.9,434.5,7.9,432.5,10.3,432.5z M18.8,444.5
	c0,0.5-0.4,0.9-0.9,0.9H2.6c-0.5,0-0.9-0.4-0.9-0.9v-9.3h2c-0.2,0.6-0.3,1.2-0.3,1.9c0,3.7,3.1,6.6,6.8,6.6c3.8,0,6.8-3,6.8-6.6
	c0-0.7-0.1-1.3-0.3-1.9h1.9v9.3C18.6,444.5,18.8,444.5,18.8,444.5z"/>
<g>
	<g>
		<g>
			<g>
				<defs>
					<rect id="SVGID_1_" x="31.2" y="425.9" width="22" height="22"/>
				</defs>
				<clipPath id="SVGID_2_">
					<use xlink:href="#SVGID_1_"  overflow="visible"/>
				</clipPath>
				<path clip-path="url(#SVGID_2_)" fill="#FFFFFF" d="M33.9,425.9v2.7h-0.8c0.5,3.8,3.7,7.1,7.7,7.7c0-0.1,0-0.2,0-0.3h2.7
					c0,0.1,0,0.2,0,0.3c3.9-0.5,7.1-3.8,7.7-7.7h-0.8v-2.8h2.7v2.8h-1c-0.7,4.1-3,6.8-6.9,8.2c0,0,0.1,0,0.1,0c1.7,0,3.3,0,5,0
					c0.1,0,0.2-0.1,0.2-0.2c0.3-0.5,0.8-0.8,1.4-0.8c0.5,0,1,0.4,1.2,1c0,0,0,0.1,0.1,0.1v0.5c0,0,0,0.1,0,0.1
					c-0.2,0.6-0.6,1-1.2,1.1c-0.5,0.1-1.1-0.3-1.3-0.8c-0.1-0.1-0.1-0.1-0.2-0.1c-2.2,0-4.4,0-6.6,0c-0.1,0-0.1,0-0.2,0v0.9h-1.3
					c0.1,0.1,0.1,0.1,0.2,0.2c1.1,1.1,2.2,2.2,3.3,3.3c0.1,0.1,0.1,0.2,0.1,0.4c-0.5,1.4-0.9,2.7-1.4,4.1c0,0.1,0,0.2-0.1,0.3
					c0.1,0,0.1,0,0.2,0c0.2,0,0.3,0.1,0.4,0.3c0.1,0.2,0,0.3-0.1,0.5c-0.1,0-0.1,0.1-0.2,0.1h-4.9c0,0,0,0-0.1-0.1
					c-0.2-0.1-0.3-0.3-0.2-0.5c0.1-0.2,0.2-0.3,0.4-0.3c0,0,0.1,0,0.1,0c0-0.1,0-0.1-0.1-0.2c-0.5-1.4-0.9-2.8-1.4-4.1
					c-0.1-0.2,0-0.3,0.1-0.4c1.1-1.1,2.2-2.2,3.3-3.3c0.1-0.1,0.1-0.1,0.2-0.2h-1.4v-0.9c-0.1,0-0.1,0-0.2,0c-2.2,0-4.4,0-6.6,0
					c-0.1,0-0.2,0-0.3,0.2c-0.3,0.5-0.8,0.8-1.3,0.8c-0.6-0.1-1.1-0.4-1.2-1c0,0,0-0.1,0-0.1c0-0.2,0-0.3,0-0.5c0,0,0,0,0-0.1
					c0.2-0.6,0.6-1,1.1-1c0.6-0.1,1.1,0.2,1.4,0.8c0.1,0.1,0.1,0.1,0.3,0.1c1.6,0,3.2,0,4.9,0c0,0,0.1,0,0.2,0
					c-3.9-1.5-6.2-4.2-6.9-8.2h-1v-2.8H33.9z M41.7,447c0-0.1,0-0.2,0-0.3c0-1,0-1.9,0-2.9c0-0.2,0.1-0.4,0.3-0.5
					c0.3-0.1,0.6,0.1,0.6,0.5c0,1,0,1.9,0,2.9c0,0.1,0,0.2,0,0.3c0.2,0,0.4,0,0.5,0c0.2,0,0.2,0,0.3-0.2c0.4-1.3,0.9-2.6,1.3-4
					c0-0.1,0-0.2-0.1-0.3c-0.8-0.8-1.6-1.6-2.4-2.4c0,0-0.1-0.1-0.1-0.1c-0.8,0.8-1.5,1.5-2.2,2.2c-0.3,0.3-0.4,0.5-0.2,0.9
					c0.4,1.2,0.8,2.4,1.2,3.6c0,0.1,0.1,0.2,0.2,0.2C41.3,447,41.5,447,41.7,447 M32.1,427.7H33v-0.9h-0.9V427.7z M51.3,427.7
					c0.3,0,0.5,0,0.8,0c0,0,0.1-0.1,0.1-0.1c0-0.3,0-0.6,0-0.8h-0.9L51.3,427.7L51.3,427.7z M41.7,437.8h0.9v-0.9h-0.9V437.8z
					 M32.5,437.8c0.3,0,0.5-0.2,0.5-0.5c0-0.2-0.2-0.4-0.5-0.5c-0.3,0-0.5,0.2-0.5,0.5C32.1,437.6,32.3,437.8,32.5,437.8
					 M51.8,437.8c0.2,0,0.4-0.2,0.5-0.4c0-0.3-0.2-0.5-0.5-0.5c-0.2,0-0.5,0.2-0.5,0.5C51.3,437.6,51.5,437.8,51.8,437.8"/>
			</g>
		</g>
	</g>
</g>
<g>
	<g>
		<g>
			<g>
				<defs>
					<rect id="SVGID_3_" x="60.1" y="424.8" width="32" height="23.1"/>
				</defs>
				<clipPath id="SVGID_4_">
					<use xlink:href="#SVGID_3_"  overflow="visible"/>
				</clipPath>
				<path clip-path="url(#SVGID_4_)" fill="#FFFFFF" d="M78,436.2c-0.5,0-1-0.3-1.2-0.8c-0.2-0.5-0.1-1.1,0.3-1.4
					c0.4-0.4,0.5-1.1,0.1-1.6c-0.4-0.6-1-1.1-1.5-1.5c-0.2-0.2-0.5-0.3-0.7-0.3c-0.3,0-0.7,0.1-0.9,0.4c-0.2,0.3-0.6,0.4-1,0.4
					c-0.2,0-0.3,0-0.5-0.1c-0.5-0.2-0.8-0.7-0.8-1.3c0-0.6-0.4-1.2-1-1.2c-0.7-0.1-1.4-0.1-2.2,0c-0.6,0.1-1.1,0.6-1,1.2
					c0,0.5-0.3,1-0.8,1.3c-0.1,0.1-0.3,0.1-0.4,0.1c-0.4,0-0.8-0.2-1-0.4c-0.2-0.2-0.5-0.4-0.9-0.4c-0.3,0-0.5,0.1-0.7,0.3
					c-0.6,0.5-1.1,1-1.6,1.5c-0.4,0.5-0.3,1.2,0.1,1.6c0.4,0.4,0.5,1,0.3,1.5c-0.2,0.5-0.7,0.8-1.3,0.8c-0.6,0-1.1,0.4-1.2,1
					c-0.1,0.7-0.1,1.5,0,2.2c0.1,0.6,0.7,1,1.3,1h0c0.5,0,1,0.3,1.2,0.8c0.2,0.5,0.1,1.1-0.3,1.4c-0.5,0.4-0.5,1.1-0.1,1.6
					c0.4,0.6,1,1.1,1.5,1.5c0.2,0.2,0.5,0.3,0.7,0.3c0.3,0,0.6-0.1,0.9-0.4c0.2-0.3,0.6-0.4,1-0.4c0.2,0,0.3,0,0.5,0.1
					c0.5,0.2,0.8,0.7,0.8,1.3c0,0.6,0.4,1.2,1,1.2c0.4,0,0.7,0.1,1.1,0.1c0.4,0,0.7,0,1.1-0.1c0.6-0.1,1.1-0.6,1-1.2
					c0-0.5,0.3-1,0.8-1.3c0.1-0.1,0.3-0.1,0.4-0.1c0.4,0,0.8,0.2,1,0.4c0.2,0.2,0.5,0.4,0.9,0.4c0.3,0,0.5-0.1,0.7-0.3
					c0.6-0.5,1.1-1,1.6-1.5c0.4-0.5,0.3-1.2-0.1-1.6c-0.4-0.4-0.5-1-0.3-1.5c0.2-0.5,0.7-0.8,1.2-0.8l0.1,0c0,0,0,0,0.1,0h0
					c0.6,0,1.1-0.4,1.2-1c0.1-0.7,0.1-1.5,0-2.2C79.1,436.6,78.5,436.2,78,436.2 M77.9,439.1c-1.1,0-2,0.7-2.4,1.6
					c-0.4,1-0.2,2.1,0.5,2.9c-0.3,0.4-0.7,0.8-1.1,1.1c-0.5-0.5-1.2-0.7-1.9-0.7c-0.3,0-0.7,0.1-1,0.2c-1,0.4-1.6,1.3-1.6,2.4
					c-0.5,0-1,0-1.5,0c0-1.1-0.6-2-1.6-2.4c-0.3-0.1-0.6-0.2-1-0.2c-0.7,0-1.4,0.3-1.9,0.7c-0.4-0.3-0.7-0.7-1.1-1.1
					c0.7-0.8,0.9-1.9,0.5-2.9c-0.4-1-1.4-1.6-2.4-1.6c-0.1-0.5,0-1,0-1.5c1.1-0.1,2-0.7,2.4-1.6c0.4-1,0.2-2.1-0.5-2.9
					c0.3-0.4,0.7-0.8,1.1-1.1c0.5,0.5,1.2,0.7,1.9,0.7c0.3,0,0.7-0.1,1-0.2c1-0.4,1.6-1.3,1.6-2.4c0.5,0,1,0,1.5,0
					c0,1.1,0.6,2,1.6,2.4c0.3,0.1,0.6,0.2,1,0.2c0.7,0,1.4-0.3,1.9-0.7c0.4,0.3,0.7,0.7,1.1,1.1c-0.7,0.8-0.9,1.9-0.5,2.9
					c0.4,1,1.3,1.6,2.4,1.6C77.9,438.1,77.9,438.6,77.9,439.1"/>
			</g>
		</g>
	</g>
	<g>
		<g>
			<g>
				<defs>
					<rect id="SVGID_5_" x="60.1" y="424.8" width="32" height="23.1"/>
				</defs>
				<clipPath id="SVGID_6_">
					<use xlink:href="#SVGID_5_"  overflow="visible"/>
				</clipPath>
				<path clip-path="url(#SVGID_6_)" fill="#FFFFFF" d="M69.7,434.7c-2,0-3.7,1.6-3.7,3.7s1.6,3.7,3.7,3.7c2,0,3.7-1.6,3.7-3.7
					C73.3,436.3,71.7,434.7,69.7,434.7 M69.7,440.6c-1.3,0-2.3-1-2.3-2.3c0-1.3,1-2.3,2.3-2.3c1.3,0,2.3,1,2.3,2.3
					C72,439.6,70.9,440.6,69.7,440.6"/>
			</g>
		</g>
	</g>
	<g>
		<g>
			<g>
				<defs>
					<rect id="SVGID_7_" x="60.1" y="424.8" width="32" height="23.1"/>
				</defs>
				<clipPath id="SVGID_8_">
					<use xlink:href="#SVGID_7_"  overflow="visible"/>
				</clipPath>
				<path clip-path="url(#SVGID_8_)" fill="#FFFFFF" d="M85,429.1c-0.4,0-0.7,0.1-1.1,0.2c-1.4,0.6-2.1,2.3-1.5,3.7
					c0.4,1.1,1.5,1.7,2.6,1.7c0.4,0,0.7-0.1,1.1-0.2c1.4-0.6,2.1-2.3,1.5-3.7C87.2,429.8,86.2,429.1,85,429.1 M85.7,433.4
					c-0.2,0.1-0.4,0.1-0.6,0.1c-0.7,0-1.3-0.4-1.5-1c-0.4-0.8,0.1-1.8,0.9-2.2c0.2-0.1,0.4-0.1,0.6-0.1c0.7,0,1.3,0.4,1.5,1
					C86.9,432.1,86.5,433.1,85.7,433.4"/>
			</g>
		</g>
	</g>
	<g>
		<g>
			<g>
				<defs>
					<rect id="SVGID_9_" x="60.1" y="424.8" width="32" height="23.1"/>
				</defs>
				<clipPath id="SVGID_10_">
					<use xlink:href="#SVGID_9_"  overflow="visible"/>
				</clipPath>
				<path clip-path="url(#SVGID_10_)" fill="#FFFFFF" d="M91.4,432.8c-0.4-0.1-0.6-0.5-0.6-0.8c0-0.3,0.2-0.7,0.6-0.8l0.1,0
					c0.5-0.2,0.7-0.7,0.6-1.2c-0.1-0.5-0.4-1.1-0.6-1.5c-0.2-0.3-0.5-0.5-0.9-0.5c-0.1,0-0.3,0-0.4,0.1c-0.1,0.1-0.2,0.1-0.4,0.1
					c-0.2,0-0.5-0.1-0.6-0.3c-0.3-0.3-0.3-0.7-0.2-1c0.2-0.5,0-1-0.4-1.2c-0.5-0.3-1-0.5-1.5-0.6c-0.1,0-0.2,0-0.3,0
					c-0.4,0-0.8,0.3-0.9,0.6c-0.1,0.3-0.5,0.6-0.8,0.6c-0.4,0-0.7-0.2-0.8-0.6c-0.1-0.4-0.5-0.6-0.9-0.6c-0.1,0-0.2,0-0.3,0
					c-0.5,0.1-1,0.4-1.5,0.6c-0.4,0.2-0.6,0.8-0.4,1.2c0.2,0.3,0.1,0.7-0.2,1c-0.2,0.2-0.4,0.2-0.7,0.2c-0.1,0-0.3,0-0.4-0.1
					c-0.1-0.1-0.3-0.1-0.4-0.1c-0.3,0-0.7,0.2-0.8,0.5c-0.3,0.5-0.5,1-0.6,1.5c-0.1,0.5,0.1,1,0.6,1.2c0.4,0.1,0.6,0.5,0.6,0.8
					c0,0.4-0.3,0.7-0.6,0.9c-0.5,0.2-0.7,0.7-0.6,1.2c0.1,0.5,0.4,1,0.6,1.5c0.2,0.3,0.5,0.5,0.9,0.5c0.1,0,0.3,0,0.4-0.1l0,0
					c0.1,0,0.2-0.1,0.3-0.1c0.2,0,0.5,0.1,0.6,0.3c0.3,0.3,0.3,0.7,0.2,1c-0.2,0.5,0,1,0.4,1.2c0.5,0.3,1,0.5,1.5,0.6
					c0.1,0,0.2,0,0.3,0c0.4,0,0.8-0.3,0.9-0.6c0.1-0.3,0.5-0.6,0.8-0.6c0.4,0,0.7,0.2,0.8,0.6c0.1,0.4,0.5,0.6,0.9,0.6
					c0.1,0,0.2,0,0.3,0c0.3-0.1,0.5-0.2,0.8-0.3c0.2-0.1,0.5-0.2,0.7-0.4c0.4-0.2,0.6-0.8,0.4-1.2c-0.2-0.3-0.1-0.7,0.2-1
					c0.2-0.2,0.4-0.2,0.7-0.2c0.1,0,0.3,0,0.4,0.1c0.1,0.1,0.3,0.1,0.4,0.1l0,0c0.3,0,0.7-0.2,0.8-0.5c0.3-0.5,0.5-1,0.6-1.5
					C92.2,433.5,91.9,432.9,91.4,432.8 M90.4,434.7c-0.2-0.1-0.4-0.1-0.7-0.1c-0.6,0-1.1,0.2-1.5,0.6c-0.6,0.6-0.8,1.4-0.5,2.1
					c-0.1,0.1-0.3,0.1-0.4,0.2c-0.2,0.1-0.3,0.1-0.5,0.2c-0.3-0.7-1.1-1.2-1.9-1.2c-0.8,0-1.5,0.5-1.9,1.2c-0.3-0.1-0.6-0.2-0.9-0.4
					c0.3-0.7,0.1-1.6-0.5-2.2c-0.4-0.4-0.9-0.6-1.5-0.6c-0.2,0-0.5,0-0.7,0.1c-0.2-0.3-0.3-0.6-0.4-0.9c0.7-0.4,1.2-1.1,1.2-1.9
					c0-0.8-0.5-1.5-1.2-1.9c0.1-0.3,0.2-0.6,0.4-0.9c0.2,0.1,0.4,0.1,0.7,0.1c0.6,0,1.1-0.2,1.5-0.6c0.6-0.6,0.8-1.4,0.5-2.1
					c0.3-0.1,0.6-0.3,0.9-0.4c0.3,0.7,1.1,1.2,1.9,1.2c0.8,0,1.5-0.5,1.9-1.2c0.3,0.1,0.6,0.2,0.9,0.4c-0.3,0.7-0.1,1.6,0.5,2.2
					c0.4,0.4,0.9,0.6,1.5,0.6c0.2,0,0.5,0,0.7-0.1c0.2,0.3,0.3,0.6,0.4,0.9c-0.7,0.3-1.2,1.1-1.2,1.9c0,0.8,0.5,1.5,1.2,1.9
					C90.7,434.1,90.6,434.4,90.4,434.7"/>
			</g>
		</g>
	</g>
</g>
<g>
	<g>
		<g>
			<g>
				<defs>
					<rect id="SVGID_11_" x="97.6" y="425.1" width="28.5" height="22.8"/>
				</defs>
				<clipPath id="SVGID_12_">
					<use xlink:href="#SVGID_11_"  overflow="visible"/>
				</clipPath>
				<path clip-path="url(#SVGID_12_)" fill="#FFFFFF" d="M126.1,443.5c-0.2,0.4-0.4,0.7-0.9,0.7c-0.4,0-0.7-0.1-0.8-0.5
					c-0.1-0.2-0.2-0.2-0.4-0.2c-2.5,0-5,0-7.5,0c-1,0-1.9,0-2.9,0c0,0.3,0,0.6,0,0.9c0,0.5,0,1,0,1.5c-0.2,1.2-1.2,2.1-2.4,2.1
					c-1.3,0-2.7,0-4,0c-1.4,0-2.4-1.1-2.4-2.5c0-0.6,0-1.3,0-1.9h-3.9c0,0.1,0,0.1-0.1,0.2c-0.1,0.4-0.5,0.7-0.9,0.7
					c-0.4,0-0.8-0.3-0.9-0.7c-0.2-0.8-0.4-1.5-0.6-2.3c-0.3-1.1-0.5-2.1-0.8-3.2c0-0.1-0.1-0.2-0.1-0.3c0-0.1,0-0.3,0-0.4
					c0.2-0.4,0.4-0.7,0.9-0.7c0.3,0,0.6,0.2,0.8,0.5c0.1,0,0.2-0.1,0.3-0.1c6.7-3.6,13.5-7.2,20.2-10.8c0.1-0.1,0.2-0.1,0.2-0.3
					c0-0.5,0.3-0.9,0.8-0.9c0.4-0.1,0.8,0.2,1,0.7c0.3,1,0.5,2,0.8,3c1.2,4.6,2.3,9.3,3.5,13.9c0,0.1,0.1,0.2,0.1,0.3L126.1,443.5
					L126.1,443.5z M120.5,428c-0.1,0.1-0.2,0.1-0.3,0.1c-5.9,3.1-11.8,6.3-17.8,9.4c-0.8,0.4-1.7,0.9-2.5,1.3
					c-0.1,0-0.2,0.2-0.2,0.2c0.2,0.8,0.4,1.6,0.6,2.5h23.5C122.7,437.1,121.6,432.6,120.5,428 M106.5,443.5c0,0.7,0,1.4,0,2.1
					c0,0.3,0.3,0.6,0.7,0.6c1.3,0,2.6,0,4,0c0.4,0,0.7-0.3,0.7-0.7c0-0.4,0-0.8,0-1.3c0-0.2,0-0.5,0-0.7L106.5,443.5L106.5,443.5z"
					/>
			</g>
		</g>
	</g>
</g>
<g>
	<g>
		<g>
			<g>
				<defs>
					<rect id="SVGID_13_" x="131.9" y="423.4" width="24.7" height="24.5"/>
				</defs>
				<clipPath id="SVGID_14_">
					<use xlink:href="#SVGID_13_"  overflow="visible"/>
				</clipPath>
				<path clip-path="url(#SVGID_14_)" fill="#FFFFFF" d="M144.9,431c-0.2,0.2-0.2,0.6,0,0.8c0.2,0.2,0.6,0.2,0.8,0l0.5-0.5
					c0.2-0.2,0.2-0.4,0.1-0.6c-0.3-0.7-0.5-1.3-0.5-2c0-1.4,0.6-2.7,1.6-3.6l0,3.7c0,0.2,0.1,0.4,0.2,0.5l2.6,1.8
					c0.2,0.1,0.4,0.1,0.6,0l2.7-1.8c0.1-0.1,0.2-0.3,0.2-0.5l0-3.7c1,0.9,1.6,2.2,1.6,3.6c0,1.3-0.5,2.5-1.4,3.4
					c-0.9,0.9-2.1,1.4-3.4,1.4h0c-0.4,0-1.3-0.2-1.6-0.3c-0.2-0.1-0.4,0-0.5,0.1l-1.7,1.7c-0.2,0.2-0.2,0.6,0,0.8
					c0.1,0.1,0.3,0.2,0.4,0.2c0.1,0,0.3-0.1,0.4-0.2l1.5-1.5c0.4,0.1,1.1,0.3,1.6,0.3h0c1.6,0,3.1-0.6,4.2-1.7
					c1.1-1.1,1.7-2.6,1.7-4.2c0-2.1-1.2-4.1-3-5.2c-0.2-0.1-0.4-0.1-0.6,0c-0.2,0.1-0.3,0.3-0.3,0.5v4.4l-2.1,1.4l-2.1-1.4l0-4.4
					c0-0.2-0.1-0.4-0.3-0.5c-0.2-0.1-0.4-0.1-0.6,0c-1.9,1.1-3,3.1-3,5.2c0,0.7,0.1,1.4,0.4,2.1L144.9,431z"/>
			</g>
		</g>
	</g>
	<g>
		<g>
			<g>
				<defs>
					<rect id="SVGID_15_" x="131.9" y="423.4" width="24.7" height="24.5"/>
				</defs>
				<clipPath id="SVGID_16_">
					<use xlink:href="#SVGID_15_"  overflow="visible"/>
				</clipPath>
				<path clip-path="url(#SVGID_16_)" fill="#FFFFFF" d="M143.4,438.4l-7.7,7.8c-0.3,0.3-0.7,0.5-1.1,0.5h0c-0.4,0-0.8-0.2-1.1-0.5
					c-0.3-0.3-0.5-0.7-0.5-1.1c0-0.4,0.2-0.8,0.5-1.1l6.7-6.7c0.2-0.2,0.2-0.6,0-0.8c-0.2-0.2-0.6-0.2-0.8,0l-6.7,6.7
					c-0.5,0.5-0.8,1.2-0.8,1.9s0.3,1.4,0.8,1.9c0.5,0.5,1.2,0.8,1.9,0.8h0c0.7,0,1.4-0.3,1.9-0.8l7.7-7.8c0.2-0.2,0.2-0.6,0-0.8
					C144,438.2,143.6,438.2,143.4,438.4"/>
			</g>
		</g>
	</g>
	<g>
		<g>
			<g>
				<defs>
					<rect id="SVGID_17_" x="131.9" y="423.4" width="24.7" height="24.5"/>
				</defs>
				<clipPath id="SVGID_18_">
					<use xlink:href="#SVGID_17_"  overflow="visible"/>
				</clipPath>
				<path clip-path="url(#SVGID_18_)" fill="#FFFFFF" d="M134.5,444.4c-0.2,0-0.4,0.1-0.5,0.2c-0.3,0.3-0.3,0.7,0,1c0,0,0,0,0,0
					c0.1,0.1,0.3,0.2,0.5,0.2s0.4-0.1,0.5-0.2c0.3-0.3,0.3-0.7,0-1C134.9,444.5,134.7,444.4,134.5,444.4L134.5,444.4z"/>
			</g>
		</g>
	</g>
	<g>
		<g>
			<g>
				<defs>
					<rect id="SVGID_19_" x="131.9" y="423.4" width="24.7" height="24.5"/>
				</defs>
				<clipPath id="SVGID_20_">
					<use xlink:href="#SVGID_19_"  overflow="visible"/>
				</clipPath>
				<path clip-path="url(#SVGID_20_)" fill="#FFFFFF" d="M152.8,441.6c-0.1-0.1-0.1-0.1-0.2-0.1l-1.6-0.6l-5.8-5.8l0.9-0.9
					c0.2-0.2,0.2-0.6,0-0.8c-0.2-0.2-0.4-0.2-0.6-0.1l-8.8-8.8c-0.5-0.5-1.2-0.8-2-0.8h0c-0.8,0-1.5,0.3-2,0.8
					c-0.5,0.5-0.8,1.2-0.8,2c0,0.8,0.3,1.5,0.8,2l8.8,8.8c-0.1,0.2,0,0.4,0.1,0.6c0.2,0.2,0.6,0.2,0.8,0l0.9-0.9l5.8,5.8l0.6,1.6
					c0,0.1,0.1,0.1,0.1,0.2l3.2,3.2c0.1,0.1,0.3,0.2,0.4,0.2c0.1,0,0.3-0.1,0.4-0.2l2.1-2.1c0.1-0.1,0.2-0.2,0.2-0.4
					c0-0.1-0.1-0.3-0.2-0.4L152.8,441.6z M144,434.7C144,434.7,144,434.7,144,434.7l-1.7,1.7l-8.7-8.7c-0.3-0.3-0.5-0.7-0.5-1.2
					c0-0.5,0.2-0.9,0.5-1.2c0.3-0.3,0.7-0.5,1.2-0.5h0c0.5,0,0.9,0.2,1.2,0.5l8.7,8.7L144,434.7C144,434.7,144,434.7,144,434.7
					 M153.5,446.6l-2.8-2.8l-0.6-1.6c0-0.1-0.1-0.1-0.1-0.2l-5.9-5.9l0.2-0.2l5.9,5.9c0.1,0.1,0.1,0.1,0.2,0.1l1.6,0.6l2.8,2.8
					L153.5,446.6z"/>
			</g>
		</g>
	</g>
	<g>
		<g>
			<g>
				<defs>
					<rect id="SVGID_21_" x="131.9" y="423.4" width="24.7" height="24.5"/>
				</defs>
				<clipPath id="SVGID_22_">
					<use xlink:href="#SVGID_21_"  overflow="visible"/>
				</clipPath>
				<path clip-path="url(#SVGID_22_)" fill="#FFFFFF" d="M135.2,426.1c-0.2-0.2-0.6-0.2-0.8,0c-0.2,0.2-0.2,0.6,0,0.8l7.7,7.7
					c0.1,0.1,0.3,0.2,0.4,0.2c0.1,0,0.3-0.1,0.4-0.2c0.2-0.2,0.2-0.6,0-0.8L135.2,426.1z"/>
			</g>
		</g>
	</g>
</g>
<g>
	<g>
		<g>
			<g>
				<defs>
					<rect id="SVGID_23_" x="30.6" y="395.4" width="23.5" height="20.6"/>
				</defs>
				<clipPath id="SVGID_24_">
					<use xlink:href="#SVGID_23_"  overflow="visible"/>
				</clipPath>
				<path clip-path="url(#SVGID_24_)" fill="#FFFFFF" d="M30.6,411.7v-16c0.2-0.3,0.4-0.3,0.7-0.3c7.4,0,14.8,0,22.1,0
					c0.3,0,0.5,0.1,0.7,0.3v16c-0.1,0.3-0.4,0.4-0.7,0.4c-2.6,0-5.1,0-7.6,0c-0.1,0-0.2,0-0.3,0c0.2,1,0.4,2,0.6,2.9
					c0.1,0,0.2,0,0.2,0c0.3,0,0.4,0.2,0.4,0.5c0,0.2-0.2,0.5-0.4,0.5c-0.1,0-0.1,0-0.2,0c-2.1,0-4.3,0-6.4,0c-0.4,0-0.9,0-1.3,0
					c-0.3,0-0.5-0.2-0.5-0.5c0-0.3,0.2-0.5,0.5-0.5c0.1,0,0.1,0,0.2,0c0.2-1,0.4-1.9,0.6-2.9h-0.4c-2.5,0-5,0-7.5,0
					C31,412.1,30.8,412,30.6,411.7 M42.4,409.1c0.1,0,0.1,0,0.2,0c3.4,0,6.9,0,10.3,0c0.2,0,0.2-0.1,0.2-0.3c0-4.1,0-8.2,0-12.2
					c0-0.1,0-0.1,0-0.2H31.6v12.7h1v-3.9h9.8V409.1L42.4,409.1z M41.4,406.2h-7.8v2.9h7.8V406.2z M45.1,415c0,0,0-0.1,0-0.1
					c-0.2-0.9-0.4-1.7-0.5-2.6c0-0.2-0.1-0.2-0.3-0.2c-1.3,0-2.6,0-3.9,0c-0.1,0-0.1,0-0.2,0c-0.2,1-0.4,1.9-0.6,2.9L45.1,415
					L45.1,415z M42.2,410.1H31.6v0.9h10.6C41.8,410.7,41.8,410.4,42.2,410.1 M53.2,410.1H42.6c0.4,0.3,0.4,0.6,0,0.9h10.5V410.1z"/>
			</g>
		</g>
	</g>
	<g>
		<g>
			<g>
				<defs>
					<rect id="SVGID_25_" x="30.6" y="395.4" width="23.5" height="20.6"/>
				</defs>
				<clipPath id="SVGID_26_">
					<use xlink:href="#SVGID_25_"  overflow="visible"/>
				</clipPath>
				<path clip-path="url(#SVGID_26_)" fill="#FFFFFF" d="M52.2,404.2H32.6v-6.8h19.6V404.2z M51.2,398.3H33.6v4.9h17.6V398.3z"/>
			</g>
		</g>
	</g>
	<g>
		<g>
			<g>
				<defs>
					<rect id="SVGID_27_" x="30.6" y="395.4" width="23.5" height="20.6"/>
				</defs>
				<clipPath id="SVGID_28_">
					<use xlink:href="#SVGID_27_"  overflow="visible"/>
				</clipPath>
				<path clip-path="url(#SVGID_28_)" fill="#FFFFFF" d="M47.3,405.2c1.1,0,2.2,0,3.3,0c0.1,0,0.2,0,0.3,0c0.2,0.1,0.4,0.3,0.4,0.5
					c0,0.2-0.1,0.4-0.4,0.5c-0.1,0-0.2,0-0.3,0c-2.2,0-4.3,0-6.5,0c-0.4,0-0.7-0.2-0.7-0.5c0-0.3,0.2-0.5,0.7-0.5
					C45.1,405.2,46.2,405.2,47.3,405.2"/>
			</g>
		</g>
	</g>
	<g>
		<g>
			<g>
				<defs>
					<rect id="SVGID_29_" x="30.6" y="395.4" width="23.5" height="20.6"/>
				</defs>
				<clipPath id="SVGID_30_">
					<use xlink:href="#SVGID_29_"  overflow="visible"/>
				</clipPath>
				<path clip-path="url(#SVGID_30_)" fill="#FFFFFF" d="M47.3,407.2c1.1,0,2.2,0,3.4,0c0.3,0,0.6,0.2,0.6,0.5
					c0,0.3-0.2,0.5-0.5,0.5c-0.7,0-1.4,0-2.2,0c-1.5,0-3,0-4.5,0c-0.1,0-0.1,0-0.2,0c-0.3,0-0.5-0.2-0.5-0.5c0-0.3,0.2-0.5,0.5-0.5
					c0.4,0,0.8,0,1.2,0C45.8,407.2,46.5,407.2,47.3,407.2"/>
			</g>
		</g>
	</g>
	<g>
		<g>
			<g>
				<defs>
					<rect id="SVGID_31_" x="30.6" y="395.4" width="23.5" height="20.6"/>
				</defs>
				<clipPath id="SVGID_32_">
					<use xlink:href="#SVGID_31_"  overflow="visible"/>
				</clipPath>
				<path clip-path="url(#SVGID_32_)" fill="#FFFFFF" d="M42.4,401.3c-2.1,0-4.2,0-6.3,0c-0.4,0-0.6-0.2-0.6-0.4
					c0-0.3,0.2-0.5,0.5-0.5c0.7,0,1.3,0,2,0c3.5,0,7,0,10.5,0c0.1,0,0.2,0,0.2,0c0.3,0,0.5,0.2,0.5,0.5c0,0.3-0.2,0.5-0.4,0.5
					c-0.1,0-0.1,0-0.2,0C46.6,401.3,44.5,401.3,42.4,401.3L42.4,401.3z"/>
			</g>
		</g>
	</g>
</g>
<g>
	<g>
		<g>
			<g>
				<defs>
					<rect id="SVGID_33_" x="62.7" y="396" width="23.5" height="22"/>
				</defs>
				<clipPath id="SVGID_34_">
					<use xlink:href="#SVGID_33_"  overflow="visible"/>
				</clipPath>
				<path clip-path="url(#SVGID_34_)" fill="#FFFFFF" d="M86.2,403.4h-0.7v-3.7H72.3v7.3h-0.7c0-0.1,0-0.2,0-0.3c0-3.5,0-7,0-10.5
					c0-0.1,0-0.2,0-0.3h14.7L86.2,403.4L86.2,403.4z M85.5,396.8H72.3v2.2h13.2V396.8z"/>
			</g>
		</g>
	</g>
	<g>
		<g>
			<g>
				<defs>
					<rect id="SVGID_35_" x="62.7" y="396" width="23.5" height="22"/>
				</defs>
				<clipPath id="SVGID_36_">
					<use xlink:href="#SVGID_35_"  overflow="visible"/>
				</clipPath>
				<path clip-path="url(#SVGID_36_)" fill="#FFFFFF" d="M85,418.1c-0.1-0.1-0.2-0.2-0.3-0.3c-0.2-0.5-0.6-0.9-0.7-1.4
					c-0.1-0.5,0-1,0-1.6c0-3.4,0-6.7,0-10.1c0-0.4,0.1-0.5,0.5-0.5c0.4,0,0.8,0,1.1,0c0.2,0,0.4,0.1,0.5,0.3v11.9
					c-0.2,0.5-0.5,0.9-0.7,1.4c-0.1,0.1-0.2,0.2-0.3,0.3L85,418.1L85,418.1z M85.1,416.8C85.1,416.8,85.1,416.8,85.1,416.8
					c0.2-0.3,0.4-0.6,0.4-0.9c0-2.9,0-5.8,0-8.7c0-0.1,0-0.1,0-0.2h-0.7v0.3c0,2.8,0,5.6,0,8.4C84.7,416.2,84.9,416.5,85.1,416.8
					 M84.7,406.3h0.7v-1.5h-0.7V406.3z"/>
			</g>
		</g>
	</g>
	<g>
		<g>
			<g>
				<defs>
					<rect id="SVGID_37_" x="62.7" y="396" width="23.5" height="22"/>
				</defs>
				<clipPath id="SVGID_38_">
					<use xlink:href="#SVGID_37_"  overflow="visible"/>
				</clipPath>
				<path clip-path="url(#SVGID_38_)" fill="#FFFFFF" d="M70.8,396c0,1.4,0,2.8,0,4.1c0,0.1,0,0.2,0,0.3c-0.1,0-0.2,0-0.3,0
					c-2.5,0-5,0-7.5,0c-0.1,0-0.2,0-0.3,0V396H70.8L70.8,396z M70,396.8h-6.6v2.9H70V396.8z"/>
			</g>
		</g>
	</g>
	<g>
		<g>
			<g>
				<defs>
					<rect id="SVGID_39_" x="62.7" y="396" width="23.5" height="22"/>
				</defs>
				<clipPath id="SVGID_40_">
					<use xlink:href="#SVGID_39_"  overflow="visible"/>
				</clipPath>
				<path clip-path="url(#SVGID_40_)" fill="#FFFFFF" d="M62.7,401.2c1.9,0,3.9,0,5.8,0c0.7,0,1.3,0,2,0c0.1,0,0.2,0,0.3,0v5.8h-0.7
					v-5.1h-6.6v6.6h0.7v0.7h-1.4L62.7,401.2L62.7,401.2z"/>
			</g>
		</g>
	</g>
	<g>
		<g>
			<g>
				<defs>
					<rect id="SVGID_41_" x="62.7" y="396" width="23.5" height="22"/>
				</defs>
				<clipPath id="SVGID_42_">
					<use xlink:href="#SVGID_41_"  overflow="visible"/>
				</clipPath>
				<polygon clip-path="url(#SVGID_42_)" fill="#FFFFFF" points="71.5,418.1 71.5,416.6 72.2,416.6 72.2,417.3 83.6,417.3 
					83.6,418.1 				"/>
			</g>
		</g>
	</g>
	<g>
		<g>
			<g>
				<defs>
					<rect id="SVGID_43_" x="62.7" y="396" width="23.5" height="22"/>
				</defs>
				<clipPath id="SVGID_44_">
					<use xlink:href="#SVGID_43_"  overflow="visible"/>
				</clipPath>
				<path clip-path="url(#SVGID_44_)" fill="#FFFFFF" d="M64.9,407.8h15.4v8H64.9V407.8z M65.6,415.1h13.9v-6.4
					c-0.1,0-0.1,0.1-0.2,0.1c-2.1,1.1-4.3,2.1-6.4,3.2c-0.2,0.1-0.4,0.1-0.6,0c-2.1-1.1-4.3-2.1-6.4-3.2c-0.1,0-0.1-0.1-0.2-0.1
					L65.6,415.1L65.6,415.1z M66.9,408.5c0.1,0.1,0.1,0.1,0.2,0.1c1.8,0.9,3.6,1.8,5.5,2.7c0.1,0,0.2,0,0.3,0
					c1.8-0.9,3.6-1.8,5.4-2.7c0.1,0,0.1-0.1,0.2-0.1L66.9,408.5L66.9,408.5z"/>
			</g>
		</g>
	</g>
	<g>
		<g>
			<g>
				<defs>
					<rect id="SVGID_45_" x="62.7" y="396" width="23.5" height="22"/>
				</defs>
				<clipPath id="SVGID_46_">
					<use xlink:href="#SVGID_45_"  overflow="visible"/>
				</clipPath>
				<rect x="64.2" y="402.7" clip-path="url(#SVGID_46_)" fill="#FFFFFF" width="5.1" height="0.7"/>
			</g>
		</g>
	</g>
	<g>
		<g>
			<g>
				<defs>
					<rect id="SVGID_47_" x="62.7" y="396" width="23.5" height="22"/>
				</defs>
				<clipPath id="SVGID_48_">
					<use xlink:href="#SVGID_47_"  overflow="visible"/>
				</clipPath>
				<rect x="77" y="401.2" clip-path="url(#SVGID_48_)" fill="#FFFFFF" width="0.7" height="0.7"/>
			</g>
		</g>
	</g>
	<g>
		<g>
			<g>
				<defs>
					<rect id="SVGID_49_" x="62.7" y="396" width="23.5" height="22"/>
				</defs>
				<clipPath id="SVGID_50_">
					<use xlink:href="#SVGID_49_"  overflow="visible"/>
				</clipPath>
				<rect x="78.5" y="401.2" clip-path="url(#SVGID_50_)" fill="#FFFFFF" width="0.7" height="0.7"/>
			</g>
		</g>
	</g>
	<g>
		<g>
			<g>
				<defs>
					<rect id="SVGID_51_" x="62.7" y="396" width="23.5" height="22"/>
				</defs>
				<clipPath id="SVGID_52_">
					<use xlink:href="#SVGID_51_"  overflow="visible"/>
				</clipPath>
				<rect x="80" y="401.2" clip-path="url(#SVGID_52_)" fill="#FFFFFF" width="0.7" height="0.7"/>
			</g>
		</g>
	</g>
	<g>
		<g>
			<g>
				<defs>
					<rect id="SVGID_53_" x="62.7" y="396" width="23.5" height="22"/>
				</defs>
				<clipPath id="SVGID_54_">
					<use xlink:href="#SVGID_53_"  overflow="visible"/>
				</clipPath>
				<rect x="73" y="397.5" clip-path="url(#SVGID_54_)" fill="#FFFFFF" width="11.7" height="0.7"/>
			</g>
		</g>
	</g>
	<g>
		<g>
			<g>
				<defs>
					<rect id="SVGID_55_" x="62.7" y="396" width="23.5" height="22"/>
				</defs>
				<clipPath id="SVGID_56_">
					<use xlink:href="#SVGID_55_"  overflow="visible"/>
				</clipPath>
				<rect x="64.9" y="397.9" clip-path="url(#SVGID_56_)" fill="#FFFFFF" width="0.7" height="0.7"/>
			</g>
		</g>
	</g>
	<g>
		<g>
			<g>
				<defs>
					<rect id="SVGID_57_" x="62.7" y="396" width="23.5" height="22"/>
				</defs>
				<clipPath id="SVGID_58_">
					<use xlink:href="#SVGID_57_"  overflow="visible"/>
				</clipPath>
				<rect x="66.4" y="397.9" clip-path="url(#SVGID_58_)" fill="#FFFFFF" width="0.7" height="0.7"/>
			</g>
		</g>
	</g>
	<g>
		<g>
			<g>
				<defs>
					<rect id="SVGID_59_" x="62.7" y="396" width="23.5" height="22"/>
				</defs>
				<clipPath id="SVGID_60_">
					<use xlink:href="#SVGID_59_"  overflow="visible"/>
				</clipPath>
				<rect x="67.9" y="397.9" clip-path="url(#SVGID_60_)" fill="#FFFFFF" width="0.7" height="0.7"/>
			</g>
		</g>
	</g>
</g>
<g>
	<g>
		<g>
			<g>
				<defs>
					<rect id="SVGID_61_" x="134" y="395.6" width="18.2" height="18.2"/>
				</defs>
				<clipPath id="SVGID_62_">
					<use xlink:href="#SVGID_61_"  overflow="visible"/>
				</clipPath>
				<path clip-path="url(#SVGID_62_)" fill="none" stroke="#FFFFFF" stroke-miterlimit="10" d="M151.9,411.4c0,1.3-1.1,2.4-2.4,2.4
					h-12.7c-1.3,0-2.4-1.1-2.4-2.4v-12.7c0-1.3,1.1-2.4,2.4-2.4h12.7c1.3,0,2.4,1.1,2.4,2.4V411.4z"/>
			</g>
		</g>
	</g>
	<g>
		<g>
			<g>
				<defs>
					<rect id="SVGID_63_" x="134" y="395.6" width="18.2" height="18.2"/>
				</defs>
				<clipPath id="SVGID_64_">
					<use xlink:href="#SVGID_63_"  overflow="visible"/>
				</clipPath>
				<circle clip-path="url(#SVGID_64_)" fill="none" stroke="#FFFFFF" stroke-miterlimit="10" cx="140.4" cy="401.6" r="3"/>
			</g>
		</g>
	</g>
	<g>
		<g>
			<g>
				<defs>
					<rect id="SVGID_65_" x="134" y="395.6" width="18.2" height="18.2"/>
				</defs>
				<clipPath id="SVGID_66_">
					<use xlink:href="#SVGID_65_"  overflow="visible"/>
				</clipPath>
				
					<rect x="142.2" y="404" clip-path="url(#SVGID_66_)" fill="none" stroke="#FFFFFF" stroke-miterlimit="10" width="6.5" height="6.5"/>
			</g>
		</g>
	</g>
</g>
<g>
	<g>
		<g>
			<g>
				<defs>
					<rect id="SVGID_67_" x="92.6" y="395.6" width="26.4" height="26.5"/>
				</defs>
				<clipPath id="SVGID_68_">
					<use xlink:href="#SVGID_67_"  overflow="visible"/>
				</clipPath>
				<path clip-path="url(#SVGID_68_)" fill="#FFFFFF" d="M99.7,414.5c-1.3,0-2.6,0-3.9,0c-0.9,0-1.7,0-2.6,0c-0.5,0-0.7-0.2-0.7-0.7
					c0-5.2,0-10.3,0-15.5c0-0.5,0.2-0.7,0.7-0.7c3.2,0,6.5,0,9.7,0c0.2,0,0.3,0,0.6,0c0-0.5,0-1,0-1.5c0-0.4,0.2-0.6,0.6-0.6
					c1.1,0,2.3,0,3.4,0c0.4,0,0.6,0.2,0.6,0.6c0,0.5,0,0.9,0,1.5c0.2,0,0.4,0,0.6,0c3.2,0,6.4,0,9.5,0c0.7,0,0.8,0.1,0.8,0.8
					c0,5.1,0,10.2,0,15.3c0,0.7-0.1,0.8-0.8,0.8c-1.9,0-3.7,0-5.6,0c-0.2,0-0.4,0-0.7,0c0,0.2,0.1,0.4,0.1,0.6c0.5,2,1,4,1.5,6.1
					c0.2,0.8,0.1,0.9-0.7,0.9c-0.6,0-1.3,0-1.9,0c-0.5,0-0.7-0.2-0.9-0.7c-0.5-2.1-1-4.2-1.6-6.3c-0.2-0.7-0.2-0.7-1-0.5
					c0,0.5,0,1,0,1.5c0,0.9,0,1.8,0,2.7c0,0.4-0.1,0.6-0.6,0.6c-0.8,0-1.6,0-2.3,0c-0.4,0-0.6-0.2-0.6-0.6c0-1.2,0-2.5,0-3.7
					c0-0.2,0-0.3,0-0.5c-0.8-0.2-0.8-0.2-1,0.5c-0.5,2.1-1.1,4.2-1.6,6.3c-0.1,0.5-0.3,0.7-0.9,0.7c-0.6,0-1.2,0-1.9,0
					c-0.8,0-0.9-0.1-0.7-1c0.5-2.1,1-4.1,1.5-6.2C99.6,414.8,99.6,414.7,99.7,414.5 M93.4,413.7h24.8v-15.2H93.4V413.7z
					 M109.2,414.5c0.5,2.2,1.1,4.3,1.6,6.4c0,0.1,0.2,0.3,0.3,0.3c0.5,0,1.1,0,1.6,0c-0.6-2.2-1.1-4.3-1.6-6.5
					c0-0.1-0.2-0.2-0.3-0.2C110.3,414.5,109.8,414.5,109.2,414.5 M102.4,414.5c-0.5,0-0.9,0-1.3,0c-0.4,0-0.6,0.1-0.7,0.5
					c-0.3,1.3-0.6,2.6-1,3.9c-0.2,0.7-0.4,1.5-0.6,2.2h1.9C101.3,419,101.8,416.8,102.4,414.5 M104.9,418.5h1.8v-4h-1.8V418.5z
					 M107.3,396.4h-2.9v1.2h2.9V396.4z"/>
			</g>
		</g>
	</g>
	<g>
		<g>
			<g>
				<defs>
					<rect id="SVGID_69_" x="92.6" y="395.6" width="26.4" height="26.5"/>
				</defs>
				<clipPath id="SVGID_70_">
					<use xlink:href="#SVGID_69_"  overflow="visible"/>
				</clipPath>
				<path clip-path="url(#SVGID_70_)" fill="#FFFFFF" d="M100.3,406.4c1.2,0,2.3,0,3.5,0c0.4,0,0.6,0.1,0.5,0.6
					c-0.2,2.2-2.1,3.9-4.4,3.8c-2.1-0.1-3.9-1.9-4-4c0-2.3,1.7-4.2,3.9-4.3c0.4,0,0.5,0.1,0.5,0.5
					C100.3,404.1,100.3,405.2,100.3,406.4 M99.9,402.9c-1.2-0.1-2.7,0.8-3.3,2.1c-0.7,1.5-0.3,3.2,0.9,4.3c1.2,1.1,3,1.3,4.4,0.6
					c1.2-0.6,2.1-2.1,1.9-3.2c-1,0-2,0-3.1,0c-0.9,0-0.8,0.1-0.8-0.9C99.9,405,99.9,403.9,99.9,402.9"/>
			</g>
		</g>
	</g>
	<g>
		<g>
			<g>
				<defs>
					<rect id="SVGID_71_" x="92.6" y="395.6" width="26.4" height="26.5"/>
				</defs>
				<clipPath id="SVGID_72_">
					<use xlink:href="#SVGID_71_"  overflow="visible"/>
				</clipPath>
				<path clip-path="url(#SVGID_72_)" fill="#FFFFFF" d="M104.1,404.8c-0.6,0-1.1,0-1.7,0c-0.3,0-0.5-0.1-0.5-0.4c0-1.2,0-2.4,0-3.5
					c0-0.3,0.1-0.4,0.4-0.4c2,0.1,3.9,1.9,3.9,3.9c0,0.3-0.1,0.4-0.4,0.4C105.3,404.8,104.7,404.8,104.1,404.8 M102.3,400.9
					c0,1.1,0,2.2,0,3.3c0,0.1,0.2,0.2,0.4,0.2c0.6,0,1.3,0,1.9,0c0.4,0,0.8,0,1.3,0C105.8,402.5,104,400.8,102.3,400.9"/>
			</g>
		</g>
	</g>
	<g>
		<g>
			<g>
				<defs>
					<rect id="SVGID_73_" x="92.6" y="395.6" width="26.4" height="26.5"/>
				</defs>
				<clipPath id="SVGID_74_">
					<use xlink:href="#SVGID_73_"  overflow="visible"/>
				</clipPath>
				<path clip-path="url(#SVGID_74_)" fill="#FFFFFF" d="M112.2,412.5c-0.1-0.1-0.2-0.2-0.2-0.4c0-1.6,0-3.3,0-4.9
					c0-0.1,0.1-0.2,0.1-0.4C112.4,407.1,112.5,411.4,112.2,412.5"/>
			</g>
		</g>
	</g>
	<g>
		<g>
			<g>
				<defs>
					<rect id="SVGID_75_" x="92.6" y="395.6" width="26.4" height="26.5"/>
				</defs>
				<clipPath id="SVGID_76_">
					<use xlink:href="#SVGID_75_"  overflow="visible"/>
				</clipPath>
				<path clip-path="url(#SVGID_76_)" fill="#FFFFFF" d="M107.6,412.4c0-0.6,0-1.1,0-1.7c0-0.6,0-1.3,0-1.9c0-0.1,0.1-0.2,0.1-0.3
					c0.1,0.1,0.2,0.2,0.2,0.2c0,1.2,0,2.3,0,3.5c0,0.1-0.1,0.2-0.2,0.2C107.7,412.5,107.6,412.5,107.6,412.4"/>
			</g>
		</g>
	</g>
	<g>
		<g>
			<g>
				<defs>
					<rect id="SVGID_77_" x="92.6" y="395.6" width="26.4" height="26.5"/>
				</defs>
				<clipPath id="SVGID_78_">
					<use xlink:href="#SVGID_77_"  overflow="visible"/>
				</clipPath>
				<path clip-path="url(#SVGID_78_)" fill="#FFFFFF" d="M110.2,411c0,0.4,0,0.8,0,1.1c0,0.1-0.1,0.2-0.2,0.3
					c-0.1-0.1-0.2-0.2-0.2-0.3c0-0.8,0-1.6,0-2.3c0-0.1,0.1-0.2,0.2-0.3c0.1,0.1,0.2,0.2,0.2,0.3C110.2,410.3,110.2,410.7,110.2,411
					"/>
			</g>
		</g>
	</g>
	<g>
		<g>
			<g>
				<defs>
					<rect id="SVGID_79_" x="92.6" y="395.6" width="26.4" height="26.5"/>
				</defs>
				<clipPath id="SVGID_80_">
					<use xlink:href="#SVGID_79_"  overflow="visible"/>
				</clipPath>
				<path clip-path="url(#SVGID_80_)" fill="#FFFFFF" d="M114.4,408.7c0.2,0.4,0.2,3.4,0,3.7C114.1,412.1,114.1,409,114.4,408.7"/>
			</g>
		</g>
	</g>
	<g>
		<g>
			<g>
				<defs>
					<rect id="SVGID_81_" x="92.6" y="395.6" width="26.4" height="26.5"/>
				</defs>
				<clipPath id="SVGID_82_">
					<use xlink:href="#SVGID_81_"  overflow="visible"/>
				</clipPath>
				<path clip-path="url(#SVGID_82_)" fill="#FFFFFF" d="M114.3,400.5c-0.4,0-0.7,0-1.1,0c-0.1,0-0.2-0.1-0.2-0.2
					c0.1-0.1,0.1-0.2,0.2-0.2c0.7,0,1.5,0,2.2,0c0.1,0,0.1,0.1,0.2,0.2c-0.1,0.1-0.2,0.2-0.3,0.2C115,400.5,114.6,400.5,114.3,400.5
					"/>
			</g>
		</g>
	</g>
	<g>
		<g>
			<g>
				<defs>
					<rect id="SVGID_83_" x="92.6" y="395.6" width="26.4" height="26.5"/>
				</defs>
				<clipPath id="SVGID_84_">
					<use xlink:href="#SVGID_83_"  overflow="visible"/>
				</clipPath>
				<path clip-path="url(#SVGID_84_)" fill="#FFFFFF" d="M115.6,405c-0.1,0.1-0.3,0.2-0.4,0.2c-0.7,0-1.3,0-2,0
					c-0.1,0-0.2-0.1-0.3-0.2c0.1-0.1,0.2-0.2,0.3-0.2c0.7,0,1.4,0,2.1,0c0.1,0,0.1,0,0.2,0C115.6,404.9,115.6,404.9,115.6,405"/>
			</g>
		</g>
	</g>
	<g>
		<g>
			<g>
				<defs>
					<rect id="SVGID_85_" x="92.6" y="395.6" width="26.4" height="26.5"/>
				</defs>
				<clipPath id="SVGID_86_">
					<use xlink:href="#SVGID_85_"  overflow="visible"/>
				</clipPath>
				<path clip-path="url(#SVGID_86_)" fill="#FFFFFF" d="M112.8,402.5c1-0.1,1.9-0.1,2.9,0C115.3,402.9,113.2,402.9,112.8,402.5"/>
			</g>
		</g>
	</g>
</g>
<path fill="#FFFFFF" d="M-107.2,371.3c0,4.7,0,9.4,0,14.1c-0.2,0.8-0.8,1.4-1.7,1.6c-7.4,0-14.9,0-22.4,0c-0.6-0.2-1-0.4-1.3-0.8
	c-0.1-0.3-0.2-0.5-0.3-0.8c0-4.7,0-9.4,0-14.1c0,0,0,0,0-0.1c0.5-1.2,1-1.5,2.4-1.5c1.6,0,3.3,0,4.8,0c0.1,0,0.2,0,0.5,0
	c0-0.5,0-0.9,0-1.3c0-0.7,0.5-1.2,1.2-1.5c0.2-0.1,0.3-0.1,0.6-0.2c2.4,0,4.8,0,7.2,0c1.5,0.4,1.9,1.2,1.7,2.2c0,0.3,0,0.5,0,0.8
	c0.2,0,0.4,0,0.5,0c1.5,0,3.1,0,4.6,0c1.2,0,1.9,0.5,2.2,1.4C-107.3,371.2-107.2,371.2-107.2,371.3z M-131.5,378.4
	c0,0.1,0,0.1,0,0.2c0,2.2,0,4.3,0,6.6c0,0.5,0.2,0.7,0.8,0.7c7,0,14.1,0,21,0c0.7,0,0.9-0.2,0.9-0.8c0-2.1,0-4.2,0-6.4
	c0-0.1,0-0.2,0-0.3c-2.9,0-5.8,0-8.6,0c0,0.1,0,0.1,0,0.2c-0.1,0.8-0.7,1.4-1.7,1.5c-0.6,0-1.3,0-1.9,0c-0.8-0.1-1.4-0.4-1.6-1.1
	c-0.1-0.2-0.1-0.4-0.1-0.6C-125.7,378.4-128.6,378.4-131.5,378.4z M-122.8,377.4c0-0.1,0-0.2,0-0.3c0.1-0.8,0.9-1.4,1.9-1.4
	c0.6,0,1,0,1.6,0c0.8,0,1.5,0.5,1.7,1.2c0,0.2,0,0.3,0.1,0.5c2.9,0,5.7,0,8.6,0c0-0.1,0-0.1,0-0.2c0-1.8,0-3.6,0-5.5
	c0-0.5-0.2-0.7-0.8-0.7c-4.3,0-8.7,0-13,0c-0.9,0-1.9,0-2.8,0c-1.9,0-3.7,0-5.5,0c-0.3,0-0.6,0.1-0.6,0.4c0,0.1,0,0.2,0,0.4
	c0,1.7,0,3.5,0,5.2c0,0.1,0,0.2,0,0.3C-128.6,377.4-125.7,377.4-122.8,377.4z M-123.8,369.7c2.6,0,5.1,0,7.7,0v-0.1c0-0.3,0-0.7,0-1
	c0-0.5-0.2-0.6-0.8-0.6c-0.6,0-1.3,0-1.9,0c-1.4,0-2.9,0-4.3,0c-0.5,0-0.7,0.2-0.7,0.5C-123.8,368.8-123.8,369.2-123.8,369.7z
	 M-121.6,378.4c0,0.5,0.2,0.8,0.7,0.8c0.6,0,1.2,0,1.7,0c0.5,0,0.8-0.4,0.7-0.8C-119.5,378.4-120.6,378.4-121.6,378.4z
	 M-118.5,377.4c0-0.4-0.2-0.7-0.7-0.7c-0.6,0-1.2,0-1.7,0c-0.5,0-0.7,0.3-0.7,0.7C-120.6,377.4-119.5,377.4-118.5,377.4z"/>
<g>
	<path fill="#FFFFFF" d="M-29.6,382.6c0.1-0.4,0.1-0.9,0.2-1.3c0.6-2.4,3.1-4.5,5.6-4.6c1.5,0,2.9-0.1,4.4,0.1
		c3.2,0.5,5.1,3.2,5.2,5.3c0,0.1,0,0.1,0.1,0.2c0,1.5,0,3.1,0,4.6c-5.2,0-10.3,0-15.5,0C-29.6,385.4-29.6,384-29.6,382.6z
		 M-21.2,385.7c0.1,0,0.1,0,0.2,0c1.8,0,3.6,0,5.5,0c0.2,0,0.3-0.1,0.3-0.3c0-0.9,0-1.9,0-2.8c-0.1-2.7-1.8-4.5-4.4-4.9
		c-0.2,0.9-0.8,1.3-1.7,1.4c0,0.2,0,0.3,0.1,0.4c0.3,1.4,0.6,2.9,0.9,4.3c0.1,0.3,0,0.6-0.2,0.9C-20.7,385-20.9,385.3-21.2,385.7z
		 M-22.5,379.1c-0.8-0.1-1.4-0.5-1.7-1.3c0-0.1-0.2-0.1-0.3-0.1c-0.4,0.1-0.7,0.2-1,0.3c-1.9,0.9-3,2.3-3,4.4c0,0.9,0,1.8,0,2.7
		c0,0.5,0,0.5,0.5,0.5c1.7,0,3.3,0,5,0c0.1,0,0.2,0,0.4,0c-0.3-0.4-0.5-0.8-0.7-1.2c-0.1-0.2-0.1-0.5-0.1-0.7
		c0.1-0.5,0.2-1.1,0.3-1.6C-22.9,381.2-22.7,380.1-22.5,379.1z M-21.9,381.8L-21.9,381.8c-0.1,0.1-0.1,0.1-0.1,0.2
		c-0.1,0.5-0.2,1.1-0.4,1.6c-0.2,0.6,0.2,0.9,0.5,1.4c0.2-0.4,0.5-0.7,0.4-1C-21.5,383.3-21.7,382.5-21.9,381.8z M-23,377.5
		c0,0.5,0.1,0.5,0.5,0.5c0.5,0,0.9,0,1.4,0c0.4,0,0.5-0.1,0.4-0.5C-21.5,377.5-22.3,377.5-23,377.5z"/>
	<path fill="#FFFFFF" d="M-21.4,366.4c0.2,0,0.4,0.1,0.6,0.1c2.1,0.5,3.7,2.5,3.6,4.7c-0.1,2.3-1.8,4.2-4,4.5c-2.6,0.3-5-1.4-5.3-4
		c-0.4-2.6,1.4-4.9,4-5.3c0.1,0,0.1,0,0.2-0.1C-22.1,366.4-21.7,366.4-21.4,366.4z M-18.2,371.1c0-2-1.6-3.7-3.7-3.7
		c-2,0-3.7,1.6-3.7,3.7c0,2,1.6,3.7,3.6,3.7C-19.9,374.8-18.2,373.2-18.2,371.1z"/>
</g>
<path fill="#FFFFFF" stroke="#FFFFFF" stroke-width="0.5" stroke-miterlimit="10" d="M11.8,372.7c0.1-0.2,0.1-0.4,0.2-0.6
	c0.4-0.9,1.2-1.5,2.2-1.6c0.4,0,0.9,0,1.3,0c1,0,1.8,0.6,2.2,1.5c0.1,0.2,0.2,0.3,0.4,0.3c2.6,0,5.3,0,7.9,0c0.2,0,0.3-0.1,0.4-0.3
	c0.5-0.9,1.2-1.4,2.2-1.4c0.4,0,0.8,0,1.2,0c1.2,0,2.2,0.8,2.5,2c0,0,0,0.1,0.1,0.1c0,0.7,0,1.4,0,2.1c-0.9,0-1.8,0-2.7,0
	c0,1.5,0,3.1,0,4.6c1.1,0.5,1.5,1.2,1.3,2.1c-0.2,0.8-0.9,1.4-1.8,1.4c-0.8,0-1.5-0.6-1.7-1.4c-0.1-0.8,0.2-1.7,1.3-2.1
	c0-1.5,0-3,0-4.6c-0.1,0-0.3,0-0.5,0c-0.6,0-1.2,0-1.8,0c-0.4,0-0.4-0.1-0.4-0.4c0-0.4,0-0.9,0-1.3c-2.8,0-5.5,0-8.3,0
	c0,0.6,0,1.1,0,1.7c-0.9,0-1.8,0-2.7,0c0,0.1,0,0.2,0,0.4c0,1.3,0,2.6,0,3.9c0,0.2,0.1,0.3,0.3,0.4c0.8,0.3,1.2,1.1,1.1,2
	c-0.1,0.8-0.9,1.4-1.7,1.4s-1.6-0.6-1.7-1.4c-0.2-0.9,0.3-1.7,1.1-2c0.1-0.1,0.3-0.1,0.3-0.3c0-1.4,0-2.8,0-4.3v-0.1
	c-0.8,0-1.6,0-2.3,0c-0.1,0-0.2-0.1-0.4-0.1C11.8,373.9,11.8,373.3,11.8,372.7z M17.1,373.9c0-0.3,0-0.7,0-1c0-0.9-0.6-1.6-1.5-1.7
	c-0.5-0.1-1,0-1.6,0c-0.7,0.1-1.2,0.5-1.4,1.1c-0.1,0.5-0.1,1-0.1,1.5C14.1,373.9,15.6,373.9,17.1,373.9z M31.6,373.9
	c0-0.4,0-0.7,0-1c0-0.9-0.6-1.6-1.6-1.7c-0.5-0.1-1,0-1.5,0c-0.7,0-1.3,0.6-1.4,1.3c-0.1,0.4-0.1,0.9-0.1,1.4
	C28.6,373.9,30.1,373.9,31.6,373.9z M14.9,382.1c0.6,0,1-0.5,1-1c0-0.6-0.5-1-1.1-1s-1,0.5-1,1.1C13.8,381.6,14.3,382.1,14.9,382.1z
	 M29.3,380c-0.6,0-1,0.5-1,1c0,0.6,0.4,1,1,1.1c0.6,0,1.1-0.5,1.1-1C30.3,380.5,29.9,380,29.3,380z"/>
<path fill="#FFFFFF" stroke="#FFFFFF" stroke-width="0.5" stroke-miterlimit="10" d="M11.8,385.1c0.1-0.2,0.1-0.4,0.2-0.6
	c0.4-0.9,1.2-1.4,2.2-1.5c0.4,0,0.8,0,1.3,0c1.2,0,2.1,0.7,2.4,1.8c0.1,0.2,0.2,0.3,0.4,0.3c2.6,0,5.2,0,7.8,0
	c0.2,0,0.3-0.1,0.3-0.3c0.3-1.1,1.2-1.8,2.4-1.8c0.4,0,0.8,0,1.2,0c1.2,0,2.2,0.8,2.5,2c0,0,0,0.1,0.1,0.1c0,0.7,0,1.4,0,2.1
	c-2,0-4.1,0-6.1,0c0-0.5-0.1-0.9-0.1-1.4c-2.8,0-5.5,0-8.3,0c0,0.5,0,0.9,0,1.4c-2.1,0-4.1,0-6.2,0
	C11.8,386.4,11.8,385.8,11.8,385.1z M17.1,386.3c0-0.3,0-0.6,0-0.9c0-0.9-0.6-1.6-1.6-1.7c-0.5-0.1-1,0-1.5,0
	c-0.7,0-1.3,0.6-1.4,1.3c-0.1,0.4,0,0.9,0,1.4C14.1,386.3,15.6,386.3,17.1,386.3z M27,386.3c1.5,0,3,0,4.6,0c0-0.3,0-0.7,0-1
	c0-0.9-0.6-1.6-1.5-1.7c-0.5-0.1-1,0-1.6,0c-0.7,0.1-1.4,0.7-1.5,1.4C27,385.5,27,385.9,27,386.3z"/>
<path fill="#FFFFFF" stroke="#FFFFFF" stroke-width="0.5" stroke-miterlimit="10" d="M15.2,366.8c0.1,0,0.2,0.1,0.2,0.1
	c0.8,0.3,1.3,1.1,1.2,2c-0.1,0.8-0.9,1.4-1.8,1.4c-0.8,0-1.6-0.6-1.7-1.4c-0.1-0.9,0.4-1.7,1.2-2c0.1,0,0.1-0.1,0.2-0.1
	C14.7,366.8,14.9,366.8,15.2,366.8z M14.8,369.6c0.6,0,1-0.4,1-1c0-0.6-0.4-1-1-1.1c-0.6,0-1.1,0.5-1.1,1
	C13.8,369.2,14.3,369.6,14.8,369.6z"/>
<path fill="#FFFFFF" stroke="#FFFFFF" stroke-width="0.5" stroke-miterlimit="10" d="M29.6,366.8c0.1,0,0.1,0.1,0.2,0.1
	c0.9,0.3,1.3,1.1,1.2,2c-0.1,0.8-0.9,1.4-1.7,1.4c-0.9,0-1.6-0.6-1.8-1.4c-0.1-0.9,0.3-1.7,1.2-2c0.1,0,0.2-0.1,0.2-0.1
	C29.2,366.8,29.4,366.8,29.6,366.8z M29.3,369.6c0.6,0,1-0.5,1-1c0-0.6-0.5-1.1-1.1-1c-0.6,0-1,0.5-1,1
	C28.3,369.2,28.7,369.6,29.3,369.6z"/>
<path fill="#FFFFFF" stroke="#FFFFFF" stroke-width="0.25" stroke-miterlimit="10" d="M185.6,446.5c-0.3,0-0.6,0-0.9,0
	c0,0,0,0-0.1,0c-1.1-0.2-1.9-0.9-2.3-2c0-0.1-0.2-0.2-0.3-0.2c-3.5,0-6.9,0-10.4,0c-0.2,0-0.3,0.1-0.3,0.2c-0.2,0.6-0.6,1.1-1,1.3
	c-0.4,0.2-0.9,0.4-1.3,0.7c-0.3,0-0.6,0-0.9,0c-0.1,0-0.2-0.1-0.3-0.1c-1-0.3-1.7-1-2-1.9c-0.1-0.2-0.1-0.3-0.1-0.6
	c0-0.3,0-0.6,0-0.9c0,0,0-0.1,0.1-0.1c0.2-1.1,0.9-1.9,1.9-2.3c0.1,0,0.2-0.2,0.2-0.3c0-3.3,0-6.7,0-10.1c0-0.2-0.1-0.3-0.2-0.4
	c-0.7-0.2-1.2-0.7-1.6-1.3c-0.1-0.3-0.2-0.7-0.3-1c0-0.3,0-0.6,0-0.9c0-0.1,0.1-0.2,0.1-0.3c0.3-1,0.9-1.8,1.9-2.1
	c0.1-0.1,0.3-0.1,0.4-0.1c0.3,0,0.6,0,0.9,0c0,0,0,0,0.1,0c1.1,0.2,1.9,0.9,2.3,2c0,0.1,0.2,0.2,0.3,0.2c3.5,0,6.9,0,10.4,0
	c0.2,0,0.3-0.1,0.4-0.2c0.3-0.4,0.6-1,1-1.3c0.3-0.3,0.9-0.4,1.3-0.7c0.3,0,0.6,0,0.9,0c0.1,0,0.2,0.1,0.3,0.1c1,0.3,1.7,1,2,1.9
	c0.1,0.2,0.1,0.3,0.1,0.6c0,0.3,0,0.6,0,0.9l-0.1,0.1c-0.2,1.1-0.9,1.8-1.9,2.2c-0.1,0-0.2,0.2-0.2,0.3c0,3.3,0,6.7,0,10.1
	c0,0.2,0.1,0.3,0.3,0.4c0.7,0.2,1.2,0.7,1.6,1.3c0.1,0.3,0.2,0.7,0.3,1c0,0.3,0,0.6,0,0.9c0,0.1-0.1,0.2-0.1,0.3
	c-0.3,1-0.9,1.8-1.9,2.1C186,446.3,185.7,446.5,185.6,446.5z M177,442.8L177,442.8c1.7,0,3.5,0,5.1,0c0.2,0,0.3-0.1,0.4-0.3
	c0.3-0.8,0.9-1.4,1.7-1.8c0.2-0.1,0.3-0.2,0.3-0.4c0-3.3,0-6.7,0-10c0-0.2,0-0.3-0.3-0.4c-0.9-0.3-1.4-0.9-1.7-1.7
	c-0.1-0.2-0.2-0.3-0.4-0.3c-3.5,0-6.8,0-10.2,0c-0.2,0-0.3,0.1-0.4,0.3c-0.3,0.9-0.9,1.4-1.8,1.8c-0.2,0.1-0.3,0.2-0.3,0.4
	c0,3.3,0,6.7,0,10c0,0.2,0,0.3,0.2,0.4c0.9,0.3,1.4,0.9,1.8,1.8c0.1,0.2,0.2,0.3,0.4,0.3C173.5,442.8,175.2,442.8,177,442.8z
	 M170.4,427.1c0-1-0.8-1.8-1.7-1.8c-1,0-1.8,0.8-1.8,1.8s0.8,1.8,1.8,1.8C169.6,428.9,170.4,428.1,170.4,427.1z M185.2,428.9
	c1,0,1.8-0.8,1.8-1.8s-0.8-1.8-1.8-1.8s-1.8,0.8-1.8,1.8S184.2,428.9,185.2,428.9z M183.4,443.6c0,1,0.8,1.8,1.8,1.8
	c0.9,0,1.8-0.8,1.8-1.8s-0.8-1.8-1.8-1.8C184.2,441.7,183.4,442.6,183.4,443.6z M170.4,443.6c0-1-0.8-1.8-1.8-1.8s-1.8,0.8-1.8,1.8
	s0.8,1.8,1.8,1.8C169.6,445.3,170.4,444.6,170.4,443.6z"/>
<g>
	<path fill="#3D3C40" stroke="#3D3C40" stroke-miterlimit="10" d="M92.2,459.9c-0.8-4.3-4.3-7.3-8.3-7.3c-0.6,0-1.1,0.1-1.7,0.2
		c-2.2,0.4-4.1,1.8-5.4,3.8s-1.7,4.5-1.3,6.9c0.3,1.6,0.9,3.1,1.5,4.4c1.1,2.5,2.5,5.1,4.5,8.1c0.4,0.6,0.9,1.3,1.3,1.9l0,0l0.1,0.1
		l0,0c0.2,0.3,0.6,0.5,0.9,0.5c0.2,0,0.6-0.1,1-0.6c1.3-1.9,2.5-3.7,3.5-5.5c1.2-2.1,2.7-4.8,3.6-7.9
		C92.4,463,92.5,461.4,92.2,459.9z M90.7,464.2c-0.9,2.9-2.3,5.6-3.4,7.6c-1,1.8-2.2,3.5-3.4,5.4l0,0v-0.1l0,0l0,0
		c-0.4-0.6-0.9-1.3-1.3-1.9c-1.9-2.9-3.3-5.4-4.4-7.8c-0.5-1.2-1.1-2.6-1.4-4.1c-0.4-2.1,0-4.2,1.1-5.9c1.1-1.7,2.7-2.9,4.6-3.3
		c0.5-0.1,1-0.1,1.5-0.1c3.5,0,6.4,2.6,7.1,6.3C91.2,461.5,91.1,462.8,90.7,464.2z M83.8,457.4c-2.2,0-3.9,1.9-3.9,4.2
		c0,2.3,1.8,4.2,3.9,4.2s3.9-1.9,3.9-4.2C87.7,459.3,86,457.4,83.8,457.4z M83.8,464.5c-1.5,0-2.7-1.3-2.7-2.9
		c0-1.6,1.2-2.9,2.7-2.9s2.7,1.3,2.7,2.9C86.5,463.2,85.3,464.5,83.8,464.5z"/>
</g>
<path fill="#3D3C40" stroke="#3D3C40" stroke-miterlimit="10" d="M119.9,453.3c0.5,0.2,0.9,0.6,1.2,1c1,1.5,2,3,3,4.5
	c0.5,0.7,0.5,1.4,0.1,2.1c-0.4,0.7-0.8,1.5-1.2,2.2c-0.2,0.3-0.2,0.5,0,0.7c2,2.6,4.3,4.9,6.9,6.9c0.2,0.2,0.4,0.2,0.6,0
	c0.6-0.4,1.3-0.7,1.9-1.1c0.9-0.5,1.7-0.5,2.6,0.1c1.5,1.1,3,2,4.5,3c0.9,0.6,1.2,1.5,0.6,2.4c-1,1.5-2.1,2.8-3.6,3.8
	c-0.7,0.5-1.5,0.2-2.3,0.1c-2.5-0.6-4.6-1.8-6.6-3.4c-4-3-7.5-6.5-10.3-10.6c-1.2-1.7-2.2-3.5-2.7-5.6c-0.1-0.2-0.1-0.5-0.2-0.7
	c0-0.4,0-0.8,0-1.2c0.2-0.4,0.4-0.7,0.7-1.1c1.1-1.3,2.3-2.4,3.7-3.2C119.3,453.3,119.6,453.3,119.9,453.3z M135.7,478.2
	c0.2-0.1,0.6-0.2,0.8-0.4c0.9-1,1.9-2,2.7-3c0.4-0.4,0.2-0.9-0.3-1.2c-1.5-1-3-1.9-4.4-3c-0.6-0.4-1-0.4-1.6-0.1
	c-0.8,0.4-1.5,0.8-2.3,1.3c-0.4,0.2-0.6,0.2-0.9,0c-1.4-1.2-2.9-2.4-4.2-3.7c-1.3-1.3-2.4-2.7-3.6-4.1c-0.3-0.3-0.3-0.6-0.1-1
	c0.5-0.8,0.9-1.6,1.3-2.3c0.3-0.5,0.3-0.9-0.1-1.5c-1-1.5-2-3-3-4.5c-0.3-0.5-0.8-0.6-1.2-0.3c-1,0.9-2.1,1.8-3,2.8
	c-0.2,0.2-0.3,0.7-0.3,1c0.1,1.3,0.5,2.4,1.1,3.5c0.9,1.9,2.2,3.7,3.6,5.3c2.9,3.4,6.1,6.5,9.9,9C131.8,477.2,133.6,478,135.7,478.2
	z"/>
<g>
	<path fill="#3D3C40" stroke="#3D3C40" stroke-miterlimit="10" d="M194.4,458.9v-0.1c0-0.4-0.2-0.9-0.5-1.2l0,0l0,0
		c-0.1-0.1-0.2-0.1-0.2-0.2c0,0,0,0-0.1,0c-0.1,0-0.2-0.1-0.3-0.1c0,0,0,0-0.1,0s-0.2-0.1-0.3-0.1c0,0,0,0-0.1,0c-0.1,0-0.3,0-0.4,0
		h-24.8c-0.2,0-0.3,0-0.5,0H167c-0.1,0-0.2,0-0.3,0.1c0,0,0,0-0.1,0c-0.1,0-0.2,0.1-0.3,0.1l0,0c-0.1,0-0.2,0.1-0.2,0.1l-0.1,0.1
		c-0.3,0.3-0.4,0.6-0.5,1c0,0,0,0,0,0.1v16.6c0,0,0,0,0,0.1c0.1,0.5,0.3,1,0.7,1.2c0.3,0.2,0.8,0.4,1.3,0.4h25l0,0l0,0
		c0.1,0,0.3,0,0.4,0c0,0,0,0,0.1,0c0.1,0,0.2,0,0.3-0.1l0,0c0.8-0.3,1.2-1,1.2-1.7v-0.1l0,0l0,0v-16
		C194.4,458.9,194.4,458.9,194.4,458.9L194.4,458.9z M191.9,458.3l-12,11.5l-2.7-2.6l0,0l-9.4-8.9H191.9L191.9,458.3z M166.8,474.8
		v-15.5l8.9,8.4L166.8,474.8z M179.6,475.6h-11.5l8.6-7l2.8,2.7c0.1,0.1,0.2,0.1,0.3,0.2l0,0c0,0,0,0,0.1,0l0,0h0.1l0,0
		c0.1,0,0.3-0.1,0.3-0.2l2.6-2.5l8.7,6.8H179.6L179.6,475.6z M193,474.9l-8.9-7.1l8.9-8.5V474.9z"/>
</g>
<g>
	<path fill="#FFFFFF" d="M9.8,459.1h-24.2c-0.3,0-0.5,0.2-0.5,0.5v19.8c0,0.3,0.2,0.5,0.5,0.5H9.8c0.3,0,0.5-0.2,0.5-0.5v-19.8
		C10.3,459.3,10.1,459.1,9.8,459.1z M9.3,460.1v3.1h-23.2v-3.1H9.3z M-13.9,478.8v-14.6H9.3v14.6H-13.9L-13.9,478.8z"/>
	<path fill="#FFFFFF" d="M-6.9,466.8H-11c-0.3,0-0.5,0.2-0.5,0.5v4.2c0,0.3,0.2,0.5,0.5,0.5h4.1c0.3,0,0.5-0.2,0.5-0.5v-4.2
		C-6.4,467.1-6.6,466.8-6.9,466.8z M-7.4,471h-3.1v-3.1h3.1V471z"/>
	<path fill="#FFFFFF" d="M-4.4,472h4.1c0.3,0,0.5-0.2,0.5-0.5v-4.2c0-0.3-0.2-0.5-0.5-0.5h-4.1c-0.3,0-0.5,0.2-0.5,0.5v4.2
		C-5,471.8-4.7,472-4.4,472z M-3.9,467.9h3.1v3.1h-3.1V467.9z"/>
	<path fill="#FFFFFF" d="M2.2,472h4.1c0.3,0,0.5-0.2,0.5-0.5v-4.2c0-0.3-0.2-0.5-0.5-0.5H2.2c-0.3,0-0.5,0.2-0.5,0.5v4.2
		C1.7,471.8,1.9,472,2.2,472z M2.7,467.9h3.1v3.1H2.7V467.9z"/>
	<path fill="#FFFFFF" d="M-6.9,473.4H-11c-0.3,0-0.5,0.2-0.5,0.5c0,0.3,0.2,0.5,0.5,0.5h4.1c0.3,0,0.5-0.2,0.5-0.5
		C-6.4,473.6-6.6,473.4-6.9,473.4z"/>
	<path fill="#FFFFFF" d="M-6.9,475.3H-11c-0.3,0-0.5,0.2-0.5,0.5s0.2,0.5,0.5,0.5h4.1c0.3,0,0.5-0.2,0.5-0.5
		C-6.4,475.5-6.6,475.3-6.9,475.3z"/>
	<path fill="#FFFFFF" d="M-0.3,473.4h-4.1c-0.3,0-0.5,0.2-0.5,0.5c0,0.3,0.2,0.5,0.5,0.5h4.1c0.3,0,0.5-0.2,0.5-0.5
		C0.2,473.6,0,473.4-0.3,473.4z"/>
	<path fill="#FFFFFF" d="M-0.3,475.3h-4.1c-0.3,0-0.5,0.2-0.5,0.5s0.2,0.5,0.5,0.5h4.1c0.3,0,0.5-0.2,0.5-0.5
		C0.2,475.5,0,475.3-0.3,475.3z"/>
	<path fill="#FFFFFF" d="M6.4,473.4H2.2c-0.3,0-0.5,0.2-0.5,0.5c0,0.3,0.2,0.5,0.5,0.5h4.1c0.3,0,0.5-0.2,0.5-0.5
		C6.9,473.6,6.7,473.4,6.4,473.4z"/>
	<path fill="#FFFFFF" d="M6.4,475.3H2.2c-0.3,0-0.5,0.2-0.5,0.5s0.2,0.5,0.5,0.5h4.1c0.3,0,0.5-0.2,0.5-0.5
		C6.9,475.5,6.7,475.3,6.4,475.3z"/>
	<path fill="#FFFFFF" d="M-11,462.2h0.3c0.3,0,0.5-0.2,0.5-0.5c0-0.3-0.2-0.5-0.5-0.5H-11c-0.3,0-0.5,0.2-0.5,0.5
		C-11.6,461.9-11.3,462.2-11,462.2z"/>
	<path fill="#FFFFFF" d="M-8.9,462.2h0.3c0.3,0,0.5-0.2,0.5-0.5c0-0.3-0.2-0.5-0.5-0.5h-0.3c-0.3,0-0.5,0.2-0.5,0.5
		C-9.4,461.9-9.2,462.2-8.9,462.2z"/>
	<path fill="#FFFFFF" d="M-6.8,462.2h0.3c0.3,0,0.5-0.2,0.5-0.5c0-0.3-0.2-0.5-0.5-0.5h-0.3c-0.3,0-0.5,0.2-0.5,0.5
		C-7.3,461.9-7.1,462.2-6.8,462.2z"/>
</g>
<line fill="#FFFFFF" x1="7.9" y1="465.6" x2="-14" y2="465.6"/>
<line fill="#FFFFFF" x1="-19.3" y1="449.3" x2="4.9" y2="481.6"/>
</svg>
