<?xml version="1.0" encoding="utf-8"?>
<!-- Generator: Adobe Illustrator 17.1.0, SVG Export Plug-In . SVG Version: 6.00 Build 0)  -->
<!DOCTYPE svg PUBLIC "-//W3C//DTD SVG 1.1//EN" "http://www.w3.org/Graphics/SVG/1.1/DTD/svg11.dtd">
<svg  version="1.1" id="Слой_1" xmlns="http://www.w3.org/2000/svg" xmlns:xlink="http://www.w3.org/1999/xlink" x="0px" y="0px"
	 width="123.8px" height="33px" viewBox="39.8 10.9 123.8 33" enable-background="new 39.8 10.9 123.8 33" xml:space="preserve">
<path fill="#FFFFFF" d="M64.3,19.1C59,18.4,47,21,39.8,26.6c0.7,3.2,2.8,6.4,5.5,9.1l-3.6,3.7l-0.9,4.1l14.7-16c0,0-5.8,3.3-6.7,4.3
	l-1.4,1.5c-1.5-1.7-2.7-3.5-3.3-5.3c5.8-3.5,12.5-5.3,16.6-5.1c0.7,8.2-3.4,16.9-3.4,16.9c-1.8-0.4-4-1.5-6-3L49.2,39
	c3.4,2.5,7.1,4.2,10.1,4.9C59.3,43.9,66.2,31,64.3,19.1z"/>
<path fill="#FFFFFF" d="M85.5,39.8c-0.5,0-0.9-0.1-1.1-0.3s-0.3-0.6-0.3-1V25.6c0-0.5,0.1-0.8,0.3-1c0.2-0.2,0.5-0.3,1.1-0.3h4.2
	c1.3,0,2.4,0.2,3.4,0.6c0.9,0.4,1.7,1,2.2,1.7c0.6,0.7,1,1.5,1.2,2.5c0.3,0.9,0.4,1.9,0.4,3c0,1-0.1,2-0.3,3c-0.2,1-0.6,1.8-1.1,2.5
	c-0.5,0.7-1.3,1.3-2.2,1.7c-0.9,0.4-2,0.7-3.3,0.7L85.5,39.8L85.5,39.8z M119,36.5h-5.2l-0.9,2.8c0,0.1-0.1,0.3-0.2,0.3
	c-0.1,0.1-0.2,0.1-0.4,0.1h-2.6c-0.2,0-0.3,0-0.3-0.1c0-0.1,0-0.2,0-0.3l4.7-14c0.1-0.3,0.2-0.5,0.3-0.6c0.1-0.2,0.2-0.3,0.3-0.4
	c0.1-0.1,0.3-0.2,0.5-0.2c0.2,0,0.4-0.1,0.6-0.1h1.4c0.3,0,0.5,0,0.7,0c0.2,0,0.3,0.1,0.5,0.2c0.1,0.1,0.3,0.2,0.3,0.4
	c0.1,0.2,0.2,0.4,0.3,0.6l4.7,14c0,0.1,0,0.2,0,0.3c0,0.1-0.1,0.2-0.3,0.2h-2.7c-0.2,0-0.3,0-0.4-0.1c-0.1,0-0.2-0.1-0.2-0.3
	L119,36.5L119,36.5z M114.6,33.8h3.5l-0.9-2.8l-0.8-3.2h-0.1l-0.9,3.2L114.6,33.8L114.6,33.8z M149.3,36.7c0.5,0,1.8-0.1,1.8,0.6
	l0,1.6c0,0.7-0.9,0.7-1.4,0.7l-3.3,0c-1.2,0-2.4-0.2-3.3-0.5c-0.9-0.4-1.6-0.9-2.2-1.6c-0.6-0.7-1-1.5-1.3-2.5
	c-0.3-1-0.4-2.1-0.4-3.3c0-1.2,0.2-2.3,0.5-3.3c1.4-4,4.5-4.3,7.2-4.4l2.4,0c0.7,0,1.8,0,1.8,0.8l0,1.3c0,0.9-0.7,0.9-1.3,0.9
	l-1.8,0c-2.2-0.1-4-0.1-5,2.7c-0.2,0.6-0.2,1.3-0.2,2c0,0.7,0.1,1.4,0.2,2c0.1,0.6,0.3,1.1,0.7,1.5c0.7,1,1.9,1.4,3.1,1.4
	L149.3,36.7L149.3,36.7z M163.8,39.2c0,0.2,0,0.3-0.1,0.4c-0.1,0.1-0.2,0.1-0.4,0.1h-6.7c-0.8,0-1.5-0.1-2.1-0.4
	c-0.5-0.2-1-0.5-1.3-0.9c-0.3-0.4-0.5-0.8-0.7-1.3c-0.1-0.5-0.2-1-0.2-1.5v-7.4c0-0.5,0.1-1,0.2-1.5c0.2-0.5,0.4-0.9,0.7-1.3
	c0.3-0.4,0.7-0.7,1.3-0.9c0.5-0.2,1.2-0.3,1.9-0.3h6.5c0.2,0,0.3,0,0.3,0.1c0.1,0.1,0.1,0.2,0.1,0.4v1.9c0,0.2,0,0.3-0.1,0.4
	c-0.1,0.1-0.2,0.1-0.3,0.1h-5.7c-0.6,0-1,0.1-1.2,0.4c-0.2,0.3-0.3,0.6-0.3,1v1.7h6.5c0.2,0,0.3,0,0.3,0.1c0.1,0.1,0.1,0.2,0.1,0.4
	v1.7c0,0.2,0,0.3-0.1,0.4c-0.1,0.1-0.2,0.1-0.3,0.1H156v2.5c0,0.5,0.1,0.9,0.4,1.1c0.2,0.2,0.6,0.3,1.1,0.3h5.9c0.2,0,0.3,0,0.4,0.1
	c0.1,0.1,0.1,0.2,0.1,0.4V39.2L163.8,39.2z M103.7,36.1l-1.1-3.9l-2.4-7.6c0-0.1-0.1-0.2-0.2-0.3c-0.1-0.1-0.2-0.1-0.4-0.1h-2.7
	c-0.1,0-0.2,0-0.3,0.1c0,0.1,0,0.2,0,0.3l4.8,14c0.1,0.3,0.2,0.5,0.3,0.6c0.1,0.2,0.2,0.3,0.3,0.4c0.1,0.1,0.3,0.1,0.4,0.2
	c0.2,0,0.4,0,0.6,0h1.4c0.2,0,0.4,0,0.6,0c0.2,0,0.3-0.1,0.4-0.2c0.1-0.1,0.2-0.2,0.3-0.3c0.1-0.1,0.2-0.4,0.3-0.6l4.8-14.1
	c0-0.1,0-0.2,0-0.2c0-0.1-0.1-0.1-0.3-0.1H108c-0.2,0-0.3,0-0.4,0.1c-0.1,0-0.2,0.1-0.2,0.3l-2.4,7.7l-1.1,3.9H103.7L103.7,36.1z
	 M82.5,39.3c0,0.2,0,0.3-0.1,0.4c-0.1,0.1-0.2,0.1-0.4,0.1h-6.7c-0.8,0-1.5-0.1-2.1-0.4c-0.5-0.2-1-0.5-1.3-0.9
	c-0.3-0.4-0.5-0.8-0.7-1.3c-0.1-0.5-0.2-1-0.2-1.5v-7.4c0-0.5,0.1-1,0.2-1.5c0.2-0.5,0.4-0.9,0.7-1.3c0.3-0.4,0.7-0.7,1.3-0.9
	c0.5-0.2,1.2-0.3,1.9-0.3h6.5c0.2,0,0.3,0,0.3,0.1c0.1,0.1,0.1,0.2,0.1,0.4v1.9c0,0.2,0,0.3-0.1,0.4c-0.1,0.1-0.2,0.1-0.3,0.1h-5.7
	c-0.6,0-1,0.1-1.2,0.4c-0.2,0.3-0.3,0.6-0.3,1v1.7h6.5c0.2,0,0.3,0,0.3,0.1c0.1,0.1,0.1,0.2,0.1,0.4v1.7c0,0.2,0,0.3-0.1,0.4
	c-0.1,0.1-0.2,0.1-0.3,0.1h-6.5v2.5c0,0.5,0.1,0.9,0.4,1.1c0.2,0.2,0.6,0.3,1.1,0.3h6c0.2,0,0.3,0,0.4,0.1c0.1,0.1,0.1,0.2,0.1,0.4
	L82.5,39.3L82.5,39.3z M127.8,30.1v9.2c0,0.2,0,0.3-0.1,0.4c-0.1,0.1-0.2,0.1-0.4,0.1h-2.4c-0.2,0-0.3,0-0.4-0.1
	c-0.1-0.1-0.1-0.2-0.1-0.4V25.7c0-0.6,0.1-1,0.3-1.2c0.2-0.2,0.6-0.3,1.1-0.3h0.9c0.2,0,0.4,0,0.6,0c0.2,0,0.3,0.1,0.4,0.1
	c0.1,0.1,0.2,0.2,0.3,0.3c0.1,0.1,0.2,0.3,0.4,0.5l3.8,5.8l1.9,3h0.1v-9.3c0-0.2,0-0.3,0.1-0.4c0.1-0.1,0.2-0.1,0.4-0.1h2.4
	c0.3,0,0.5,0.2,0.5,0.5v13.6c0,0.5-0.1,0.8-0.3,1.1c-0.2,0.3-0.6,0.4-1.2,0.4h-0.9c-0.2,0-0.4,0-0.6,0c-0.2,0-0.3-0.1-0.4-0.1
	c-0.1-0.1-0.2-0.2-0.3-0.3c-0.1-0.1-0.2-0.3-0.4-0.5l-3.6-5.4l-2.2-3.3H127.8L127.8,30.1z M93.3,31.9c0-0.7-0.1-1.3-0.2-1.9
	c-0.1-0.6-0.3-1.1-0.6-1.5c-0.3-0.4-0.7-0.8-1.3-1c-0.5-0.2-1.2-0.4-2-0.4h-1.8v9.7h1.8c0.8,0,1.4-0.1,1.9-0.4
	c0.5-0.2,0.9-0.6,1.2-1c0.3-0.4,0.5-0.9,0.6-1.5C93.3,33.3,93.3,32.6,93.3,31.9z"/>
<path fill="#FFFFFF" d="M136.5,21.2c0,0.1,0,0.2-0.1,0.2c0,0-0.1,0-0.2,0h-0.9c-0.1,0-0.2,0-0.2,0c0,0-0.1-0.1-0.1-0.2v-3.8
	c0-0.8-0.2-1.5-0.5-1.9c-0.3-0.4-0.8-0.6-1.6-0.6c-0.1,0-0.3,0-0.5,0c-0.2,0-0.3,0-0.5,0.1c-0.2,0-0.3,0.1-0.5,0.1
	c-0.1,0-0.3,0.1-0.4,0.2c0.1,0.3,0.2,0.6,0.3,0.9c0,0.3,0.1,0.7,0.1,1.1v3.8c0,0.1,0,0.2-0.1,0.2c0,0-0.1,0-0.2,0h-0.9
	c-0.1,0-0.2,0-0.2,0c0,0-0.1-0.1-0.1-0.2v-3.8c0-0.4,0-0.7-0.1-1c-0.1-0.3-0.2-0.6-0.3-0.8c-0.2-0.2-0.4-0.4-0.7-0.5
	c-0.3-0.1-0.6-0.2-1.1-0.2c-0.1,0-0.2,0-0.3,0c-0.1,0-0.2,0-0.3,0c-0.1,0-0.2,0-0.4,0c-0.1,0-0.2,0-0.3,0v6.2c0,0.1,0,0.2-0.1,0.2
	c0,0-0.1,0-0.2,0h-0.9c-0.1,0-0.2,0-0.2,0c0,0-0.1-0.1-0.1-0.2v-6.1c0-0.4,0.1-0.6,0.2-0.8c0.1-0.2,0.4-0.3,0.8-0.4
	c0.1,0,0.2,0,0.3,0c0.1,0,0.3,0,0.4,0c0.2,0,0.3,0,0.5,0c0.2,0,0.3,0,0.4,0c0.6,0,1.1,0.1,1.5,0.2c0.4,0.1,0.8,0.3,1.1,0.6
	c0.4-0.2,0.8-0.4,1.2-0.6c0.5-0.1,1-0.2,1.5-0.2c0.6,0,1.1,0.1,1.5,0.3c0.4,0.2,0.8,0.4,1,0.7c0.3,0.3,0.5,0.7,0.6,1.1
	c0.1,0.4,0.2,0.9,0.2,1.4V21.2L136.5,21.2z M141,13.7c0.6,0,1,0.1,1.4,0.2c0.4,0.1,0.7,0.4,1,0.6c0.3,0.3,0.5,0.6,0.6,1
	c0.1,0.4,0.2,0.8,0.2,1.3c0,0.3,0,0.5-0.1,0.6c-0.1,0.2-0.2,0.3-0.3,0.4c-0.1,0.1-0.2,0.2-0.4,0.2c-0.2,0-0.3,0.1-0.5,0.1h-4
	c0,0.4,0.1,0.8,0.2,1.1c0.1,0.3,0.3,0.5,0.5,0.7c0.2,0.2,0.4,0.3,0.7,0.4c0.3,0.1,0.5,0.1,0.8,0.1c0.3,0,0.6,0,1-0.1
	c0.3-0.1,0.6-0.2,0.8-0.3c0.1-0.1,0.2,0,0.3,0.1l0.4,0.7c0.1,0.2,0,0.3-0.1,0.3c-0.4,0.2-0.8,0.4-1.2,0.4c-0.4,0.1-0.8,0.1-1.2,0.1
	c-1.1,0-2-0.3-2.6-0.9c-0.6-0.6-0.9-1.6-0.9-3c0-0.6,0.1-1.2,0.3-1.7c0.2-0.5,0.4-0.9,0.7-1.2c0.3-0.3,0.7-0.6,1.1-0.8
	C140.1,13.8,140.6,13.7,141,13.7L141,13.7z M142.9,17c0-0.3,0-0.6-0.1-0.8c-0.1-0.3-0.1-0.5-0.3-0.7c-0.1-0.2-0.3-0.3-0.6-0.4
	c-0.2-0.1-0.5-0.2-0.9-0.2c-0.3,0-0.6,0.1-0.8,0.2c-0.2,0.1-0.4,0.3-0.6,0.5c-0.2,0.2-0.3,0.4-0.4,0.7c-0.1,0.2-0.1,0.5-0.2,0.8
	H142.9L142.9,17z M145.1,17.8c0-0.5,0.1-1.1,0.2-1.5c0.1-0.5,0.4-0.9,0.6-1.3c0.3-0.4,0.7-0.7,1.1-0.9c0.4-0.2,1-0.3,1.6-0.3
	c0.2,0,0.5,0,0.7,0c0.3,0,0.6,0.1,0.9,0.2v-2.8c0-0.1,0-0.2,0.1-0.2c0,0,0.1,0,0.2,0h0.9c0.1,0,0.2,0,0.2,0s0.1,0.1,0.1,0.2v9.7
	c0,0.1-0.1,0.2-0.2,0.3c-0.5,0.2-1.1,0.4-1.6,0.4c-0.5,0.1-1,0.1-1.4,0.1c-0.6,0-1.1-0.1-1.6-0.3c-0.4-0.2-0.8-0.4-1.1-0.8
	c-0.3-0.3-0.5-0.7-0.6-1.2C145.2,18.9,145.1,18.4,145.1,17.8L145.1,17.8z M146.6,17.8c0,1,0.2,1.6,0.6,2c0.4,0.4,0.9,0.6,1.6,0.6
	c0.2,0,0.5,0,0.8-0.1c0.3,0,0.6-0.1,0.7-0.2v-5c-0.3-0.1-0.6-0.1-0.9-0.2c-0.2,0-0.5,0-0.7,0c-0.3,0-0.6,0.1-0.9,0.2
	c-0.3,0.1-0.5,0.3-0.7,0.5c-0.2,0.2-0.3,0.5-0.5,0.9C146.7,16.8,146.6,17.3,146.6,17.8L146.6,17.8z M155.3,11.9
	c0,0.3-0.1,0.5-0.3,0.7c-0.2,0.2-0.4,0.3-0.7,0.3c-0.3,0-0.5-0.1-0.7-0.3c-0.2-0.2-0.3-0.4-0.3-0.7c0-0.3,0.1-0.5,0.3-0.7
	c0.2-0.2,0.4-0.3,0.7-0.3c0.3,0,0.5,0.1,0.7,0.3C155.2,11.4,155.3,11.7,155.3,11.9L155.3,11.9z M155.1,21.2c0,0.1,0,0.2-0.1,0.2
	c0,0-0.1,0-0.2,0h-0.9c-0.1,0-0.2,0-0.2,0c0,0-0.1-0.1-0.1-0.2v-7.1c0-0.1,0-0.2,0.1-0.2c0,0,0.1,0,0.2,0h0.9c0.1,0,0.2,0,0.2,0
	c0,0,0.1,0.1,0.1,0.2V21.2L155.1,21.2z M162.8,20.7c0,0.2-0.1,0.3-0.2,0.4c-0.4,0.2-0.9,0.3-1.4,0.4c-0.5,0.1-1,0.1-1.5,0.1
	c-0.6,0-1.2-0.1-1.6-0.2c-0.4-0.1-0.7-0.3-1-0.5c-0.2-0.2-0.4-0.5-0.5-0.8c-0.1-0.3-0.1-0.6-0.1-0.9c0-0.3,0.1-0.6,0.2-0.9
	c0.1-0.3,0.3-0.6,0.5-0.8c0.2-0.2,0.6-0.4,1-0.6c0.4-0.1,0.9-0.2,1.5-0.2h1.7v-0.3c0-0.2,0-0.4-0.1-0.6c0-0.2-0.1-0.3-0.2-0.4
	c-0.1-0.1-0.3-0.2-0.5-0.3c-0.2-0.1-0.5-0.1-0.8-0.1c-0.2,0-0.4,0-0.5,0c-0.2,0-0.4,0-0.6,0.1c-0.2,0-0.4,0.1-0.5,0.1
	c-0.2,0-0.3,0.1-0.4,0.1c-0.1,0-0.2,0-0.2,0s-0.1-0.1-0.1-0.1l-0.2-0.7c0-0.1,0-0.2,0.1-0.3c0.4-0.2,0.8-0.3,1.3-0.3
	s0.9-0.1,1.3-0.1c1,0,1.7,0.2,2.2,0.7c0.5,0.4,0.7,1.1,0.7,1.9L162.8,20.7L162.8,20.7z M161.3,17.9h-1.6c-0.2,0-0.4,0-0.6,0
	c-0.2,0-0.4,0.1-0.6,0.2c-0.2,0.1-0.4,0.2-0.5,0.4c-0.1,0.2-0.2,0.4-0.2,0.8c0,0.5,0.2,0.8,0.5,1c0.3,0.2,0.7,0.3,1.3,0.3
	c0.1,0,0.2,0,0.3,0c0.1,0,0.3,0,0.4,0c0.2,0,0.3,0,0.5-0.1c0.2,0,0.3-0.1,0.5-0.1V17.9z"/>
</svg>

