<?xml version="1.0" encoding="utf-8"?>
<!-- Generator: Adobe Illustrator 16.0.0, SVG Export Plug-In . SVG Version: 6.00 Build 0)  -->
<!DOCTYPE svg PUBLIC "-//W3C//DTD SVG 1.1//EN" "http://www.w3.org/Graphics/SVG/1.1/DTD/svg11.dtd">
<svg version="1.1" id="Слой_1" xmlns="http://www.w3.org/2000/svg" xmlns:xlink="http://www.w3.org/1999/xlink" x="0px" y="0px"
	 width="123.8px" height="33px" viewBox="0 0 123.8 33" enable-background="new 0 0 123.8 33" xml:space="preserve">
<path fill="#E1001A" d="M24.5,8C19.2,7.301,7.2,9.9,0,15.5c0.7,3.2,2.8,6.4,5.5,9.101l-3.6,3.7L1,32.4l14.7-16c0,0-5.8,3.3-6.7,4.3
	l-1.4,1.5c-1.5-1.7-2.7-3.5-3.3-5.3c5.8-3.5,12.5-5.3,16.6-5.1C21.6,20,17.5,28.7,17.5,28.7c-1.8-0.399-4-1.5-6-3l-2.1,2.2
	c3.4,2.5,7.1,4.2,10.1,4.9C19.5,32.801,26.401,19.9,24.5,8z"/>
<path fill="#3D3C40" d="M45.7,28.7c-0.5,0-0.899-0.1-1.1-0.3c-0.199-0.2-0.3-0.6-0.3-1V14.5c0-0.5,0.101-0.8,0.3-1
	c0.2-0.199,0.5-0.3,1.1-0.3h4.201c1.299,0,2.399,0.2,3.399,0.601c0.899,0.399,1.7,1,2.2,1.699c0.6,0.7,1,1.5,1.199,2.5
	c0.301,0.9,0.4,1.9,0.4,3c0,1-0.1,2-0.3,3S56.2,25.801,55.7,26.5c-0.5,0.7-1.299,1.301-2.199,1.7c-0.9,0.4-2,0.7-3.301,0.7
	L45.7,28.7L45.7,28.7z M79.2,25.4H74l-0.9,2.8c0,0.101-0.1,0.3-0.199,0.3c-0.101,0.101-0.201,0.101-0.4,0.101h-2.6
	c-0.201,0-0.301,0-0.301-0.101c0-0.1,0-0.199,0-0.3l4.7-14c0.101-0.3,0.2-0.5,0.3-0.6c0.1-0.2,0.2-0.3,0.301-0.4
	c0.1-0.1,0.299-0.2,0.5-0.2c0.199,0,0.399-0.1,0.6-0.1h1.4c0.299,0,0.5,0,0.699,0c0.2,0,0.301,0.1,0.5,0.2
	c0.1,0.1,0.301,0.2,0.301,0.399c0.1,0.2,0.199,0.4,0.299,0.601l4.701,14c0,0.1,0,0.2,0,0.3s-0.101,0.2-0.301,0.2h-2.699
	c-0.201,0-0.301,0-0.4-0.101c-0.1,0-0.2-0.1-0.2-0.3L79.2,25.4L79.2,25.4z M74.8,22.7h3.5l-0.899-2.8L76.6,16.7h-0.1l-0.9,3.2
	L74.8,22.7L74.8,22.7z M109.5,25.601c0.5,0,1.8-0.101,1.8,0.6v1.601c0,0.699-0.899,0.699-1.399,0.699H106.6
	c-1.199,0-2.4-0.199-3.3-0.5c-0.899-0.399-1.601-0.899-2.2-1.6s-1-1.5-1.3-2.5s-0.399-2.1-0.399-3.3s0.199-2.3,0.5-3.3
	c1.399-4,4.5-4.301,7.199-4.4h2.4c0.699,0,1.8,0,1.8,0.8V15c0,0.9-0.7,0.9-1.3,0.9H108.2c-2.199-0.1-4-0.1-5,2.7
	c-0.199,0.6-0.199,1.3-0.199,2s0.1,1.399,0.199,2c0.101,0.6,0.301,1.1,0.701,1.5c0.699,1,1.899,1.399,3.1,1.399L109.5,25.601
	L109.5,25.601z M124,28.101c0,0.2,0,0.3-0.1,0.399c-0.101,0.101-0.201,0.101-0.4,0.101h-6.7c-0.8,0-1.5-0.101-2.101-0.4
	c-0.5-0.2-1-0.5-1.299-0.899c-0.301-0.4-0.5-0.801-0.701-1.301c-0.1-0.5-0.199-1-0.199-1.5v-7.399c0-0.5,0.1-1,0.199-1.5
	c0.201-0.5,0.4-0.9,0.701-1.3c0.299-0.4,0.699-0.7,1.299-0.9c0.5-0.2,1.201-0.3,1.9-0.3h6.5c0.2,0,0.301,0,0.301,0.1
	c0.1,0.101,0.1,0.2,0.1,0.4V15.5c0,0.2,0,0.301-0.1,0.4C123.3,16,123.2,16,123.1,16h-5.699c-0.601,0-1,0.101-1.201,0.4
	c-0.199,0.3-0.299,0.6-0.299,1v1.7h6.5c0.199,0,0.299,0,0.299,0.1c0.101,0.101,0.101,0.2,0.101,0.4v1.7c0,0.199,0,0.3-0.101,0.399
	c-0.1,0.101-0.199,0.101-0.299,0.101H116.2v2.5c0,0.5,0.101,0.899,0.4,1.1c0.2,0.2,0.6,0.3,1.1,0.3h5.9c0.2,0,0.301,0,0.4,0.101
	c0.1,0.1,0.1,0.199,0.1,0.399v1.9H124z M63.901,25L62.8,21.101L60.401,13.5c0-0.1-0.101-0.199-0.201-0.3
	c-0.1-0.1-0.199-0.1-0.399-0.1h-2.7c-0.1,0-0.199,0-0.3,0.1c0,0.101,0,0.2,0,0.3l4.8,14c0.1,0.301,0.2,0.5,0.301,0.601
	c0.1,0.2,0.199,0.3,0.299,0.399c0.101,0.101,0.301,0.101,0.4,0.2c0.2,0,0.4,0,0.6,0h1.4c0.2,0,0.4,0,0.6,0
	c0.201,0,0.301-0.1,0.4-0.2c0.1-0.1,0.2-0.199,0.301-0.3c0.1-0.1,0.199-0.399,0.299-0.6L71,13.5c0-0.1,0-0.199,0-0.199
	c0-0.101-0.1-0.101-0.301-0.101h-2.5c-0.199,0-0.299,0-0.399,0.101c-0.101,0-0.2,0.1-0.2,0.3l-2.4,7.7L64.1,25.2h-0.199V25z
	 M42.7,28.2c0,0.2,0,0.3-0.1,0.4c-0.1,0.1-0.199,0.1-0.4,0.1H35.5c-0.801,0-1.5-0.1-2.1-0.399c-0.5-0.2-1-0.5-1.301-0.9
	c-0.3-0.4-0.5-0.8-0.699-1.3c-0.101-0.5-0.201-1-0.201-1.5v-7.4c0-0.5,0.101-1,0.201-1.5c0.199-0.5,0.399-0.899,0.699-1.3
	c0.301-0.4,0.7-0.7,1.301-0.9c0.5-0.199,1.199-0.3,1.899-0.3h6.5c0.2,0,0.3,0,0.3,0.101c0.1,0.1,0.1,0.199,0.1,0.399v1.9
	c0,0.2,0,0.3-0.1,0.399c-0.1,0.101-0.199,0.101-0.3,0.101h-5.7c-0.6,0-1,0.1-1.199,0.399c-0.201,0.301-0.301,0.601-0.301,1v1.7h6.5
	c0.2,0,0.301,0,0.301,0.101c0.1,0.1,0.1,0.199,0.1,0.399v1.7c0,0.2,0,0.3-0.1,0.4C41.3,21.9,41.2,21.9,41.1,21.9h-6.5v2.5
	c0,0.5,0.1,0.9,0.4,1.1c0.199,0.2,0.6,0.301,1.1,0.301h6c0.2,0,0.301,0,0.4,0.1s0.1,0.2,0.1,0.4L42.7,28.2L42.7,28.2z M88,19v9.2
	c0,0.2,0,0.3-0.1,0.4c-0.101,0.1-0.201,0.1-0.4,0.1h-2.4c-0.199,0-0.3,0-0.4-0.1c-0.1-0.101-0.1-0.2-0.1-0.4v-13.6
	c0-0.601,0.1-1,0.301-1.2c0.199-0.2,0.6-0.3,1.1-0.3h0.9c0.199,0,0.399,0,0.6,0c0.199,0,0.3,0.1,0.4,0.1
	c0.1,0.101,0.199,0.2,0.299,0.3c0.101,0.101,0.201,0.301,0.4,0.5l3.801,5.801l1.899,3h0.101V13.5c0-0.199,0-0.3,0.1-0.399
	C94.6,13,94.7,13,94.901,13H97.3c0.3,0,0.5,0.2,0.5,0.5v13.601c0,0.5-0.101,0.8-0.3,1.1c-0.2,0.3-0.6,0.4-1.2,0.4h-0.899
	c-0.201,0-0.4,0-0.601,0S94.5,28.5,94.401,28.5C94.3,28.4,94.2,28.301,94.1,28.2c-0.1-0.1-0.199-0.3-0.4-0.5l-3.6-5.399L87.901,19
	H88L88,19z M53.5,20.801c0-0.7-0.1-1.301-0.2-1.9s-0.3-1.1-0.601-1.5c-0.299-0.4-0.699-0.8-1.299-1c-0.5-0.2-1.201-0.4-2-0.4H47.6
	v9.7h1.801c0.799,0,1.399-0.1,1.899-0.399c0.5-0.2,0.899-0.601,1.2-1c0.3-0.4,0.5-0.9,0.6-1.5C53.5,22.2,53.5,21.5,53.5,20.801z"/>
<path fill="#E1001A" d="M96.7,10.101c0,0.1,0,0.2-0.1,0.2c0,0-0.1,0-0.199,0h-0.9c-0.1,0-0.2,0-0.2,0S95.2,10.2,95.2,10.101v-3.8
	c0-0.8-0.199-1.5-0.5-1.9c-0.299-0.4-0.799-0.6-1.6-0.6c-0.1,0-0.3,0-0.5,0c-0.199,0-0.3,0-0.5,0.1c-0.199,0-0.3,0.1-0.5,0.1
	c-0.1,0-0.3,0.1-0.4,0.2c0.101,0.3,0.201,0.6,0.301,0.9c0,0.3,0.1,0.7,0.1,1.1V10c0,0.101,0,0.2-0.1,0.2c0,0-0.1,0-0.2,0h-0.899
	c-0.101,0-0.201,0-0.201,0s-0.1-0.1-0.1-0.2V6.2c0-0.4,0-0.7-0.1-1c-0.1-0.3-0.2-0.6-0.301-0.8C89.5,4.2,89.3,4,89,3.9
	c-0.301-0.1-0.6-0.2-1.1-0.2c-0.101,0-0.201,0-0.301,0s-0.199,0-0.3,0s-0.2,0-0.399,0c-0.101,0-0.201,0-0.301,0v6.2
	c0,0.1,0,0.2-0.1,0.2c0,0-0.1,0-0.2,0h-0.899c-0.101,0-0.201,0-0.201,0S85.1,10,85.1,9.9V3.8c0-0.4,0.1-0.6,0.2-0.8
	c0.101-0.2,0.399-0.3,0.8-0.4c0.1,0,0.2,0,0.301,0c0.1,0,0.299,0,0.399,0c0.2,0,0.3,0,0.5,0s0.3,0,0.399,0
	c0.601,0,1.101,0.1,1.5,0.2C89.6,2.9,90,3.101,90.3,3.4C90.7,3.2,91.1,3,91.5,2.8c0.5-0.1,1-0.2,1.5-0.2c0.6,0,1.1,0.1,1.5,0.3
	s0.8,0.4,1,0.7c0.3,0.3,0.5,0.7,0.6,1.1c0.1,0.4,0.2,0.9,0.2,1.4v4H96.7z M101.2,2.601c0.601,0,1,0.1,1.4,0.2s0.7,0.4,1,0.6
	c0.301,0.3,0.5,0.6,0.6,1c0.101,0.4,0.201,0.8,0.201,1.3c0,0.3,0,0.5-0.101,0.601C104.2,6.5,104.1,6.601,104,6.7
	c-0.1,0.101-0.2,0.2-0.4,0.2c-0.199,0-0.3,0.1-0.5,0.1h-4c0,0.4,0.1,0.801,0.2,1.101s0.3,0.5,0.5,0.7C100,9,100.2,9.101,100.5,9.2
	c0.3,0.101,0.5,0.101,0.8,0.101s0.601,0,1-0.101c0.3-0.1,0.601-0.2,0.8-0.3c0.1-0.1,0.2,0,0.301,0.1l0.399,0.7
	c0.101,0.2,0,0.3-0.101,0.3c-0.399,0.2-0.799,0.4-1.199,0.4c-0.4,0.1-0.801,0.1-1.2,0.1c-1.101,0-2-0.3-2.601-0.899
	C98.1,9,97.8,8,97.8,6.601c0-0.601,0.101-1.2,0.3-1.7c0.2-0.5,0.4-0.9,0.7-1.2c0.3-0.3,0.7-0.6,1.101-0.8
	C100.3,2.7,100.8,2.601,101.2,2.601L101.2,2.601z M103.1,5.9c0-0.3,0-0.6-0.1-0.8c-0.1-0.3-0.1-0.5-0.301-0.7
	c-0.1-0.2-0.299-0.3-0.6-0.4c-0.199-0.1-0.5-0.2-0.9-0.2c-0.299,0-0.6,0.1-0.799,0.2c-0.201,0.1-0.4,0.3-0.601,0.5
	c-0.2,0.2-0.3,0.4-0.399,0.7C99.3,5.4,99.3,5.7,99.2,6h3.9V5.9z M105.3,6.7c0-0.5,0.101-1.1,0.2-1.5c0.1-0.5,0.4-0.9,0.6-1.3
	c0.301-0.4,0.7-0.7,1.1-0.9c0.4-0.2,1-0.3,1.601-0.3c0.2,0,0.5,0,0.7,0c0.3,0,0.6,0.1,0.9,0.2v-2.8c0-0.1,0-0.2,0.1-0.2
	c0,0,0.1,0,0.199,0h0.9c0.1,0,0.2,0,0.2,0s0.101,0.1,0.101,0.2v9.7c0,0.1-0.101,0.199-0.201,0.3c-0.5,0.2-1.1,0.399-1.6,0.399
	c-0.5,0.101-1,0.101-1.4,0.101c-0.6,0-1.1-0.101-1.6-0.3c-0.4-0.2-0.8-0.4-1.1-0.801c-0.301-0.3-0.5-0.699-0.6-1.199
	C105.401,7.801,105.3,7.301,105.3,6.7L105.3,6.7z M106.8,6.7c0,1,0.2,1.601,0.601,2c0.399,0.4,0.899,0.601,1.6,0.601
	c0.199,0,0.5,0,0.8-0.101c0.3,0,0.601-0.1,0.7-0.2V4c-0.301-0.1-0.6-0.1-0.9-0.2c-0.199,0-0.5,0-0.699,0C108.6,3.8,108.3,3.9,108,4
	c-0.301,0.1-0.5,0.3-0.7,0.5c-0.2,0.2-0.3,0.5-0.5,0.9C106.901,5.7,106.8,6.2,106.8,6.7L106.8,6.7z M115.5,0.8
	c0,0.3-0.1,0.5-0.301,0.7C115,1.7,114.8,1.8,114.5,1.8c-0.301,0-0.5-0.1-0.7-0.3c-0.2-0.2-0.3-0.4-0.3-0.7c0-0.3,0.1-0.5,0.3-0.7
	c0.2-0.2,0.399-0.3,0.7-0.3c0.3,0,0.5,0.1,0.699,0.3C115.401,0.3,115.5,0.601,115.5,0.8L115.5,0.8z M115.3,10.101
	c0,0.1,0,0.2-0.101,0.2c0,0-0.1,0-0.199,0h-0.9c-0.1,0-0.199,0-0.199,0s-0.101-0.101-0.101-0.2V3c0-0.1,0-0.2,0.101-0.2
	c0,0,0.1,0,0.199,0h0.9c0.1,0,0.199,0,0.199,0S115.3,2.9,115.3,3V10.101L115.3,10.101z M123,9.601c0,0.2-0.1,0.3-0.2,0.399
	c-0.399,0.2-0.899,0.301-1.399,0.4s-1,0.1-1.5,0.1c-0.601,0-1.201-0.1-1.601-0.199c-0.399-0.101-0.7-0.301-1-0.5
	c-0.2-0.2-0.399-0.5-0.5-0.801C116.7,8.7,116.7,8.4,116.7,8.101s0.101-0.601,0.201-0.9c0.1-0.3,0.299-0.6,0.5-0.8
	c0.199-0.2,0.6-0.4,1-0.6c0.399-0.1,0.899-0.2,1.5-0.2h1.699V5.3c0-0.2,0-0.4-0.1-0.6c0-0.2-0.1-0.3-0.2-0.4s-0.3-0.2-0.5-0.3
	s-0.5-0.1-0.8-0.1c-0.2,0-0.4,0-0.5,0c-0.2,0-0.4,0-0.6,0.1c-0.201,0-0.4,0.1-0.5,0.1c-0.201,0-0.301,0.1-0.4,0.1s-0.2,0-0.2,0
	l-0.101-0.1L117.5,3.4c0-0.1,0-0.2,0.1-0.3c0.4-0.2,0.801-0.3,1.301-0.3s0.899-0.1,1.299-0.1c1,0,1.701,0.2,2.201,0.7
	c0.5,0.4,0.699,1.1,0.699,1.9L123,9.601L123,9.601z M121.5,6.801h-1.6c-0.201,0-0.4,0-0.601,0S118.901,6.9,118.7,7
	c-0.199,0.101-0.399,0.2-0.5,0.4c-0.1,0.2-0.199,0.4-0.199,0.8c0,0.5,0.199,0.8,0.5,1c0.3,0.2,0.699,0.3,1.3,0.3
	c0.101,0,0.2,0,0.3,0s0.301,0,0.4,0c0.199,0,0.3,0,0.5-0.1c0.199,0,0.3-0.1,0.5-0.1V6.801L121.5,6.801z"/>
</svg>
