<?xml version="1.0" encoding="utf-8"?>
<!-- Generator: Adobe Illustrator 17.1.0, SVG Export Plug-In . SVG Version: 6.00 Build 0)  -->
<!DOCTYPE svg PUBLIC "-//W3C//DTD SVG 1.1//EN" "http://www.w3.org/Graphics/SVG/1.1/DTD/svg11.dtd" [
	<!ENTITY ns_extend "http://ns.adobe.com/Extensibility/1.0/">
	<!ENTITY ns_ai "http://ns.adobe.com/AdobeIllustrator/10.0/">
	<!ENTITY ns_graphs "http://ns.adobe.com/Graphs/1.0/">
	<!ENTITY ns_vars "http://ns.adobe.com/Variables/1.0/">
	<!ENTITY ns_imrep "http://ns.adobe.com/ImageReplacement/1.0/">
	<!ENTITY ns_sfw "http://ns.adobe.com/SaveForWeb/1.0/">
	<!ENTITY ns_custom "http://ns.adobe.com/GenericCustomNamespace/1.0/">
	<!ENTITY ns_adobe_xpath "http://ns.adobe.com/XPath/1.0/">
]>
<svg version="1.1" id="Layer_1" xmlns:x="&ns_extend;" xmlns:i="&ns_ai;" xmlns:graph="&ns_graphs;"
	 xmlns="http://www.w3.org/2000/svg" xmlns:xlink="http://www.w3.org/1999/xlink" x="0px" y="0px" width="364px" height="2304.8px"
	 viewBox="-115 -731.9 364 2304.8" enable-background="new -115 -731.9 364 2304.8" xml:space="preserve">
<metadata>
	<sfw  xmlns="&ns_sfw;">
		<slices></slices>
		<sliceSourceBounds  width="10592.7" height="9381.4" y="-37.4" x="-7351" bottomLeftOrigin="true"></sliceSourceBounds>
	</sfw>
</metadata>
<g opacity="0.7">
	<path d="M134.3-534.5c-7.2-11.7-16.8-21.1-28.9-28.3c-12.1-7.1-24.9-10.7-38.4-10.7s-26.3,3.6-38.4,10.7
		c-12.1,7.1-21.7,16.5-28.9,28.3c-1,1.8-1.5,3.6-1.5,5.3s0.5,3.5,1.5,5.3c7.2,11.7,16.8,21.1,28.9,28.3C40.8-488.6,53.6-485,67-485
		c13.5,0,26.3-3.5,38.4-10.6c12.1-7.1,21.7-16.5,28.9-28.3c1-1.8,1.5-3.6,1.5-5.3C135.9-531,135.3-532.7,134.3-534.5z M50.6-555.5
		c4.6-4.6,10.1-6.9,16.5-6.9c1,0,1.9,0.4,2.6,1.1c0.7,0.7,1.1,1.6,1.1,2.6c0,1-0.4,1.9-1.1,2.6c-0.7,0.7-1.6,1.1-2.6,1.1
		c-4.4,0-8.2,1.6-11.3,4.7c-3.1,3.1-4.7,6.9-4.7,11.3c0,1-0.4,1.9-1.1,2.6c-0.7,0.7-1.6,1.1-2.6,1.1c-1,0-1.9-0.4-2.6-1.1
		c-0.7-0.7-1.1-1.6-1.1-2.6C43.7-545.5,46-551,50.6-555.5z M100.4-504.2c-10.3,6.2-21.4,9.3-33.4,9.3c-12,0-23.1-3.1-33.4-9.3
		c-10.3-6.2-18.8-14.6-25.6-25.1c7.8-12.1,17.5-21.1,29.3-27.1c-3.1,5.3-4.7,11.1-4.7,17.3c0,9.5,3.4,17.6,10.1,24.3
		c6.7,6.7,14.8,10.1,24.3,10.1c9.5,0,17.6-3.4,24.3-10.1c6.7-6.7,10.1-14.8,10.1-24.3c0-6.2-1.6-12-4.7-17.3
		c11.7,6,21.5,15,29.3,27.1C119.2-518.7,110.7-510.4,100.4-504.2z"/>
</g>
<rect x="-114.5" y="-731.4" fill="none" stroke="#FFFFFF" stroke-miterlimit="10" width="363" height="385"/>
<rect x="-6.5" y="-612.4" transform="matrix(0.7071 0.7071 -0.7071 0.7071 -361.4496 -205.233)" fill="none" stroke="#FFFFFF" stroke-width="6" stroke-miterlimit="10" width="147" height="147"/>
<rect x="-6.5" y="-586.4" transform="matrix(0.7071 0.7071 -0.7071 0.7071 -343.0309 -197.632)" fill="none" stroke="#FFFFFF" stroke-miterlimit="10" width="147" height="147"/>
<rect x="94.3" y="-585.5" fill="#FFFFFF" width="97" height="6"/>
<circle fill="#FFFFFF" cx="153.6" cy="-431" r="4"/>
<rect x="-17.1" y="-498.8" fill="#FFFFFF" width="54" height="54"/>
<polygon fill="#FFFFFF" points="45.6,-566.1 -27,-590.2 30.2,-641 "/>
<rect x="140.3" y="-638.3" fill="#FFFFFF" width="34.7" height="34.7"/>
<g>
	<path d="M13.9-481.9l0.7-1.2c0.2-0.3,0.5-0.4,0.8-0.2c0.3,0.2,0.4,0.5,0.2,0.8l-0.7,1.2c-0.1,0.2-0.3,0.3-0.5,0.3
		c-0.1,0-0.2,0-0.3-0.1C13.9-481.3,13.8-481.6,13.9-481.9z M3.6-481.3c0.1,0.2,0.3,0.3,0.5,0.3c0.1,0,0.2,0,0.3-0.1
		c0.3-0.2,0.4-0.5,0.2-0.8l-0.7-1.2c-0.2-0.3-0.5-0.4-0.8-0.2c-0.3,0.2-0.4,0.5-0.2,0.8L3.6-481.3z M9.3-482.4
		c0.3,0,0.6-0.3,0.6-0.6v-1.4c0-0.3-0.3-0.6-0.6-0.6s-0.6,0.3-0.6,0.6v1.4C8.7-482.7,8.9-482.4,9.3-482.4z M-1-473.3h-1.4
		c-0.3,0-0.6,0.3-0.6,0.6c0,0.3,0.3,0.6,0.6,0.6H-1c0.3,0,0.6-0.3,0.6-0.6S-0.7-473.3-1-473.3z M21-473.3h-1.4
		c-0.3,0-0.6,0.3-0.6,0.6c0,0.3,0.3,0.6,0.6,0.6H21c0.3,0,0.6-0.3,0.6-0.6C21.5-473,21.3-473.3,21-473.3z M19.9-478.8
		c-0.2-0.3-0.5-0.4-0.8-0.2l-1.2,0.7c-0.3,0.2-0.4,0.5-0.2,0.8c0.1,0.2,0.3,0.3,0.5,0.3c0.1,0,0.2,0,0.3-0.1l1.2-0.7
		C20-478.2,20.1-478.5,19.9-478.8z M16.8-472.8c0,1.3-0.4,2.6-1,3.7c0,0.1-0.1,0.2-0.1,0.2l-0.1,0.1c-0.3,0.4-0.5,0.8-0.8,1.1
		c-1.1,1.6-1.7,2.9-1.7,3.8l0,0c0,0.1,0,0.2,0,0.3v2.7c0,1.2-1,2.2-2.2,2.2H7.4c-1.2,0-2.2-1-2.2-2.2v-2.7c0-0.1,0-0.1,0-0.2v-0.1
		c0-0.8-0.5-2.1-1.6-3.7c-0.4-0.4-0.7-0.8-1-1.3c0-0.1-0.1-0.1-0.1-0.2c-0.7-1.1-1-2.5-1-3.8c0-4.2,3.4-7.6,7.6-7.6
		C13.4-480.3,16.8-476.9,16.8-472.8z M12-463.3H6.5v1.1H12V-463.3L12-463.3z M12-460.8v-0.2H6.5v0.2c0.1,0.5,0.5,0.9,1,0.9H11
		C11.5-459.9,11.9-460.3,12-460.8z M15.6-472.8c0-3.5-2.9-6.4-6.4-6.4s-6.4,2.9-6.4,6.4c0,1.1,0.3,2.3,0.9,3.2l0,0l0,0
		c0.3,0.4,0.5,0.8,0.9,1.1c0,0,0,0,0.1,0.1c1,1.5,1.7,2.8,1.8,3.8h5.6c0.2-1.3,1.1-2.8,1.9-3.9c0,0,0,0,0.1-0.1
		c0.3-0.3,0.5-0.6,0.7-1c0,0,0,0,0-0.1c0,0,0,0,0-0.1C15.3-470.5,15.6-471.6,15.6-472.8z M0.6-478.3l-1.2-0.7
		c-0.3-0.2-0.6-0.1-0.8,0.2c-0.2,0.3-0.1,0.6,0.2,0.8l1.2,0.7c0.1,0.1,0.2,0.1,0.3,0.1c0.2,0,0.4-0.1,0.5-0.3
		C1-477.8,0.9-478.2,0.6-478.3z"/>
</g>
<path d="M151.2-629.9c0,0.7,0,1.5,0,2.2c-0.2,0-0.4,0-0.7,0c0.4,3.1,3,5.8,6.3,6.3c0-0.1,0-0.2,0-0.3c0.7,0,1.5,0,2.2,0
	c0,0.1,0,0.2,0,0.3c3.2-0.4,5.8-3.1,6.3-6.3c-0.2,0-0.4,0-0.7,0c0-0.8,0-1.5,0-2.3c0.8,0,1.5,0,2.3,0c0,0.8,0,1.5,0,2.3
	c-0.3,0-0.5,0-0.8,0c-0.6,3.3-2.5,5.6-5.6,6.7h0.1c1.4,0,2.7,0,4.1,0c0.1,0,0.1,0,0.2-0.1c0.2-0.4,0.6-0.7,1.1-0.6
	c0.4,0,0.8,0.4,0.9,0.8v0.1c0,0.1,0,0.3,0,0.4c0,0,0,0,0,0.1c-0.1,0.5-0.5,0.8-1,0.9c-0.4,0-0.9-0.2-1.1-0.7c0-0.1-0.1-0.1-0.2-0.1
	c-1.8,0-3.6,0-5.4,0c-0.1,0-0.1,0-0.2,0c0,0.3,0,0.5,0,0.8c-0.4,0-0.7,0-1.1,0c0.1,0.1,0.1,0.1,0.1,0.2c0.9,0.9,1.8,1.8,2.7,2.7
	c0.1,0.1,0.1,0.2,0.1,0.3c-0.4,1.1-0.7,2.2-1.1,3.3c0,0.1,0,0.1-0.1,0.2c0.1,0,0.1,0,0.2,0c0.2,0,0.3,0.1,0.3,0.3
	c0,0.1,0,0.3-0.1,0.4l-0.1,0.1c-1.3,0-2.7,0-4,0c0,0,0,0-0.1-0.1c-0.2-0.1-0.2-0.3-0.2-0.4c0.1-0.2,0.2-0.3,0.4-0.3h0.1
	c0-0.1,0-0.1,0-0.1c-0.4-1.1-0.7-2.3-1.1-3.4c-0.1-0.2,0-0.2,0.1-0.4c0.9-0.9,1.8-1.8,2.7-2.7c0,0,0.1-0.1,0.2-0.2
	c-0.4,0-0.8,0-1.1,0c0-0.3,0-0.5,0-0.7c-0.1,0-0.1,0-0.2,0c-1.8,0-3.6,0-5.4,0c-0.1,0-0.2,0-0.2,0.1c-0.2,0.4-0.6,0.7-1.1,0.6
	c-0.5,0-0.9-0.4-1-0.8v-0.1c0-0.1,0-0.3,0-0.4c0,0,0,0,0-0.1c0.1-0.5,0.5-0.8,0.9-0.9c0.5-0.1,0.9,0.2,1.2,0.6
	c0.1,0.1,0.1,0.1,0.2,0.1c1.3,0,2.6,0,4,0h0.1c-3.2-1.2-5-3.4-5.6-6.7c-0.3,0-0.5,0-0.8,0c0-0.8,0-1.5,0-2.3
	C149.7-629.9,150.4-629.9,151.2-629.9z M157.6-612.7c0-0.1,0-0.2,0-0.2c0-0.8,0-1.6,0-2.3c0-0.2,0.1-0.3,0.2-0.4
	c0.3-0.1,0.5,0.1,0.5,0.4c0,0.8,0,1.6,0,2.4c0,0.1,0,0.1,0,0.2c0.2,0,0.3,0,0.4,0s0.2,0,0.2-0.2c0.4-1.1,0.7-2.2,1.1-3.2
	c0-0.1,0-0.2-0.1-0.3c-0.6-0.6-1.3-1.3-1.9-1.9l-0.1-0.1c-0.6,0.6-1.2,1.2-1.8,1.8c-0.3,0.2-0.3,0.4-0.2,0.7c0.4,1,0.7,2,1,3
	c0,0.1,0.1,0.2,0.1,0.2C157.2-612.7,157.4-612.7,157.6-612.7z M149.7-628.4c0.3,0,0.5,0,0.7,0c0-0.3,0-0.5,0-0.7c-0.3,0-0.5,0-0.7,0
	C149.7-628.9,149.7-628.7,149.7-628.4z M165.5-628.4c0.2,0,0.4,0,0.7,0c0,0,0.1,0,0.1-0.1c0-0.2,0-0.5,0-0.7c-0.3,0-0.5,0-0.7,0
	C165.5-628.9,165.5-628.7,165.5-628.4z M157.6-620.9c0,0.3,0,0.5,0,0.7c0.3,0,0.5,0,0.7,0c0-0.2,0-0.5,0-0.7
	C158.1-620.9,157.8-620.9,157.6-620.9z M150.1-620.2c0.2,0,0.4-0.2,0.4-0.4s-0.2-0.4-0.4-0.4s-0.4,0.2-0.4,0.4
	S149.9-620.2,150.1-620.2z M165.8-620.2c0.2,0,0.4-0.2,0.4-0.4s-0.2-0.4-0.4-0.4s-0.4,0.2-0.4,0.4S165.6-620.2,165.8-620.2z"/>
<path d="M26.4-607.6l-1.2-1.2c-0.6-0.6-1.5-0.6-2.1,0l0,0l-6.9,6.9l-6.1-6.2c-0.8-0.8-2.1-0.8-2.9,0s-0.8,2.1,0,2.9l6.1,6.2
	l-5.4,5.4c0,0-0.1,0.1-0.1,0.2l0,0l-2.3,4.9c-0.1,0.2,0,0.4,0.1,0.5s0.2,0.1,0.3,0.1c0.1,0,0.1,0,0.2,0l5-2.3l0,0c0,0,0.1,0,0.1-0.1
	l5.4-5.4l2.3,2.4c0,1.5,0.5,3.5,3.3,4.3c1.5,0.7,1.4,2.4,1.4,2.4c4-3.6,1.7-7.9,0.8-8.9c-0.9-0.9-1.9-1-2.8-0.9l-2.2-2.2l7-7l0,0
	C27-606.1,27-607,26.4-607.6z M23.4-594.5c0.6,0.7,2,3.7,0.7,5.5c0,0-0.5-0.6-1.5-1.1c-3-1.1-2.5-3.9-2.5-3.9l1-1
	C21.1-595,22.3-595.7,23.4-594.5z M21.2-605.7l0.7,0.7l-4.4,4.4l-0.7-0.7L21.2-605.7z M8.1-606.2c-0.3-0.3-0.3-0.7,0-1s0.7-0.3,1,0
	l11.4,11.5l-1,1L8.1-606.2z M13.9-598.4l0.7,0.7l-5.1,5.1l-0.7-0.7L13.9-598.4z M6.8-589.3l0.5-1l0.6,0.6L6.8-589.3z M8.7-590.1
	l-1-1l0.6-1.4l1.8,1.8L8.7-590.1z M10.9-591.3l-0.7-0.7l5.1-5.1l0.7,0.7L10.9-591.3z M18.8-599.2l-0.7-0.7l4.4-4.4l0.7,0.7
	L18.8-599.2z M23.9-604.2l-2.1-2.1l1-1l2.1,2.1L23.9-604.2z M25.8-606.2L25.8-606.2l-0.3,0.3l-2.1-2.1l0.3-0.3
	c0.2-0.2,0.6-0.2,0.8,0l1.2,1.2C26-606.8,26-606.4,25.8-606.2z"/>
<g>
	<path d="M115.2-64.1c0,22.8,0,45.5,0,68.3c-32.7,0-65.5,0-98.2,0C16.1,3.7,15.8,3,15.9,2c0-21.6,0-43.3,0-64.9c0-0.3,0-0.7,0-1.1
		c1.1,0,2,0,2.8,0c0.3,0.6,0.5,1.1,0.9,1.4c3.2,3.2,6.3,6.4,9.5,9.5c0.2,0.2,0.5,0.5,0.8,0.7c0.3-0.3,0.5-0.5,0.8-0.7
		c3.1-3.1,6.3-6.3,9.4-9.4c0.4-0.4,0.6-1,1-1.5c0.8,0,1.7,0,2.8,0c0,6.2,0,12.4,0,18.6c0.4,0,0.6,0,0.9,0c3.2,0,6.4,0,9.6,0
		c1.3,0,1.9,0.6,1.9,1.9c0,0.8,0,1.7,0,2.5c0,1.6,0,3.2,0,4.8c2.1,0,4.2,0,6.3,0c0-17.6,0-35.1,0-52.7c1.1,0,2,0,2.7,0
		c0.4,0.6,0.6,1.1,0.9,1.5c3.2,3.2,6.4,6.4,9.6,9.6c0.2,0.2,0.4,0.4,0.7,0.6c0.3-0.3,0.6-0.5,0.8-0.8c3.1-3.1,6.1-6.1,9.2-9.2
		c0.5-0.5,0.8-1.1,1.2-1.7c0.8,0,1.7,0,2.7,0c0,0.5,0,0.8,0,1.2c0,7.8,0,15.6,0,23.5c0,0.7,0.2,1.1,0.7,1.6c3.2,3.2,6.5,6.4,9.7,9.7
		c0.2,0.2,0.4,0.3,0.6,0.5c0.3-0.3,0.5-0.5,0.7-0.7c3.1-3.1,6.3-6.3,9.4-9.4c0.4-0.4,0.7-0.9,1.1-1.6
		C113.2-64.1,114.2-64.1,115.2-64.1z M76.5-72.6c-3.4,3.4-6.7,6.8-10,10c3.3,3.3,6.7,6.7,9.9,9.9c3.3-3.3,6.7-6.7,10-10
		C83.1-65.9,79.8-69.2,76.5-72.6z M19-17.5c7.8,0,15.5,0,23.3,0c0-2.1,0-4.1,0-6.1c-7.8,0-15.5,0-23.3,0C19-21.6,19-19.6,19-17.5z
		 M76.4-48c-3.6,3.6-7.2,7.2-10.6,10.7c-0.2,0.2-0.2,0.7-0.3,1.1c7.4,0,14.6,0,22.1,0c-0.3-0.6-0.5-1.1-0.8-1.4
		c-2.4-2.4-4.8-4.8-7.2-7.2C78.6-45.8,77.6-46.8,76.4-48z M101.3-47.8c-0.1,0.1-0.2,0.1-0.3,0.2c-3.4,3.4-6.9,6.8-10.3,10.3
		c-0.3,0.3-0.3,0.8-0.5,1.2c7.4,0,14.7,0,22.2,0c-0.3-0.6-0.5-1.1-0.8-1.5c-3.2-3.3-6.5-6.5-9.8-9.8
		C101.6-47.6,101.5-47.7,101.3-47.8z M90.4-17.5c7.3,0,14.5,0,21.7,0c0-2.1,0-4.1,0-6.1c-7.3,0-14.5,0-21.7,0
		C90.4-21.6,90.4-19.6,90.4-17.5z M96.6-14.3c-6.8,0-13.4,0-20.1,0c0,2.1,0,4.1,0,6.1c6.7,0,13.4,0,20.1,0
		C96.6-10.3,96.6-12.3,96.6-14.3z M37.6,1.1c6.8,0,13.4,0,20.1,0c0-2.1,0-4.1,0-6.1c-6.8,0-13.4,0-20.1,0C37.6-2.9,37.6-1,37.6,1.1z
		 M102.8-5C96-5,89.3-5,82.7-5c0,2.1,0,4.1,0,6.1c6.8,0,13.4,0,20.1,0C102.8-1,102.8-3,102.8-5z M48.5-33c-6.8,0-13.5,0-20.1,0
		c0,2.1,0,4.1,0,6.1c6.8,0,13.4,0,20.1,0C48.5-28.9,48.5-30.9,48.5-33z M73.3-26.8c6.8,0,13.4,0,20.1,0c0-2.1,0-4.1,0-6.1
		c-6.8,0-13.4,0-20.1,0C73.3-30.9,73.3-28.9,73.3-26.8z M67.1-17.5c6.8,0,13.5,0,20.1,0c0-2.1,0-4.1,0-6.1c-6.8,0-13.4,0-20.1,0
		C67.1-21.6,67.1-19.6,67.1-17.5z M51.6-14.4c-6.8,0-13.4,0-20.1,0c0,2.1,0,4.1,0,6.1c6.7,0,13.4,0,20.1,0
		C51.6-10.3,51.6-12.3,51.6-14.4z M53.1-42.3c-6.3,0-12.4,0-18.6,0c0,2.1,0,4.1,0,6.1c6.2,0,12.4,0,18.6,0
		C53.1-38.2,53.1-40.2,53.1-42.3z M54.7-14.4c0,2.1,0,4.1,0,6.2c6.2,0,12.4,0,18.6,0c0-2.1,0-4.1,0-6.2
		C67.1-14.4,60.9-14.4,54.7-14.4z M45.4-17.5c6.3,0,12.4,0,18.6,0c0-2.1,0-4.1,0-6.1c-6.2,0-12.4,0-18.6,0
		C45.4-21.6,45.4-19.6,45.4-17.5z M79.5-5c-6.3,0-12.4,0-18.6,0c0,2.1,0,4.1,0,6.1c6.2,0,12.4,0,18.6,0C79.5-1,79.5-3,79.5-5z
		 M70.2-26.8c0-2.1,0-4.1,0-6.2c-6.2,0-12.4,0-18.5,0c0,2.1,0,4.1,0,6.2C57.8-26.8,63.9-26.8,70.2-26.8z M112.1-26.8
		c0-2.1,0-4.1,0-6.2c-5.2,0-10.3,0-15.4,0c0,2.1,0,4.1,0,6.2C101.8-26.8,106.9-26.8,112.1-26.8z M19,1.1c5.2,0,10.3,0,15.5,0
		c0-2.1,0-4.1,0-6.1C29.3-5,24.2-5,19-5C19-2.9,19-1,19,1.1z M19-36.1c4.2,0,8.3,0,12.4,0c0-2.1,0-4.1,0-6.1c-4.2,0-8.3,0-12.4,0
		C19-40.2,19-38.2,19-36.1z M112.1-14.3c-4.2,0-8.3,0-12.4,0c0,2.1,0,4.1,0,6.1c4.2,0,8.3,0,12.4,0
		C112.1-10.3,112.1-12.3,112.1-14.3z M73.9-74.8c-2.8-2.8-5.6-5.6-8.3-8.4c0,5.4,0,11.1,0,16.6C68.4-69.4,71.2-72.2,73.9-74.8z
		 M87.3-83.2c-2.8,2.8-5.6,5.6-8.3,8.3c2.7,2.7,5.5,5.5,8.3,8.3C87.3-72.1,87.3-77.7,87.3-83.2z M73.9-50c-2.8-2.8-5.6-5.6-8.3-8.3
		c0,5.4,0,11,0,16.6C68.4-44.5,71.2-47.3,73.9-50z M87.3-58.4c-2.8,2.8-5.6,5.6-8.2,8.2c2.7,2.7,5.5,5.6,8.2,8.2
		C87.3-47.3,87.3-52.9,87.3-58.4z M98.9-50c-2.8-2.8-5.6-5.7-8.4-8.4c0,5.5,0,11.2,0,16.8C93.3-44.5,96.1-47.3,98.9-50z M103.8-50.2
		c2.8,2.8,5.6,5.6,8.3,8.4c0-5.4,0-11.1,0-16.6C109.3-55.7,106.4-52.9,103.8-50.2z M27.6-50c-2.9-2.9-5.7-5.7-8.5-8.5
		c0,4.3,0,8.6,0,13.1c1.2,0,2.4,0,3.6,0c0.2,0,0.5-0.1,0.7-0.3C24.7-47.1,26.1-48.5,27.6-50z M40.7-58.4c-2.8,2.8-5.6,5.6-8.5,8.5
		c1.3,1.3,2.8,2.8,4.2,4.2c0.1,0.1,0.3,0.2,0.5,0.3c1.2,0,2.5,0,3.8,0C40.7-49.9,40.7-54.2,40.7-58.4z M28.3-14.3
		c-3.2,0-6.2,0-9.3,0c0,2.1,0,4.1,0,6.1c3.1,0,6.2,0,9.3,0C28.3-10.3,28.3-12.3,28.3-14.3z M25.1-26.8c0-2.1,0-4.1,0-6.2
		C23-33,21-33,19-33c0,2.1,0,4.1,0,6.2C21.1-26.8,23.1-26.8,25.1-26.8z M105.9-5.1c0,2.1,0,4.1,0,6.2c2.1,0,4.1,0,6.1,0
		c0-2.1,0-4.1,0-6.2C110-5.1,108-5.1,105.9-5.1z M27.4-45.5c1.7,0,3.2,0,4.6,0c-0.8-0.8-1.5-1.5-2.3-2.3
		C29.1-47.1,28.3-46.3,27.4-45.5z"/>
	<rect x="-114.5" y="-259.6" fill="none" stroke="#FFFFFF" stroke-miterlimit="10" width="363" height="385"/>
	<rect x="-41.7" y="-98" fill="#FFFFFF" width="97" height="6"/>
	
		<rect x="100.1" y="13.5" transform="matrix(0.7071 0.7071 -0.7071 0.7071 56.3131 -74.0357)" fill="#FFFFFF" width="34.9" height="34.9"/>
	<rect x="-56.9" y="-67.5" fill="#FFFFFF" width="34.9" height="34.9"/>
	<polygon fill="none" stroke="#FFFFFF" stroke-width="6" stroke-miterlimit="10" points="-22.1,-5 67,-159.2 156.1,-5 	"/>
	<polygon fill="none" stroke="#FFFFFF" stroke-miterlimit="10" points="-22.1,23.5 67,-130.8 156.1,23.5 	"/>
	<circle fill="#FFFFFF" cx="137.8" cy="-130.8" r="20.3"/>
	<g>
		<path fill="#000002" d="M139.1-130.9c-0.4,0-0.7-0.2-0.9-0.6c-0.1-0.4-0.1-0.8,0.2-1.1s0.4-0.8,0.1-1.2c-0.3-0.4-0.7-0.8-1.1-1.1
			c-0.2-0.1-0.3-0.2-0.5-0.2s-0.5,0.1-0.6,0.3c-0.2,0.2-0.4,0.3-0.7,0.3c-0.1,0-0.2,0-0.3-0.1c-0.4-0.2-0.6-0.5-0.6-0.9
			c0-0.5-0.3-0.8-0.8-0.9c-0.5-0.1-1.1-0.1-1.6,0c-0.4,0-0.8,0.4-0.8,0.9c0,0.4-0.2,0.8-0.6,0.9c-0.1,0-0.2,0.1-0.3,0.1
			c-0.3,0-0.6-0.1-0.7-0.3c-0.2-0.2-0.4-0.3-0.6-0.3c-0.2,0-0.4,0.1-0.5,0.2c-0.4,0.3-0.8,0.7-1.1,1.1c-0.3,0.4-0.2,0.9,0.1,1.2
			c0.3,0.3,0.4,0.7,0.2,1.1c-0.1,0.3-0.5,0.6-1,0.6s-0.8,0.3-0.9,0.8s-0.1,1.1,0,1.6s0.5,0.8,0.9,0.8l0,0c0.4,0,0.7,0.2,0.8,0.6
			c0.1,0.4,0.1,0.8-0.2,1.1s-0.4,0.8-0.1,1.2c0.3,0.4,0.7,0.8,1.1,1.1c0.2,0.1,0.3,0.2,0.5,0.2s0.5-0.1,0.6-0.3
			c0.2-0.2,0.4-0.3,0.7-0.3c0.1,0,0.2,0,0.3,0.1c0.4,0.2,0.6,0.5,0.6,0.9c0,0.5,0.3,0.9,0.8,0.9c0.3,0,0.5,0,0.8,0s0.5,0,0.8,0
			c0.4,0,0.8-0.4,0.8-0.9c0-0.4,0.2-0.8,0.6-0.9c0.1,0,0.2-0.1,0.3-0.1c0.3,0,0.6,0.1,0.7,0.3c0.2,0.2,0.4,0.3,0.6,0.3
			c0.2,0,0.4-0.1,0.5-0.2c0.4-0.3,0.8-0.7,1.1-1.1s0.2-0.9-0.1-1.2s-0.4-0.7-0.2-1.1c0.1-0.3,0.5-0.6,0.9-0.6h0.1c0,0,0,0,0.1,0l0,0
			c0.4,0,0.8-0.3,0.8-0.8c0.1-0.5,0.1-1.1,0-1.6C140-130.6,139.5-130.9,139.1-130.9z M139.1-128.8c-0.8,0-1.5,0.5-1.8,1.2
			s-0.1,1.5,0.4,2.1c-0.2,0.3-0.5,0.6-0.8,0.8c-0.4-0.3-0.9-0.5-1.4-0.5c-0.2,0-0.5,0-0.7,0.1c-0.7,0.3-1.2,1-1.2,1.7
			c-0.4,0-0.7,0-1.1,0c0-0.8-0.5-1.5-1.2-1.8c-0.2-0.1-0.5-0.1-0.7-0.1c-0.5,0-1,0.2-1.4,0.5c-0.3-0.2-0.5-0.5-0.8-0.8
			c0.5-0.6,0.7-1.4,0.4-2.1s-1-1.2-1.7-1.2c0-0.4,0-0.8,0-1.1c0.8,0,1.5-0.5,1.8-1.2s0.1-1.5-0.4-2.1c0.2-0.3,0.5-0.6,0.8-0.8
			c0.4,0.3,0.9,0.5,1.4,0.5c0.2,0,0.5,0,0.7-0.1c0.7-0.3,1.2-1,1.2-1.7c0.4,0,0.7,0,1.1,0c0,0.8,0.5,1.5,1.2,1.8
			c0.2,0.1,0.5,0.1,0.7,0.1c0.5,0,1-0.2,1.4-0.5c0.3,0.2,0.5,0.5,0.8,0.8c-0.5,0.5-0.7,1.4-0.4,2.1c0.3,0.7,1,1.2,1.7,1.2
			C139.1-129.6,139.1-129.2,139.1-128.8z"/>
		<path fill="#000002" d="M133.1-132c-1.5,0-2.7,1.2-2.7,2.7s1.2,2.7,2.7,2.7s2.7-1.2,2.7-2.7C135.8-130.9,134.6-132,133.1-132z
			 M133.1-127.7c-0.9,0-1.7-0.8-1.7-1.7s0.8-1.7,1.7-1.7s1.7,0.8,1.7,1.7S134-127.7,133.1-127.7z"/>
		<path fill="#000002" d="M144.3-136.1c-0.3,0-0.5,0.1-0.8,0.2c-1.1,0.4-1.6,1.6-1.1,2.7c0.3,0.8,1.1,1.3,1.9,1.3
			c0.3,0,0.5-0.1,0.8-0.2c1.1-0.4,1.6-1.6,1.1-2.7C145.9-135.6,145.1-136.1,144.3-136.1z M144.7-132.9c-0.1,0.1-0.3,0.1-0.5,0.1
			c-0.5,0-0.9-0.3-1.1-0.7c-0.3-0.6,0-1.3,0.7-1.6c0.1-0.1,0.3-0.1,0.5-0.1c0.5,0,0.9,0.3,1.1,0.7
			C145.7-133.9,145.4-133.2,144.7-132.9z"/>
		<path fill="#000002" d="M149-133.4c-0.3-0.1-0.4-0.3-0.4-0.6s0.2-0.5,0.4-0.6l0,0c0.3-0.1,0.5-0.5,0.4-0.9s-0.3-0.8-0.5-1.1
			c-0.1-0.2-0.4-0.3-0.6-0.3c-0.1,0-0.2,0-0.3,0.1c-0.1,0-0.2,0.1-0.3,0.1c-0.2,0-0.3-0.1-0.5-0.2c-0.2-0.2-0.2-0.5-0.1-0.7
			c0.2-0.3,0-0.7-0.3-0.9c-0.4-0.2-0.7-0.4-1.1-0.5c-0.1,0-0.1,0-0.2,0c-0.3,0-0.6,0.2-0.7,0.5c-0.1,0.2-0.4,0.4-0.6,0.4
			c-0.3,0-0.5-0.2-0.6-0.4c-0.1-0.3-0.4-0.5-0.7-0.5c-0.1,0-0.1,0-0.2,0c-0.4,0.1-0.8,0.3-1.1,0.5s-0.5,0.6-0.3,0.9
			c0.1,0.3,0.1,0.5-0.1,0.7c-0.1,0.1-0.3,0.2-0.5,0.2c-0.1,0-0.2,0-0.3-0.1c-0.1,0-0.2-0.1-0.3-0.1c-0.3,0-0.5,0.1-0.6,0.4
			c-0.2,0.4-0.4,0.7-0.5,1.1c-0.1,0.4,0.1,0.7,0.4,0.9c0.3,0.1,0.4,0.3,0.4,0.6s-0.2,0.5-0.5,0.6s-0.5,0.5-0.4,0.8
			c0.1,0.4,0.3,0.8,0.5,1.1c0.1,0.2,0.4,0.3,0.6,0.3c0.1,0,0.2,0,0.3-0.1l0,0c0.1,0,0.2-0.1,0.2-0.1c0.2,0,0.3,0.1,0.5,0.2
			c0.2,0.2,0.2,0.5,0.1,0.7c-0.2,0.3,0,0.7,0.3,0.9s0.7,0.4,1.1,0.5c0.1,0,0.1,0,0.2,0c0.3,0,0.6-0.2,0.7-0.5
			c0.1-0.2,0.4-0.4,0.6-0.4c0.3,0,0.5,0.2,0.6,0.4c0.1,0.3,0.4,0.5,0.7,0.5c0.1,0,0.1,0,0.2,0c0.2-0.1,0.4-0.1,0.6-0.2
			c0.2-0.1,0.4-0.2,0.5-0.3c0.3-0.2,0.5-0.6,0.3-0.9c-0.1-0.2-0.1-0.5,0.1-0.7c0.1-0.1,0.3-0.2,0.5-0.2c0.1,0,0.2,0,0.3,0.1
			c0.1,0,0.2,0.1,0.3,0.1l0,0c0.3,0,0.5-0.1,0.6-0.4c0.2-0.4,0.4-0.7,0.5-1.1C149.5-132.9,149.3-133.3,149-133.4z M148.2-132
			c-0.2-0.1-0.3-0.1-0.5-0.1c-0.4,0-0.8,0.2-1.1,0.4c-0.4,0.4-0.5,1-0.4,1.6c-0.1,0.1-0.2,0.1-0.3,0.1s-0.2,0.1-0.4,0.1
			c-0.2-0.5-0.8-0.9-1.4-0.9s-1.1,0.4-1.4,0.9c-0.2-0.1-0.5-0.2-0.7-0.3c0.2-0.5,0.1-1.2-0.4-1.6c-0.3-0.3-0.7-0.4-1.1-0.4
			c-0.2,0-0.3,0-0.5,0.1c-0.1-0.2-0.2-0.5-0.3-0.7c0.5-0.3,0.9-0.8,0.9-1.4c0-0.6-0.3-1.1-0.9-1.4c0.1-0.2,0.2-0.5,0.3-0.7
			c0.2,0.1,0.3,0.1,0.5,0.1c0.4,0,0.8-0.2,1.1-0.4c0.4-0.4,0.5-1,0.4-1.6c0.2-0.1,0.4-0.2,0.7-0.3c0.2,0.5,0.8,0.9,1.4,0.9
			s1.1-0.4,1.4-0.9c0.2,0.1,0.5,0.2,0.7,0.3c-0.2,0.5-0.1,1.2,0.4,1.6c0.3,0.3,0.7,0.4,1.1,0.4c0.2,0,0.3,0,0.5-0.1
			c0.1,0.2,0.2,0.4,0.3,0.7c-0.5,0.2-0.9,0.8-0.9,1.4c0,0.6,0.3,1.1,0.9,1.4C148.4-132.4,148.4-132.2,148.2-132z"/>
	</g>
	<text transform="matrix(1 0 0 1 104.4288 35.927)" font-family="'MyriadPro-Regular'" font-size="16.7782">&lt;  &gt;</text>
	<text transform="matrix(1 0 0 1 115.2159 37.3246)" font-family="'MyriadPro-Regular'" font-size="16.7782">/</text>
	<path d="M-29.1-42.1c0,0.1,0,0.3,0,0.4c-0.1,0.3-0.3,0.5-0.5,0.7c-0.3,0.3-0.6,0.6-0.9,0.9c-0.5,0.5-1,0.4-1.5,0
		c-2.3-2.4-4.5-4.8-6.8-7.2c0,0-0.1-0.1-0.1-0.2c-0.1,0.1-0.1,0.1-0.2,0.2c-0.8,0.8-1.7,1.7-2.5,2.5c-0.1,0.1-0.1,0.2-0.1,0.3
		c0.7,2-0.5,4.2-2.6,4.7c-0.1,0-0.3,0.1-0.4,0.1c-0.2,0-0.5,0-0.7,0c-0.3-0.1-0.5-0.1-0.8-0.2c-0.5-0.2-0.6-0.6-0.2-1
		c0.5-0.5,1-1,1.5-1.5l0.1-0.1c-0.4-0.4-0.7-0.8-1.1-1.1l-0.1,0.1c-0.5,0.5-1,1-1.5,1.5c-0.4,0.4-0.8,0.3-1-0.2
		c-0.1-0.3-0.1-0.5-0.2-0.8c0-0.2,0-0.5,0-0.7v-0.1c0.4-2.3,2.6-3.6,4.8-2.9c0.1,0,0.2,0,0.3-0.1c0.9-0.9,1.8-1.8,2.7-2.7
		c0.2-0.2,0.2-0.4,0-0.6c-0.9-0.9-1.9-1.9-2.8-2.8l-0.1-0.1c-0.1,0.1-0.1,0.1-0.2,0.2c-0.2,0.2-0.5,0.4-0.8,0.2h-0.1
		c-0.2,0.1-0.3,0.3-0.4,0.4c0.2,0.4,0.1,0.6-0.1,0.9c-0.2,0.2-0.4,0.4-0.6,0.6c-0.3,0.3-0.7,0.3-1,0c-0.4-0.4-0.8-0.8-1.2-1.2
		c-0.1-0.1-0.2-0.3-0.4-0.5c0-0.1,0-0.2,0-0.3c0.1-0.1,0.1-0.2,0.2-0.3c0.2-0.3,0.5-0.5,0.7-0.7c0.2-0.1,0.4-0.2,0.6-0.2
		c0.2,0.1,0.3,0,0.4-0.1s0.2-0.2,0.3-0.3c-0.2-0.4-0.1-0.6,0.2-0.9c0.8-0.7,1.5-1.5,2.3-2.2c0.4-0.4,0.9-0.8,1.4-1.1
		c1.2-0.7,2.5-1,3.9-0.7c0.3,0.1,0.4,0.2,0.4,0.4s-0.1,0.3-0.4,0.4c-0.9,0.3-1.6,0.7-2.2,1.4c-0.3,0.3-0.6,0.7-0.9,1.1
		c-0.1,0.1-0.1,0.3,0,0.4c0.1,0.2,0.1,0.5-0.1,0.7c-0.1,0.1-0.2,0.1-0.3,0.2c1,1,2,2,3,3c0.1,0.1,0.4,0.1,0.5,0
		c0.9-0.9,1.7-1.7,2.6-2.6c0.1-0.1,0.1-0.2,0.1-0.3c-0.7-2,0.5-4.2,2.6-4.7c0.1,0,0.3-0.1,0.4-0.1c0.2,0,0.5,0,0.7,0
		c0.2,0.1,0.5,0.1,0.7,0.2c0.6,0.2,0.7,0.6,0.3,1c-0.5,0.5-1,1-1.5,1.5l-0.1,0.1c0.4,0.4,0.7,0.8,1.1,1.2c0,0,0.1-0.1,0.1-0.2
		c0.5-0.5,1-1,1.5-1.5c0.4-0.4,0.8-0.3,1,0.2c0.1,0.2,0.1,0.5,0.2,0.8c0,0.2,0,0.5,0,0.7v0.1c-0.3,2.3-2.6,3.7-4.8,2.9
		c-0.1,0-0.2,0-0.3,0.1c-0.8,0.8-1.7,1.7-2.5,2.5c0,0-0.1,0.1-0.1,0.2c0.1,0,0.1,0.1,0.2,0.1c2.3,2.2,4.7,4.4,7,6.6
		C-29.4-42.7-29.2-42.5-29.1-42.1z M-43.4-53.4L-43.4-53.4c1.1,1.1,2,2,3,3c0.1,0.1,0.2,0.2,0.2,0.4c0,0.1,0,0.3,0.1,0.4
		c2.8,3,5.7,6,8.5,9c0.2,0.2,0.4,0.2,0.6,0c0.3-0.3,0.7-0.7,1-1s0.3-0.4,0-0.7c-1.4-1.4-2.8-2.7-4.3-4.1c-1.6-1.5-3.1-3-4.7-4.4
		c-0.1-0.1-0.2-0.2-0.3-0.1c-0.2,0-0.3,0-0.4-0.2c-1-1-1.9-1.9-2.9-2.9l-0.1-0.1C-42.9-53.9-43.2-53.6-43.4-53.4z M-46-40.5
		c0.5,0.2,1,0.2,1.5,0.1c1.9-0.4,2.9-2.4,2.1-4.1c-0.1-0.3-0.1-0.3,0.1-0.5c0.9-0.9,1.8-1.8,2.7-2.7c0,0,0.1-0.1,0.2-0.1
		c-0.4-0.4-0.8-0.8-1.2-1.2c-0.1,0.1-0.1,0.1-0.1,0.2c-0.9,0.9-1.8,1.8-2.7,2.7c-0.2,0.2-0.3,0.2-0.6,0.1c-1.7-0.7-3.7,0.3-4.1,2.2
		c-0.1,0.5-0.1,1,0.1,1.5c0.1,0,0.1-0.1,0.1-0.2c0.5-0.5,0.9-1,1.4-1.4c0.3-0.3,0.7-0.3,1,0c0.4,0.3,0.7,0.7,1.1,1.1
		c0.3,0.3,0.3,0.7,0,0.9c-0.1,0.1-0.2,0.2-0.3,0.3C-45.1-41.3-45.5-40.9-46-40.5z M-37.2-50.1c0-0.1,0.1-0.1,0.1-0.2
		c0.9-0.9,1.8-1.8,2.6-2.6c0.2-0.2,0.3-0.2,0.5-0.1c0.4,0.2,0.9,0.3,1.3,0.2c1.5-0.1,2.7-1.2,2.9-2.7c0-0.4,0-0.7-0.2-1.1
		c-0.1,0-0.1,0.1-0.2,0.2c-0.5,0.5-0.9,0.9-1.4,1.4c-0.3,0.3-0.7,0.3-1,0s-0.6-0.6-0.9-0.9c-0.3-0.3-0.3-0.7,0-1.1
		c0.5-0.5,0.9-0.9,1.4-1.4c0,0,0.1-0.1,0.1-0.2c0,0,0,0-0.1,0c-1.2-0.3-2.2,0-3,0.9s-1,2-0.5,3.1c0.1,0.3,0.1,0.3-0.1,0.6
		c-0.9,0.9-1.8,1.8-2.6,2.6c0,0-0.1,0.1-0.1,0.2C-38-50.8-37.6-50.5-37.2-50.1z M-44.6-53.2c0.7-0.7,1.4-1.4,2.1-2.1
		c-0.2-0.2-0.2-0.5,0-0.8c0.1-0.2,0.2-0.4,0.4-0.6c0.6-0.8,1.3-1.4,2.2-1.9c0.1,0,0.1-0.1,0.2-0.1h-0.1c-0.1,0-0.1,0-0.2,0
		c-1.2,0.1-2.2,0.5-3.1,1.3s-1.7,1.6-2.5,2.5c-0.1,0.1-0.2,0.2-0.3,0.3c0.2,0.4,0.1,0.6-0.2,0.9c-0.1,0.1-0.3,0.3-0.4,0.4
		c-0.2,0.2-0.5,0.3-0.7,0.2h-0.1c-0.2,0.2-0.5,0.4-0.7,0.6c0.5,0.5,1,1,1.4,1.5c0.2-0.2,0.4-0.4,0.6-0.6v-0.1
		c-0.1-0.3,0-0.5,0.2-0.7c0.1-0.1,0.3-0.3,0.4-0.4C-45.2-53.2-44.9-53.3-44.6-53.2z"/>
</g>
<g>
	<rect x="-114.5" y="728.4" fill="none" stroke="#FFFFFF" stroke-miterlimit="10" width="363" height="385"/>
	<rect x="130.8" y="904" fill="#FFFFFF" width="42.4" height="42.4"/>
	<rect x="-6.5" y="847.4" fill="none" stroke="#FFFFFF" stroke-width="6" stroke-miterlimit="10" width="147" height="147"/>
	<rect x="10.2" y="864.1" fill="none" stroke="#FFFFFF" stroke-miterlimit="10" width="147" height="147"/>
	<rect x="-43" y="912.9" fill="#FFFFFF" width="65" height="16"/>
	<polygon fill="#FFFFFF" points="101.2,830.4 133.2,783.5 139.4,808 	"/>
	<polygon fill="#FFFFFF" points="61.8,1007.7 53.9,1029.5 49,1020.5 	"/>
	<g>
		<path d="M75,910.6c-0.8,0.8-0.8,2,0,2.8s2,0.8,2.8,0l1.6-1.6c0.6-0.6,0.7-1.5,0.4-2.2c-1.1-2.3-1.6-4.8-1.6-7.2
			c0-4.9,2.2-9.6,5.8-12.8v12.9c0,0.6,0.3,1.3,0.8,1.6l9.4,6.5c0.7,0.5,1.6,0.5,2.2,0l9.4-6.5c0.5-0.4,0.9-1,0.9-1.6v-12.9
			c3.6,3.2,5.8,7.9,5.8,12.8c0,4.6-1.8,8.9-5,12.1s-7.5,5-12.1,5l0,0c-1.6,0-4.7-0.8-5.7-1.1c-0.7-0.2-1.4,0-1.9,0.5l-6,6
			c-0.8,0.8-0.8,2,0,2.8c0.4,0.4,0.9,0.6,1.4,0.6s1-0.2,1.4-0.6l5.2-5.2c1.4,0.4,3.9,0.9,5.6,0.9l0,0c5.6,0,10.9-2.2,14.9-6.2
			s6.2-9.3,6.2-14.9c0-7.6-4.1-14.6-10.7-18.4c-0.6-0.3-1.4-0.3-2,0c-0.6,0.4-1,1-1,1.7v15.7l-7.4,5.1l-7.4-5.1v-15.7
			c0-0.7-0.4-1.4-1-1.7c-0.6-0.4-1.4-0.4-2,0c-6.6,3.7-10.7,10.8-10.7,18.4c0,2.6,0.5,5.1,1.5,7.6L75,910.6z"/>
		<path d="M69.7,936.8l-27.4,27.4c-1,1-2.4,1.6-3.9,1.6l0,0c-1.5,0-2.8-0.6-3.9-1.6c-1-1-1.6-2.4-1.6-3.9s0.6-2.8,1.6-3.8L58,933
			c0.8-0.8,0.8-2,0-2.8s-2-0.8-2.8,0l-23.5,23.5c-1.8,1.8-2.8,4.1-2.8,6.6s1,4.9,2.7,6.7c1.8,1.8,4.1,2.8,6.6,2.8l0,0
			c2.5,0,4.9-1,6.6-2.8l27.4-27.4c0.8-0.8,0.8-2,0-2.8C71.8,936,70.5,936,69.7,936.8z"/>
		<path d="M38.5,957.9c-0.7,0-1.3,0.3-1.7,0.7c-0.9,0.9-1,2.5,0,3.4l0,0c0.5,0.5,1.1,0.7,1.7,0.7c0.6,0,1.2-0.2,1.7-0.7
			c0.9-0.9,0.9-2.5,0-3.4C39.7,958.2,39.1,957.9,38.5,957.9L38.5,957.9z"/>
		<path d="M103,947.9c-0.2-0.2-0.5-0.4-0.7-0.5l-5.7-2.1l-20.4-20.4l3.3-3.3c0.8-0.8,0.8-2,0-2.8c-0.6-0.6-1.4-0.7-2.2-0.4
			l-30.9-30.9c-1.9-1.9-4.4-2.9-7-2.9l0,0c-2.7,0-5.1,1-7,2.9s-2.9,4.4-2.9,7c0,2.7,1,5.1,2.9,7l30.9,30.9c-0.3,0.7-0.2,1.6,0.4,2.2
			c0.8,0.8,2,0.8,2.8,0l3.3-3.3l20.4,20.4l2.1,5.7c0.1,0.3,0.3,0.5,0.5,0.7l11.5,11.5c0.4,0.4,0.9,0.6,1.4,0.6s1-0.2,1.4-0.6
			l7.5-7.5c0.4-0.4,0.6-0.9,0.6-1.4s-0.2-1-0.6-1.4L103,947.9z M72,923.6L72,923.6l-6,6l-30.8-30.8c-1.1-1.1-1.8-2.6-1.8-4.2
			s0.6-3.1,1.8-4.2c1.1-1.1,2.6-1.7,4.2-1.7l0,0c1.6,0,3.1,0.6,4.2,1.8l30.8,30.8L72,923.6L72,923.6z M105.6,965.5l-9.8-9.8
			l-2.1-5.7c-0.1-0.3-0.3-0.5-0.5-0.7l-20.8-20.8l0.8-0.8L94,948.5c0.2,0.2,0.5,0.4,0.7,0.5l5.7,2.1l9.8,9.8L105.6,965.5z"/>
		<path d="M40.8,893.1c-0.8-0.8-2-0.8-2.8,0s-0.8,2,0,2.8l27.2,27.2c0.4,0.4,0.9,0.6,1.4,0.6s1-0.2,1.4-0.6c0.8-0.8,0.8-2,0-2.8
			L40.8,893.1z"/>
	</g>
	<text transform="matrix(1 0 0 1 135.8769 931.1788)" font-family="'MyriadPro-Regular'" font-size="21.005">&lt;  &gt;</text>
	<text transform="matrix(1 0 0 1 149.3816 932.928)" font-family="'MyriadPro-Regular'" font-size="21.005">/</text>
</g>
<g>
	<rect x="-114.5" y="1187.9" fill="none" stroke="#FFFFFF" stroke-miterlimit="10" width="363" height="385"/>
	<rect x="-39.4" y="1399.8" fill="#FFFFFF" width="42.4" height="42.4"/>
	
		<rect x="130.6" y="1261.6" transform="matrix(-0.7071 0.7071 -0.7071 -0.7071 1130.243 2067.6292)" fill="#FFFFFF" width="12.6" height="12.6"/>
	
		<rect x="122.1" y="1421.3" transform="matrix(0.763 0.6464 -0.6464 0.763 960.5687 238.8305)" fill="#FFFFFF" width="65" height="16"/>
	<polygon fill="#FFFFFF" points="76,1489.8 68.1,1511.6 63.1,1502.5 	"/>
	<polygon fill="none" stroke="#FFFFFF" stroke-width="6" stroke-miterlimit="10" points="16.8,1467.4 -33.4,1380.4 16.8,1293.4 
		117.2,1293.4 167.4,1380.4 117.2,1467.4 	"/>
	<polygon fill="none" stroke="#FFFFFF" stroke-miterlimit="10" points="16.8,1494.4 -33.4,1407.4 16.8,1320.4 117.2,1320.4 
		167.4,1407.4 117.2,1494.4 	"/>
	<g>
		<g>
			<path d="M99.9,1346.9c4,0,7.2,3.2,7.2,7.2s-3.2,7.2-7.2,7.2s-7.2-3.2-7.2-7.2C92.7,1350.2,95.9,1346.9,99.9,1346.9 M99.9,1342.9
				c-6.2,0-11.2,5-11.2,11.2s5,11.2,11.2,11.2s11.2-5,11.2-11.2C111.1,1348,106.1,1342.9,99.9,1342.9L99.9,1342.9z"/>
		</g>
		<g>
			<path d="M99.9,1411.6c4,0,7.2,3.2,7.2,7.2s-3.2,7.2-7.2,7.2s-7.2-3.2-7.2-7.2S95.9,1411.6,99.9,1411.6 M99.9,1407.6
				c-6.2,0-11.2,5-11.2,11.2s5,11.2,11.2,11.2s11.2-5,11.2-11.2S106.1,1407.6,99.9,1407.6L99.9,1407.6z"/>
		</g>
		<g>
			<path d="M34.1,1411.6c4,0,7.2,3.2,7.2,7.2s-3.2,7.2-7.2,7.2s-7.2-3.2-7.2-7.2C26.9,1414.8,30.1,1411.6,34.1,1411.6 M34.1,1407.6
				c-6.2,0-11.2,5-11.2,11.2s5,11.2,11.2,11.2s11.2-5,11.2-11.2S40.3,1407.6,34.1,1407.6L34.1,1407.6z"/>
		</g>
		<g>
			<path d="M34.1,1346.9c4,0,7.2,3.2,7.2,7.2s-3.2,7.2-7.2,7.2s-7.2-3.2-7.2-7.2C26.9,1350.2,30.1,1346.9,34.1,1346.9 M34.1,1342.9
				c-6.2,0-11.2,5-11.2,11.2s5,11.2,11.2,11.2s11.2-5,11.2-11.2C45.3,1348,40.3,1342.9,34.1,1342.9L34.1,1342.9z"/>
		</g>
		<line fill="none" stroke="#000000" stroke-width="5" stroke-miterlimit="10" x1="99.9" y1="1363.2" x2="99.9" y2="1410.4"/>
		<line fill="none" stroke="#000000" stroke-width="5" stroke-miterlimit="10" x1="34.1" y1="1363.2" x2="34.1" y2="1410.4"/>
		<line fill="none" stroke="#000000" stroke-width="5" stroke-miterlimit="10" x1="42.6" y1="1354.2" x2="89.8" y2="1354.2"/>
		<line fill="none" stroke="#000000" stroke-width="5" stroke-miterlimit="10" x1="42.8" y1="1418.8" x2="90" y2="1418.8"/>
	</g>
	<g>
		<path fill="#FFFFFF" d="M-22.7,1281c-0.1,0.5-0.4,1-0.8,1.3c-1.2,1.2-2.4,2.4-3.6,3.6c-0.5,0.6-1.2,0.7-1.9,0.5
			c-0.8-0.2-1.6-0.5-2.4-0.7c-0.3-0.1-0.5-0.1-0.7,0.2c-2,2.4-3.7,5-5.1,7.7c-0.1,0.3-0.1,0.5,0.1,0.7c0.5,0.5,0.9,1.1,1.4,1.6
			c0.6,0.7,0.8,1.5,0.4,2.4c-0.7,1.6-1.3,3.2-2,4.8c-0.4,1-1.2,1.4-2.1,1c-1.4-0.6-2.8-1.4-4-2.4c-0.8-0.6-0.7-1.5-0.7-2.4
			c0-2,0.6-3.8,1.4-5.6c2.3-5.2,5.4-9.8,9.4-13.7c1.3-1.3,2.8-2.4,4.5-3l0.1-0.1c0.3-0.1,0.7-0.1,1-0.2c1.9,0.7,3.5,1.9,4.8,3.5
			C-22.8,1280.5-22.7,1280.8-22.7,1281z M-43,1300.6c0.1,0.1,0.2,0.4,0.5,0.6c1.1,0.7,2.2,1.4,3.3,2c0.5,0.3,0.8,0.1,1.1-0.5
			c0.6-1.6,1.3-3.2,2-4.7c0.2-0.6,0.1-1-0.2-1.4c-0.6-0.6-1.1-1.3-1.7-1.9c-0.3-0.3-0.3-0.6-0.1-0.9c0.9-1.5,1.7-3.1,2.6-4.5
			c1-1.5,2.2-2.9,3.3-4.3c0.2-0.3,0.4-0.3,0.8-0.2c0.9,0.3,1.7,0.6,2.6,0.9c0.4,0.1,0.8,0.1,1.2-0.3c1.2-1.2,2.5-2.5,3.7-3.7
			c0.4-0.4,0.5-0.8,0-1.2c-1-0.8-2-1.5-3.1-2.3c-0.4-0.3-0.8-0.3-1.2-0.1c-1.7,0.6-3.1,1.6-4.3,2.8c-2.5,2.4-4.6,5.2-6.4,8.2
			c-1.4,2.2-2.6,4.5-3.4,7C-42.9,1297.4-43.2,1298.9-43,1300.6z"/>
	</g>
	<path d="M-18.3,1420.6c0.6,0,2.7,0,3.6,0.2c2.7,0.4,4.7,2,6,4.1c0.7,1.1,1,2.4,1,3.6c0,1.7,0,3.4,0,5.1c0,0.1,0,0.1,0,0.2
		c-3.6,0.1-7.1,0.2-10.6,0.2s-7-0.1-10.5-0.2v-0.1c0-1.9-0.1-3.9,0.1-5.8c0.2-3.4,3.1-6.6,6.9-7.1
		C-20.9,1420.7-18.3,1420.6-18.3,1420.6z M-17.4,1423.8c0,0.1,0,0.2,0,0.3c0.5,2,0.9,4,1.4,6c0.1,0.3,0,0.5-0.1,0.7
		c-0.4,0.5-0.7,1-1.1,1.6c0.1,0,0.2,0,0.3,0c2.5,0,5,0,7.5,0c0.3,0,0.4-0.1,0.4-0.3c0-1.3,0.1-2.6,0-3.9c-0.2-2.7-1.6-4.7-4.5-5.9
		c-0.5-0.2-1-0.3-1.4-0.4C-15.4,1423.1-16.1,1423.8-17.4,1423.8z M-21.3,1422.1c-0.1,0-0.2,0-0.3,0c-2.9,0.5-5.4,2.9-5.6,5.5
		c-0.1,1.5-0.1,3-0.1,4.5c0,0.4,0.1,0.5,0.5,0.5c2.4,0,4.7,0,7.1,0c0.1,0,0.3,0,0.5,0c-0.4-0.6-0.8-1.1-1.1-1.7
		c-0.1-0.2-0.2-0.4-0.1-0.6c0.3-1.5,0.7-3.1,1-4.6c0.1-0.6,0.3-1.2,0.4-1.8C-20.3,1423.7-21,1423.1-21.3,1422.1z M-16.6,1421.8
		c-1.1,0-2.1,0-3.2,0c0,0.5,0-0.3,0,0.3c0,0.1,0.3,0.4,0.4,0.4c0.7,0,1.5,0,2.2,0c0.3,0,0.5-0.2,0.5-0.4
		C-16.6,1421.5-16.6,1422.3-16.6,1421.8z M-18.2,1427.4L-18.2,1427.4c-0.3,1-0.5,1.9-0.7,2.9c0,0.1,0,0.2,0,0.2
		c0.2,0.3,0.4,0.6,0.6,1c0.2-0.3,0.4-0.5,0.5-0.7c0.1-0.1,0.2-0.3,0.2-0.5C-17.7,1429.3-18,1428.3-18.2,1427.4z"/>
	<g>
		<path d="M-18.2,1409.5c2.5,0,4.5,2,4.5,4.5s-2,4.5-4.5,4.5s-4.5-2-4.5-4.5S-20.7,1409.5-18.2,1409.5 M-18.2,1408.3
			c-3.1,0-5.7,2.6-5.7,5.7s2.6,5.7,5.7,5.7s5.7-2.6,5.7-5.7S-15,1408.3-18.2,1408.3L-18.2,1408.3z"/>
	</g>
</g>
<path fill="none" d="M2739.4-358.9c-47.1,48.3-92.9,95.3-139.4,143.1c-2.8-2.3-5.3-4.2-7.8-6.3c-65.2-56.4-139.7-94.8-223.8-114
	c-70.8-16.2-141.9-17.6-213.2-3.8c-187.9,36.4-338.9,170.7-396.5,353c-20.5,65-27.9,131.5-21.5,199.4
	c14.4,151.5,82.4,273.9,202.3,367c69.5,53.9,148.6,86.6,235.7,99.8c53.5,8.1,107,8.3,160.2-0.9c83.3-14.4,160.1-44.9,227.3-97.1
	c75.2-58.4,121.8-134.7,140.7-227.9c3.2-16,5-32.2,7.3-48.4c0.3-2.2,0-4.5,0-7.5c-154.1-0.6-307.6-1.2-460.8-1.8
	c-2.2-8.2-2.9-176.1-1.1-190.5c6.8-2.2,643.3-2.8,656-0.5c1.4,11.2,3.1,22.6,4.2,34.2c4.6,49.5,5,99.1,0.7,148.7
	c-6.2,72.5-21.7,142.8-49.5,210.1c-53.1,128.3-141.7,225.1-262.3,292.8c-63.9,35.9-131.2,63.3-203.6,77.2
	c-67.2,12.9-134.7,17-202.9,11.5c-123-9.9-236.6-47.9-339.3-116.2c-161.3-107.2-264.6-255.4-307.8-444.5
	c-16.1-70.6-19.7-142.3-13.3-214.6c24.8-282.4,220.5-525.9,495.4-614.8c87.9-28.4,178.1-39.7,270.1-33.7
	c165.1,10.9,310.3,70.9,435.3,179.4C2734.1-363.3,2736.4-361.4,2739.4-358.9z"/>
<g>
	<rect x="-114.5" y="200.9" fill="none" stroke="#FFFFFF" stroke-miterlimit="10" width="363" height="385"/>
	
		<rect x="84.7" y="302.2" transform="matrix(0.8851 -0.4654 0.4654 0.8851 -126.7121 97.0648)" fill="#FFFFFF" width="97" height="6"/>
	
		<rect x="97.7" y="496.8" transform="matrix(0.7071 0.7071 -0.7071 0.7071 397.3463 69.1542)" fill="#FFFFFF" width="34.9" height="34.9"/>
	
		<rect x="130.6" y="270" transform="matrix(0.7071 0.7071 -0.7071 0.7071 231.8193 -14.3512)" fill="#FFFFFF" width="5.3" height="5.3"/>
	<rect x="-34.9" y="318.8" fill="#FFFFFF" width="34.9" height="34.9"/>
	<circle fill="none" stroke="#FFFFFF" stroke-width="6" stroke-miterlimit="10" cx="67" cy="393.4" r="103"/>
	<circle fill="none" stroke="#FFFFFF" stroke-miterlimit="10" cx="67" cy="408.2" r="103"/>
	<circle fill="#FFFFFF" cx="170.5" cy="388.2" r="20"/>
	<circle fill="#FFFFFF" cx="-45.8" cy="490.4" r="10.2"/>
	<g>
		<path d="M171.2,378.7c-6.2,0-11.3,3.5-11.3,7.8c0,2.4,1.6,4.7,4.4,6.2l-2.2,3.8l0.9-0.1c0.1,0,6.3-1,10.5-2.2
			c5.6-1.7,8.8-4.4,8.8-7.6C182.4,382.2,177.4,378.7,171.2,378.7z M173.4,393.1c-3.2,1-7.6,1.7-9.5,2.1l1.7-3l-0.4-0.2
			c-2.7-1.3-4.3-3.4-4.3-5.6c0-3.8,4.6-6.8,10.4-6.8c5.7,0,10.4,3.1,10.4,6.8C181.5,390.3,175.8,392.4,173.4,393.1z"/>
	</g>
	<path fill="#3174F1" d="M121.1,508.2C121.1,508.2,121,508.2,121.1,508.2c-1.5-1.3-3.2-2-5-2.1c-1-0.1-2.1,0.1-3.1,0.4
		c-3.1,1-5.4,3.8-5.6,7c-0.1,0.8,0,1.6,0.2,2.4c0.5,2.2,1.7,3.8,3.5,5.1c1.2,0.8,2.5,1.2,3.9,1.3c0.8,0.1,1.5,0,2.3-0.1
		c0.8-0.2,1.6-0.5,2.3-0.9c1.4-0.8,2.4-1.9,3-3.3c0.3-0.8,0.5-1.6,0.6-2.4c0-0.6,0-1.1,0-1.7c0-0.1,0-0.3,0-0.4c-0.1,0-7.4,0-7.5,0
		c0,0.2,0,2.1,0,2.2c1.7,0,3.5,0,5.2,0v0.1c0,0.2,0,0.4-0.1,0.6c-0.2,1.1-0.7,1.9-1.6,2.6c-0.8,0.6-1.6,0.9-2.6,1.1
		c-0.6,0.1-1.2,0.1-1.8,0c-1-0.1-1.9-0.5-2.7-1.1c-1.4-1.1-2.1-2.5-2.3-4.2c-0.1-0.8,0-1.5,0.2-2.3c0.7-2.1,2.4-3.6,4.5-4
		c0.8-0.2,1.6-0.1,2.4,0c1,0.2,1.8,0.7,2.5,1.3c0,0,0.1,0,0.1,0.1C120,509.3,120.6,508.8,121.1,508.2z"/>
	<path fill="#ED2025" d="M-17.4,338.2c-0.9-0.3-1.4-0.1-1.8,0.8c-0.9,1.9-1.9,3.8-2.9,5.7c-0.3,0.7-0.7,1.1-1.6,0.9
		c-0.4-0.1-0.9,0-1.6,0c1.5-2.7,2.9-5.3,4.3-7.9c-1.9-0.9-3-2.3-3.3-4.4c-0.3-1.7-0.1-3.3,0.6-4.9c1-2.1,2.6-3.2,5-3.2
		c0.9,0,1.8,0,2.7,0c0.4,0,0.6,0.1,0.6,0.6c0,6.5,0,13,0,19.4c0,0.1,0,0.1-0.1,0.2l-0.1,0.1c-1.9,0.2-1.9,0.2-1.9-1.6
		C-17.4,342-17.4,340.1-17.4,338.2z M-17.5,327.1c-2.4-0.4-3.9,0.5-4.3,2.8c-0.2,1.2-0.2,2.4,0,3.6c0.4,2.2,2.1,3.1,4.3,2.7
		C-17.5,333.2-17.5,330.2-17.5,327.1z"/>
</g>
<path opacity="0.7" d="M134,429.4c-0.8,1.9-2,3.3-4.3,3.4c-1.9,0.1-3.3-0.7-4.1-2.4c-0.4-0.9-1-1.1-1.9-1.1c-12.5,0-25.1,0-37.6,0
	c-4.8,0-9.7,0-14.7,0c0,1.5,0,2.9,0,4.4c0,2.5,0.2,5-0.2,7.4c-0.9,6.2-5.9,10.5-12.2,10.6c-6.7,0.1-13.4,0.1-20.1,0
	c-6.9-0.1-12.2-5.6-12.2-12.5c0-3.2,0-6.4,0-9.7c-6.5,0-13,0-19.5,0c-0.1,0.3-0.2,0.6-0.3,0.9c-0.6,2.1-2.3,3.5-4.3,3.5
	c-2,0-3.8-1.4-4.4-3.5c-1-3.8-1.9-7.6-2.8-11.4c-1.3-5.3-2.6-10.7-4-16c-0.1-0.4-0.3-0.8-0.5-1.3c0-0.7,0-1.5,0-2.2
	c0.8-2,2.1-3.4,4.4-3.5c1.7,0,3,0.9,4,2.3c0.5-0.2,0.9-0.5,1.3-0.7c33.9-18,67.8-36,101.7-54c0.7-0.4,1.2-0.7,1.2-1.7
	c-0.2-2.4,1.5-4.3,3.9-4.6c2.1-0.3,4.2,1.1,4.8,3.4c1.3,5.1,2.6,10.2,3.9,15.3c5.8,23.3,11.6,46.7,17.5,70c0.1,0.4,0.3,0.8,0.5,1.3
	C134,427.9,134,428.7,134,429.4z M105.8,351.9c-0.6,0.3-1,0.5-1.3,0.7C74.7,368.4,45,384.2,15.2,400c-4.2,2.2-8.4,4.4-12.6,6.7
	c-0.4,0.2-0.9,0.8-0.9,1.1c1,4.2,2,8.3,3.1,12.4c39.4,0,78.6,0,118,0C117.2,397.4,111.5,374.8,105.8,351.9z M35.6,429.4
	c0,3.5-0.1,6.9,0,10.4c0.1,1.7,1.5,2.9,3.3,3c6.7,0.1,13.3,0.1,20,0c2.1,0,3.4-1.5,3.5-3.6c0-2.1,0-4.2,0-6.3c0-1.1,0-2.3,0-3.4
	C53.3,429.4,44.5,429.4,35.6,429.4z"/>
</svg>
