<?xml version="1.0" encoding="utf-8"?>
<!-- Generator: Adobe Illustrator 16.0.0, SVG Export Plug-In . SVG Version: 6.00 Build 0)  -->
<!DOCTYPE svg PUBLIC "-//W3C//DTD SVG 1.1//EN" "http://www.w3.org/Graphics/SVG/1.1/DTD/svg11.dtd">
<svg version="1.1" id="Layer_1" xmlns="http://www.w3.org/2000/svg" xmlns:xlink="http://www.w3.org/1999/xlink" x="0px" y="0px"
	 width="327.6px" height="117.182px" viewBox="0 0 327.6 117.182" enable-background="new 0 0 327.6 117.182" xml:space="preserve">
<path fill="#FFFFFF" d="M53.1,21.6c0.2-0.801,0.5-1.601,1.2-2.2c1.1-0.9,2.7-1.3,4.4-0.101c1-0.8,2-1.699,2.898-2.5
	c0.102-0.1,0-0.199,0.102-0.399c0-0.5,0.1-1.101,0.1-1.601c0-0.199,0-0.399-0.1-0.5c-0.602-0.6-1.2-1.199-1.802-1.8
	C59.7,12.3,59.5,12.2,59.2,12.4C57,13.3,54.6,11.6,54.6,9.1c0-1.5,0.9-2.801,2.2-3.4c1.3-0.5,2.9-0.1,3.8,1c0.9,1.1,1.102,2.7,0.4,4
	c-0.102,0.2-0.2,0.3-0.3,0.5c0,0.1,0.1,0.1,0.1,0.2c0.7,0.7,1.4,1.3,2.1,2c1.5-0.5,2.602-0.2,3.2,0.899c0.102,0.101,0.2,0.2,0.2,0.4
	c0.1,0.7,0.5,0.8,1.1,0.9c1.4,0.3,2.7,0.6,4.102,0.899l0,0c0.3-0.399,0.5-0.899,0.8-1.3c0.9-1.1,2-1.4,3.3-1.1
	c1.4,0.3,2.2,1.199,2.602,2.699c0,0.101,0.1,0.2,0.1,0.2c0,0.4,0,0.7,0,1.101c0,0.1-0.1,0.1-0.1,0.199c-0.4,1.7-1.7,2.801-3.4,2.801
	c-1.6,0-2.9-1.101-3.3-2.801c0-0.199-0.2-0.3-0.4-0.399c-1.5-0.4-3.1-0.7-4.6-1c-0.102,0-0.3,0.1-0.4,0.2
	c-0.8,1.1-1.898,1.399-3.1,0.8c-0.102-0.101-0.3-0.101-0.4,0c-1,0.8-1.898,1.6-2.898,2.5c0.6,1.3,0.5,2.6-0.302,3.8
	c-0.5,0.8-1.3,1.2-2.1,1.4c-0.4,0-0.8,0-1.2,0C55.7,25.4,55.2,25.3,54.9,25C54,24.4,53.5,23.5,53.3,22.5
	C53.1,22.3,53.1,22,53.1,21.6z M76.1,17.7c0-0.8-0.6-1.4-1.398-1.4c-0.802,0-1.4,0.601-1.4,1.4s0.6,1.4,1.4,1.4
	C75.5,19.1,76.1,18.5,76.1,17.7z M57.9,7.9c-0.8,0-1.398,0.6-1.398,1.399c0,0.801,0.6,1.4,1.398,1.4c0.7,0,1.4-0.7,1.4-1.4
	C59.3,8.5,58.7,7.9,57.9,7.9z M56.5,23.6c0.7,0,1.398-0.601,1.398-1.4s-0.6-1.4-1.3-1.5c-0.7,0-1.398,0.6-1.398,1.4
	C55.2,22.9,55.8,23.6,56.5,23.6z M65,15.9c0-0.5-0.5-1-0.9-0.9c-0.5,0-0.898,0.5-0.898,1s0.5,1,1,1C64.5,16.8,65,16.3,65,15.9z"/>
<g>
	<path fill="#FFFFFF" d="M225.399,7.3C224.601,3,221.101,0,217.101,0C216.5,0,216,0.1,215.399,0.2C213.2,0.6,211.3,2,210,4
		s-1.7,4.5-1.3,6.9c0.3,1.6,0.898,3.1,1.5,4.399c1.1,2.5,2.5,5.101,4.5,8.101c0.398,0.6,0.898,1.3,1.3,1.899l0,0l0.101,0.101l0,0
		c0.199,0.3,0.602,0.5,0.899,0.5c0.2,0,0.601-0.101,1-0.601c1.3-1.899,2.5-3.699,3.5-5.5c1.2-2.1,2.7-4.8,3.601-7.899
		C225.601,10.4,225.7,8.8,225.399,7.3z M223.899,11.6c-0.897,2.899-2.299,5.6-3.397,7.6c-1,1.8-2.2,3.5-3.399,5.4l0,0V24.5l0,0l0,0
		c-0.398-0.6-0.898-1.3-1.301-1.899c-1.9-2.9-3.3-5.4-4.4-7.801c-0.5-1.199-1.1-2.6-1.397-4.1c-0.399-2.1,0-4.2,1.101-5.9
		c1.102-1.699,2.699-2.899,4.602-3.3c0.5-0.1,1-0.1,1.5-0.1c3.5,0,6.398,2.6,7.1,6.3C224.399,8.9,224.3,10.2,223.899,11.6z M217,4.8
		c-2.2,0-3.899,1.9-3.899,4.2s1.799,4.2,3.899,4.2c2.1,0,3.897-1.9,3.897-4.2S219.2,4.8,217,4.8z M217,11.9c-1.5,0-2.7-1.3-2.7-2.9
		c0-1.6,1.2-2.899,2.7-2.899s2.7,1.3,2.7,2.899C219.7,10.6,218.5,11.9,217,11.9z"/>
</g>
<path fill="#FFFFFF" d="M253.101,1.4c0.5,0.2,0.899,0.6,1.199,1c1,1.5,2,3,3,4.5c0.5,0.7,0.5,1.399,0.1,2.1
	c-0.397,0.7-0.799,1.5-1.197,2.2c-0.2,0.3-0.2,0.5,0,0.7c2,2.6,4.3,4.899,6.898,6.899c0.199,0.2,0.399,0.2,0.602,0
	c0.6-0.399,1.3-0.699,1.898-1.1c0.899-0.5,1.699-0.5,2.602,0.1c1.5,1.101,3,2,4.5,3c0.898,0.601,1.197,1.5,0.6,2.4
	c-1,1.5-2.1,2.8-3.6,3.8c-0.7,0.5-1.5,0.2-2.303,0.101c-2.5-0.601-4.6-1.801-6.6-3.4c-4-3-7.5-6.5-10.3-10.6
	c-1.2-1.7-2.2-3.5-2.7-5.601c-0.1-0.2-0.1-0.5-0.199-0.7c0-0.399,0-0.8,0-1.199C247.8,5.2,248,4.9,248.3,4.5
	c1.1-1.3,2.301-2.399,3.7-3.2C252.5,1.4,252.8,1.4,253.101,1.4z M268.899,26.3c0.201-0.1,0.603-0.199,0.803-0.399
	c0.898-1,1.898-2,2.697-3c0.4-0.4,0.201-0.9-0.299-1.2c-1.5-1-3-1.9-4.398-3c-0.602-0.4-1-0.4-1.602-0.1
	c-0.801,0.399-1.5,0.8-2.301,1.3c-0.4,0.2-0.602,0.2-0.9,0c-1.397-1.2-2.897-2.4-4.197-3.7c-1.303-1.3-2.4-2.7-3.602-4.1
	c-0.301-0.301-0.301-0.601-0.101-1c0.5-0.801,0.897-1.601,1.3-2.301c0.301-0.5,0.301-0.899-0.102-1.5c-1-1.5-2-3-3-4.5
	c-0.301-0.5-0.801-0.6-1.198-0.3c-1,0.9-2.103,1.8-3,2.8c-0.2,0.2-0.302,0.7-0.302,1c0.102,1.301,0.5,2.4,1.102,3.5
	c0.898,1.9,2.2,3.7,3.6,5.301c2.9,3.399,6.103,6.5,9.9,9C265,25.3,266.8,26.1,268.899,26.3z"/>
<g>
	<path fill="#FFFFFF" d="M327.6,6.3V6.2c0-0.4-0.199-0.9-0.5-1.2l0,0l0,0c-0.1-0.1-0.2-0.1-0.2-0.2c0,0,0,0-0.101,0
		c-0.102,0-0.2-0.1-0.302-0.1c0,0,0,0-0.1,0c-0.101,0-0.2-0.1-0.301-0.1c0,0,0,0-0.102,0c-0.1,0-0.3,0-0.398,0h-24.8
		c-0.199,0-0.3,0-0.5,0h-0.102c-0.1,0-0.198,0-0.301,0.1c0,0,0,0-0.1,0c-0.102,0-0.199,0.1-0.3,0.1l0,0
		c-0.103,0-0.2,0.101-0.2,0.101L299.2,5c-0.303,0.3-0.4,0.601-0.5,1c0,0,0,0,0,0.101v16.6c0,0,0,0,0,0.1c0.1,0.5,0.3,1,0.697,1.2
		c0.303,0.2,0.803,0.4,1.303,0.4h24.998l0,0l0,0c0.102,0,0.302,0,0.399,0c0,0,0,0,0.101,0c0.102,0,0.2,0,0.302-0.101l0,0
		c0.8-0.3,1.198-1,1.198-1.699V22.5l0,0l0,0v-16C327.6,6.3,327.6,6.3,327.6,6.3L327.6,6.3z M325.1,5.7l-12,11.5l-2.699-2.6l0,0
		L301,5.7H325.1L325.1,5.7z M300,22.2V6.7l8.898,8.4L300,22.2z M312.8,23h-11.5l8.601-7l2.8,2.7c0.102,0.1,0.2,0.1,0.3,0.2l0,0
		c0,0,0,0,0.102,0l0,0h0.101l0,0c0.102,0,0.302-0.101,0.302-0.2l2.6-2.5l8.7,6.8H312.8L312.8,23z M326.198,22.3l-8.898-7.1
		l8.898-8.5V22.3z"/>
</g>
<path fill="#FFFFFF" d="M55.8,68.7L55.6,72h-3.3v11.4h-4.1V71.9H46v-3.3h2.2v-1v-1v-0.2c0-1,0-2.5,0.698-3.399
	c0.7-1,1.7-1.701,3.4-1.701c2.8,0,4,0.4,4,0.4l-0.6,3.4c0,0-0.9-0.302-1.802-0.302C53,64.799,52.3,65.1,52.3,66v0.4v1.2v1h3.5V68.7z
	"/>
<path fill="#FFFFFF" d="M103.4,67.799c0,0.201,0,0.4,0,0.602c0,6.3-4.6,13.5-13.1,13.5c-2.6,0-5-0.8-7-2.102
	c0.4,0,0.7,0.102,1.1,0.102c2.2,0,4.102-0.8,5.7-2c-2,0-3.7-1.399-4.3-3.3c0.3,0.1,0.6,0.1,0.9,0.1c0.398,0,0.8-0.1,1.198-0.199
	C85.8,74.101,84.2,72.101,84.2,69.9c0,0,0,0,0-0.102c0.6,0.4,1.3,0.602,2.1,0.602c-1.2-0.8-2-2.3-2-3.899
	c0-0.898,0.2-1.701,0.6-2.398C87.2,67,90.5,68.901,94.4,69c-0.1-0.301-0.1-0.701-0.1-1.101c0-2.602,2.1-4.7,4.6-4.7
	c1.302,0,2.5,0.6,3.4,1.5c1-0.199,2-0.6,2.9-1.1c-0.302,1.1-1.102,2-2,2.6c0.898-0.1,1.8-0.4,2.6-0.699
	C105,66.299,104.3,67.2,103.4,67.799z"/>
<path fill="#FFFFFF" d="M14.2,72.5C13.9,72.1,13.6,71.899,13,71.6c-0.3-0.2-1.3-0.5-1.4-0.601c1.7-1,2.5-1.899,2.5-4.301
	c0-2.801-2.3-4.199-5.1-4.199H0.7v18.9H8.6c3.3,0,6.7-1.8,6.7-5.5C15.3,74.4,15.1,73.5,14.2,72.5z M9.4,67.9
	c0,2.398-2,2.1-4.199,2.1v-2.5V66C7.1,66,9.4,65.7,9.4,67.9z M10.5,75.6C10.4,78.299,7.5,78,5.2,78v-4.701
	C7.5,73.299,10.5,72.799,10.5,75.6z"/>
<path fill="#FFFFFF" d="M151.5,63.2h-16.4c-1.6,0-2.8,1.301-2.8,2.801V82.4c0,1.601,1.3,2.8,2.8,2.8h16.4c1.6,0,2.8-1.3,2.8-2.8V66
	C154.3,64.4,153.1,63.2,151.5,63.2z M147.4,66.6c0-0.5,0.4-1,1-1h2.5c0.5,0,1,0.399,1,1V69c0,0.5-0.398,1-1,1h-2.5
	c-0.5,0-1-0.399-1-1V66.6z M143.3,69.799c2.4,0,4.4,1.9,4.4,4.302c0,2.4-2,4.3-4.4,4.3s-4.4-1.899-4.4-4.3
	C138.9,71.799,140.9,69.799,143.3,69.799z M151.8,81.799c0,0.5-0.4,0.9-0.9,0.9h-15.3c-0.5,0-0.898-0.4-0.898-0.9V72.5h2
	c-0.2,0.601-0.302,1.199-0.302,1.898c0,3.7,3.102,6.602,6.802,6.602c3.8,0,6.8-3,6.8-6.602c0-0.699-0.102-1.3-0.3-1.898h1.898v9.299
	H151.8z"/>
<g>
	<g>
		<g>
			<defs>
				<rect id="SVGID_1_" x="164.174" y="63.2" width="21.999" height="22"/>
			</defs>
			<clipPath id="SVGID_2_">
				<use xlink:href="#SVGID_1_"  overflow="visible"/>
			</clipPath>
			<path clip-path="url(#SVGID_2_)" fill="#FFFFFF" d="M166.924,63.2v2.746h-0.801c0.513,3.823,3.68,7.125,7.667,7.68
				c0.005-0.104,0.01-0.209,0.017-0.326h2.729c0.007,0.104,0.016,0.216,0.021,0.326c3.913-0.537,7.132-3.781,7.663-7.672h-0.799
				V63.2h2.749v2.75h-0.983c-0.745,4.063-3.035,6.793-6.894,8.241c0.048,0.004,0.073,0.009,0.098,0.009
				c1.653,0,3.309-0.002,4.959,0.004c0.129,0,0.167-0.061,0.215-0.156c0.271-0.532,0.784-0.807,1.397-0.752
				c0.523,0.047,0.991,0.442,1.157,0.983c0.014,0.046,0.032,0.091,0.051,0.136v0.475c-0.012,0.023-0.028,0.05-0.036,0.074
				c-0.179,0.629-0.619,1.009-1.248,1.068c-0.533,0.053-1.056-0.252-1.334-0.798c-0.059-0.116-0.134-0.122-0.237-0.122
				c-2.184,0.001-4.364,0.001-6.55,0.001c-0.066,0-0.137,0-0.226,0v0.931h-1.347c0.08,0.086,0.127,0.14,0.179,0.188
				c1.103,1.104,2.203,2.21,3.313,3.308c0.119,0.119,0.144,0.215,0.089,0.371c-0.457,1.362-0.903,2.728-1.354,4.09
				c-0.027,0.086-0.049,0.172-0.076,0.271c0.083,0.011,0.14,0.015,0.195,0.021c0.188,0.031,0.31,0.146,0.363,0.322
				c0.056,0.172,0.005,0.325-0.12,0.452c-0.05,0.05-0.106,0.089-0.16,0.134h-4.898c-0.023-0.021-0.049-0.047-0.076-0.066
				c-0.188-0.139-0.269-0.326-0.205-0.52c0.071-0.213,0.223-0.326,0.45-0.328c0.039,0,0.079-0.01,0.13-0.016
				c-0.02-0.07-0.031-0.126-0.05-0.181c-0.461-1.383-0.917-2.766-1.389-4.145c-0.066-0.193-0.03-0.304,0.107-0.441
				c1.101-1.088,2.188-2.182,3.281-3.273c0.052-0.052,0.104-0.106,0.195-0.205h-1.382v-0.903c-0.076-0.004-0.135-0.008-0.188-0.008
				c-2.188-0.002-4.38,0-6.569-0.005c-0.135,0-0.194,0.046-0.257,0.164c-0.257,0.507-0.792,0.808-1.313,0.757
				c-0.611-0.059-1.069-0.437-1.24-1.023c-0.013-0.041-0.029-0.079-0.044-0.118c0-0.158,0-0.314,0-0.474
				c0.013-0.023,0.031-0.047,0.038-0.074c0.17-0.586,0.612-0.987,1.148-1.045c0.632-0.063,1.142,0.205,1.425,0.777
				c0.063,0.133,0.148,0.127,0.257,0.127c1.618-0.002,3.234,0,4.854,0c0.044,0,0.088-0.006,0.151-0.009
				c-3.864-1.46-6.156-4.19-6.893-8.241h-0.981V63.2H166.924z M174.71,84.284c0-0.113,0-0.191,0-0.271
				c0-0.952,0.002-1.902-0.001-2.854c-0.001-0.228,0.068-0.41,0.288-0.506c0.316-0.141,0.636,0.1,0.637,0.486
				c0.004,0.959,0.002,1.918,0.002,2.877c0,0.083,0,0.165,0,0.27c0.194,0,0.358-0.01,0.521,0.004
				c0.152,0.012,0.224-0.041,0.271-0.19c0.43-1.325,0.866-2.646,1.309-3.97c0.044-0.133,0.029-0.213-0.071-0.313
				c-0.789-0.779-1.57-1.566-2.355-2.353c-0.043-0.043-0.092-0.082-0.146-0.129c-0.75,0.752-1.472,1.51-2.232,2.223
				c-0.309,0.285-0.354,0.521-0.213,0.908c0.433,1.197,0.813,2.412,1.221,3.615c0.026,0.078,0.106,0.188,0.173,0.195
				C174.297,84.301,174.491,84.284,174.71,84.284 M165.096,65.022h0.896v-0.894h-0.896V65.022z M184.345,65.036
				c0.285,0,0.548,0.004,0.813-0.004c0.032,0,0.097-0.052,0.098-0.08c0.007-0.275,0.004-0.551,0.004-0.82h-0.913L184.345,65.036
				L184.345,65.036z M174.727,75.099h0.896v-0.891h-0.896V75.099z M165.541,75.111c0.257,0.003,0.471-0.204,0.468-0.457
				c-0.002-0.243-0.209-0.448-0.453-0.452c-0.254-0.004-0.47,0.207-0.468,0.459C165.09,74.905,165.293,75.108,165.541,75.111
				 M184.806,75.11c0.247-0.003,0.449-0.205,0.452-0.449c0.003-0.252-0.213-0.463-0.468-0.459c-0.244,0.002-0.451,0.211-0.453,0.452
				C184.335,74.907,184.548,75.116,184.806,75.11"/>
		</g>
	</g>
</g>
<g>
	<g>
		<g>
			<defs>
				<rect id="SVGID_3_" x="193.055" y="62.12" width="32.017" height="23.08"/>
			</defs>
			<clipPath id="SVGID_4_">
				<use xlink:href="#SVGID_3_"  overflow="visible"/>
			</clipPath>
			<path clip-path="url(#SVGID_4_)" fill="#FFFFFF" d="M210.969,73.475c-0.543,0-1.021-0.314-1.221-0.802
				c-0.203-0.5-0.07-1.082,0.329-1.447c0.45-0.414,0.511-1.115,0.13-1.6c-0.45-0.57-0.963-1.09-1.523-1.539
				c-0.208-0.166-0.47-0.258-0.734-0.258c-0.333,0-0.651,0.144-0.874,0.389c-0.231,0.257-0.615,0.414-1.001,0.414
				c-0.164,0-0.323-0.028-0.457-0.086c-0.506-0.213-0.821-0.723-0.791-1.271c0.035-0.622-0.421-1.166-1.04-1.237
				c-0.719-0.084-1.447-0.086-2.162-0.006c-0.608,0.066-1.068,0.6-1.048,1.211c0.02,0.547-0.305,1.049-0.802,1.252
				c-0.133,0.055-0.287,0.082-0.446,0.082c-0.388,0-0.771-0.158-1.003-0.414c-0.224-0.244-0.539-0.385-0.87-0.385
				c-0.263,0-0.521,0.088-0.729,0.252c-0.576,0.452-1.101,0.971-1.554,1.537c-0.39,0.481-0.335,1.188,0.127,1.608
				c0.407,0.369,0.539,0.957,0.328,1.462c-0.201,0.477-0.714,0.786-1.31,0.788c-0.622-0.014-1.126,0.429-1.198,1.041
				c-0.084,0.722-0.085,1.455-0.005,2.187c0.071,0.645,0.712,1.045,1.264,1.045h0.046c0.498,0,0.964,0.321,1.161,0.801
				c0.204,0.498,0.072,1.08-0.33,1.449c-0.451,0.416-0.508,1.116-0.129,1.596c0.443,0.565,0.956,1.084,1.521,1.539
				c0.208,0.168,0.472,0.26,0.737,0.26c0.332,0,0.65-0.141,0.873-0.387c0.232-0.258,0.617-0.416,1.001-0.416
				c0.165,0,0.323,0.028,0.459,0.086c0.505,0.211,0.822,0.724,0.791,1.271c-0.036,0.624,0.421,1.168,1.039,1.236
				c0.364,0.043,0.737,0.064,1.106,0.064c0.354,0,0.707-0.019,1.057-0.059c0.606-0.066,1.066-0.601,1.049-1.214
				c-0.021-0.543,0.301-1.047,0.799-1.25c0.133-0.055,0.289-0.084,0.449-0.084c0.386,0,0.768,0.16,1.004,0.418
				c0.223,0.242,0.539,0.383,0.868,0.383c0.26,0,0.518-0.089,0.728-0.25c0.574-0.451,1.099-0.969,1.556-1.537
				c0.391-0.485,0.336-1.192-0.126-1.61c-0.408-0.369-0.541-0.957-0.329-1.461c0.196-0.473,0.676-0.789,1.188-0.793l0.087,0.002
				c0.023,0.002,0.047,0.004,0.068,0.004h0.001c0.592,0,1.092-0.449,1.161-1.043c0.086-0.722,0.087-1.457,0.005-2.186
				C212.146,73.875,211.513,73.475,210.969,73.475 M210.88,76.381c-1.051,0.011-2.025,0.662-2.431,1.627
				c-0.411,0.98-0.19,2.115,0.544,2.875c-0.331,0.396-0.701,0.762-1.101,1.086c-0.485-0.465-1.181-0.735-1.887-0.735
				c-0.34,0-0.665,0.063-0.966,0.186c-0.972,0.397-1.614,1.345-1.646,2.388c-0.508,0.045-1.021,0.045-1.523-0.005
				c-0.011-1.057-0.647-2.02-1.628-2.43c-0.307-0.129-0.639-0.191-0.985-0.191c-0.707,0-1.4,0.273-1.888,0.736
				c-0.393-0.328-0.749-0.688-1.071-1.084c0.722-0.756,0.943-1.877,0.544-2.85c-0.4-0.978-1.36-1.634-2.393-1.646
				c-0.05-0.519-0.048-1.039,0.003-1.549c1.088-0.051,2.028-0.676,2.428-1.621c0.412-0.98,0.189-2.115-0.543-2.875
				c0.33-0.395,0.699-0.758,1.1-1.086c0.487,0.463,1.182,0.735,1.89,0.735c0.341,0,0.664-0.063,0.963-0.186
				c0.971-0.396,1.613-1.344,1.646-2.387c0.506-0.047,1.02-0.045,1.525,0.004c0.009,1.055,0.646,2.019,1.628,2.433
				c0.305,0.127,0.636,0.188,0.981,0.188c0.709,0,1.401-0.271,1.891-0.736c0.388,0.322,0.748,0.688,1.072,1.084
				c-0.723,0.755-0.941,1.875-0.548,2.85c0.4,0.974,1.333,1.609,2.396,1.646C210.93,75.352,210.929,75.872,210.88,76.381"/>
		</g>
	</g>
	<g>
		<g>
			<defs>
				<rect id="SVGID_5_" x="193.055" y="62.12" width="32.017" height="23.08"/>
			</defs>
			<clipPath id="SVGID_6_">
				<use xlink:href="#SVGID_5_"  overflow="visible"/>
			</clipPath>
			<path clip-path="url(#SVGID_6_)" fill="#FFFFFF" d="M202.681,71.948c-2.018,0-3.66,1.641-3.66,3.658
				c0,2.017,1.645,3.66,3.66,3.66c2.021,0,3.66-1.644,3.66-3.66C206.341,73.589,204.699,71.948,202.681,71.948 M202.681,77.905
				c-1.267,0-2.298-1.031-2.298-2.299c0-1.269,1.031-2.298,2.298-2.298c1.27,0,2.298,1.029,2.298,2.298
				C204.979,76.874,203.948,77.905,202.681,77.905"/>
		</g>
	</g>
	<g>
		<g>
			<defs>
				<rect id="SVGID_7_" x="193.055" y="62.12" width="32.017" height="23.08"/>
			</defs>
			<clipPath id="SVGID_8_">
				<use xlink:href="#SVGID_7_"  overflow="visible"/>
			</clipPath>
			<path clip-path="url(#SVGID_8_)" fill="#FFFFFF" d="M218.018,66.366c-0.373,0-0.734,0.072-1.083,0.217
				c-1.439,0.599-2.128,2.258-1.53,3.699c0.44,1.061,1.47,1.746,2.618,1.746c0.372,0,0.736-0.072,1.081-0.216
				c1.441-0.6,2.129-2.258,1.53-3.699C220.195,67.051,219.167,66.366,218.018,66.366 M218.651,70.721
				c-0.199,0.084-0.413,0.126-0.629,0.126c-0.671,0-1.271-0.399-1.525-1.02c-0.352-0.84,0.052-1.81,0.892-2.156
				c0.202-0.084,0.414-0.127,0.631-0.127c0.671,0,1.271,0.399,1.526,1.02C219.893,69.407,219.492,70.374,218.651,70.721"/>
		</g>
	</g>
	<g>
		<g>
			<defs>
				<rect id="SVGID_9_" x="193.055" y="62.12" width="32.017" height="23.08"/>
			</defs>
			<clipPath id="SVGID_10_">
				<use xlink:href="#SVGID_9_"  overflow="visible"/>
			</clipPath>
			<path clip-path="url(#SVGID_10_)" fill="#FFFFFF" d="M224.42,70.054c-0.358-0.129-0.601-0.469-0.6-0.848
				c0.001-0.349,0.229-0.685,0.553-0.822l0.058-0.021c0.472-0.164,0.742-0.685,0.604-1.17c-0.15-0.531-0.363-1.05-0.635-1.537
				c-0.163-0.296-0.493-0.479-0.865-0.479c-0.142,0-0.278,0.025-0.401,0.076c-0.117,0.051-0.238,0.074-0.362,0.074
				c-0.237,0-0.464-0.094-0.631-0.262c-0.263-0.267-0.332-0.673-0.174-1.014c0.213-0.454,0.036-1.005-0.402-1.247
				c-0.48-0.271-0.994-0.485-1.519-0.639c-0.087-0.024-0.178-0.039-0.27-0.039c-0.404,0-0.771,0.259-0.907,0.643
				c-0.116,0.329-0.495,0.597-0.846,0.597c-0.378-0.002-0.718-0.244-0.843-0.603c-0.134-0.389-0.5-0.647-0.91-0.647
				c-0.089,0-0.178,0.014-0.264,0.037c-0.529,0.15-1.041,0.362-1.521,0.627c-0.438,0.24-0.618,0.787-0.41,1.244
				c0.154,0.344,0.084,0.749-0.181,1.014c-0.152,0.151-0.402,0.246-0.653,0.246c-0.133,0-0.258-0.025-0.36-0.076
				c-0.129-0.061-0.269-0.092-0.409-0.092c-0.348,0-0.668,0.188-0.841,0.492c-0.273,0.483-0.49,1.002-0.646,1.532
				c-0.143,0.486,0.121,1.005,0.604,1.178c0.355,0.128,0.599,0.47,0.597,0.847c-0.002,0.357-0.25,0.691-0.632,0.854
				c-0.474,0.186-0.718,0.671-0.58,1.162c0.15,0.528,0.363,1.047,0.633,1.534c0.162,0.295,0.494,0.479,0.867,0.479
				c0.145,0,0.284-0.028,0.41-0.081l0.014-0.006c0.104-0.045,0.215-0.068,0.332-0.068c0.237,0,0.472,0.1,0.641,0.268
				c0.263,0.265,0.332,0.672,0.172,1.015c-0.211,0.456-0.033,1.004,0.401,1.246c0.479,0.27,0.987,0.481,1.519,0.639
				c0.088,0.026,0.18,0.039,0.271,0.039c0.405,0,0.771-0.258,0.907-0.641c0.118-0.33,0.495-0.601,0.846-0.601
				c0.378,0.002,0.72,0.246,0.845,0.604c0.134,0.389,0.5,0.646,0.907,0.646c0.092,0,0.181-0.012,0.266-0.035
				c0.27-0.075,0.537-0.172,0.797-0.277c0.247-0.104,0.491-0.219,0.725-0.35c0.439-0.239,0.62-0.786,0.412-1.244
				c-0.157-0.344-0.086-0.749,0.181-1.012c0.154-0.154,0.399-0.248,0.652-0.248c0.132,0,0.257,0.025,0.363,0.076
				c0.129,0.062,0.267,0.09,0.407,0.09l0,0c0.346,0,0.667-0.187,0.841-0.489c0.271-0.484,0.489-0.999,0.645-1.532
				C225.164,70.745,224.9,70.225,224.42,70.054 M223.438,72.019c-0.211-0.071-0.438-0.11-0.674-0.11
				c-0.563,0-1.104,0.217-1.485,0.592c-0.563,0.562-0.752,1.401-0.495,2.147c-0.145,0.074-0.29,0.142-0.438,0.203
				c-0.158,0.064-0.319,0.125-0.482,0.177c-0.337-0.724-1.065-1.199-1.882-1.201c-0.775,0-1.533,0.49-1.873,1.188
				c-0.314-0.104-0.623-0.231-0.918-0.389c0.263-0.744,0.078-1.588-0.482-2.151c-0.39-0.392-0.929-0.615-1.477-0.615
				c-0.233,0-0.464,0.039-0.68,0.118c-0.156-0.305-0.286-0.619-0.388-0.94c0.731-0.369,1.198-1.086,1.204-1.865
				c0.002-0.809-0.471-1.541-1.189-1.883c0.104-0.319,0.237-0.633,0.393-0.934c0.214,0.071,0.441,0.108,0.675,0.108
				c0.564,0,1.105-0.215,1.483-0.59c0.565-0.561,0.753-1.401,0.498-2.148c0.295-0.149,0.604-0.276,0.921-0.379
				c0.337,0.723,1.065,1.197,1.878,1.201c0.779,0,1.538-0.488,1.877-1.188c0.313,0.104,0.622,0.231,0.919,0.387
				c-0.261,0.744-0.075,1.588,0.482,2.153c0.391,0.394,0.912,0.609,1.469,0.609c0.234-0.002,0.465-0.038,0.688-0.114
				c0.156,0.303,0.285,0.612,0.387,0.936c-0.719,0.336-1.199,1.078-1.201,1.873c-0.004,0.81,0.467,1.541,1.188,1.883
				C223.726,71.409,223.595,71.721,223.438,72.019"/>
		</g>
	</g>
</g>
<g>
	<g>
		<g>
			<defs>
				<rect id="SVGID_11_" x="230.59" y="62.402" width="28.485" height="22.798"/>
			</defs>
			<clipPath id="SVGID_12_">
				<use xlink:href="#SVGID_11_"  overflow="visible"/>
			</clipPath>
			<path clip-path="url(#SVGID_12_)" fill="#FFFFFF" d="M259.075,80.75c-0.167,0.377-0.407,0.662-0.859,0.676
				c-0.369,0.012-0.658-0.146-0.813-0.477c-0.087-0.189-0.195-0.227-0.382-0.226c-2.494,0.006-4.986,0.007-7.48,0.009
				c-0.962,0-1.929,0-2.93,0c0,0.301,0.006,0.585-0.001,0.87c-0.007,0.488,0.032,0.986-0.039,1.47
				c-0.183,1.237-1.169,2.092-2.42,2.109c-1.334,0.02-2.67,0.022-4.005,0.001c-1.378-0.022-2.424-1.106-2.436-2.485
				c-0.006-0.64-0.002-1.277-0.002-1.939h-3.882c-0.019,0.053-0.038,0.109-0.057,0.17c-0.119,0.424-0.458,0.699-0.859,0.699
				c-0.406,0-0.761-0.271-0.868-0.692c-0.193-0.753-0.378-1.509-0.565-2.265c-0.264-1.06-0.524-2.119-0.792-3.178
				c-0.021-0.088-0.063-0.168-0.097-0.252c0-0.148,0-0.296,0-0.443c0.161-0.398,0.416-0.678,0.88-0.688
				c0.348-0.007,0.595,0.171,0.801,0.457c0.094-0.048,0.184-0.092,0.271-0.141c6.745-3.584,13.488-7.17,20.235-10.75
				c0.146-0.077,0.244-0.141,0.23-0.348c-0.03-0.484,0.301-0.854,0.776-0.92c0.424-0.061,0.839,0.217,0.955,0.672
				c0.267,1.012,0.517,2.027,0.77,3.043c1.156,4.645,2.313,9.285,3.471,13.928c0.021,0.088,0.063,0.168,0.099,0.254V80.75
				L259.075,80.75z M253.471,65.329c-0.117,0.062-0.192,0.096-0.265,0.135c-5.921,3.146-11.84,6.293-17.762,9.44
				c-0.834,0.443-1.669,0.884-2.499,1.335c-0.078,0.043-0.188,0.165-0.175,0.227c0.193,0.828,0.404,1.65,0.609,2.469h23.481
				C255.731,74.387,254.604,69.874,253.471,65.329 M239.499,80.75c0,0.699-0.02,1.383,0.007,2.063
				c0.012,0.338,0.303,0.586,0.665,0.589c1.324,0.01,2.646,0.012,3.972-0.002c0.415-0.004,0.683-0.304,0.688-0.721
				c0.006-0.416,0.002-0.833,0.002-1.25c0-0.228,0-0.455,0-0.681L239.499,80.75L239.499,80.75z"/>
		</g>
	</g>
</g>
<g>
	<g>
		<g>
			<defs>
				<rect id="SVGID_13_" x="264.894" y="60.713" width="24.69" height="24.486"/>
			</defs>
			<clipPath id="SVGID_14_">
				<use xlink:href="#SVGID_13_"  overflow="visible"/>
			</clipPath>
			<path clip-path="url(#SVGID_14_)" fill="#FFFFFF" d="M277.87,68.321c-0.22,0.219-0.22,0.572,0,0.79c0.219,0.22,0.57,0.22,0.79,0
				l0.462-0.462c0.165-0.165,0.21-0.418,0.109-0.63c-0.308-0.661-0.465-1.348-0.465-2.034c0-1.4,0.61-2.721,1.641-3.632l0.002,3.654
				c0,0.186,0.09,0.355,0.239,0.461l2.649,1.836c0.19,0.132,0.445,0.132,0.636,0l2.652-1.836c0.148-0.104,0.24-0.274,0.24-0.459
				l-0.001-3.655c1.027,0.91,1.639,2.229,1.64,3.629c0,1.295-0.505,2.514-1.42,3.43c-0.916,0.916-2.132,1.42-3.426,1.42h-0.005
				c-0.445-0.002-1.318-0.217-1.618-0.299c-0.194-0.055-0.401,0-0.544,0.143l-1.698,1.697c-0.219,0.219-0.219,0.572,0,0.791
				c0.107,0.108,0.252,0.164,0.395,0.164c0.146,0,0.286-0.056,0.396-0.164l1.472-1.473c0.41,0.102,1.115,0.258,1.601,0.258h0.005
				c1.592,0,3.09-0.621,4.216-1.748s1.747-2.625,1.747-4.219c-0.001-2.146-1.166-4.14-3.04-5.195
				c-0.174-0.099-0.385-0.097-0.559,0.004c-0.171,0.102-0.274,0.283-0.274,0.481v4.443l-2.093,1.447l-2.094-1.449l-0.003-4.442
				c0-0.197-0.104-0.382-0.274-0.482c-0.172-0.1-0.386-0.102-0.559-0.004c-1.874,1.062-3.038,3.051-3.038,5.199
				c0,0.727,0.141,1.444,0.412,2.143L277.87,68.321z"/>
		</g>
	</g>
	<g>
		<g>
			<defs>
				<rect id="SVGID_15_" x="264.894" y="60.713" width="24.69" height="24.486"/>
			</defs>
			<clipPath id="SVGID_16_">
				<use xlink:href="#SVGID_15_"  overflow="visible"/>
			</clipPath>
			<path clip-path="url(#SVGID_16_)" fill="#FFFFFF" d="M276.392,75.738l-7.749,7.75c-0.292,0.292-0.679,0.452-1.09,0.452h-0.002
				c-0.411,0-0.798-0.16-1.09-0.451c-0.291-0.291-0.45-0.679-0.45-1.092c0.001-0.411,0.16-0.798,0.452-1.088l6.665-6.666
				c0.218-0.22,0.218-0.572,0-0.79c-0.218-0.219-0.572-0.219-0.79,0l-6.664,6.665c-0.502,0.501-0.779,1.168-0.78,1.878
				s0.275,1.379,0.777,1.882c0.503,0.504,1.17,0.779,1.88,0.779h0.002c0.71,0,1.378-0.275,1.88-0.779l7.749-7.75
				c0.218-0.218,0.218-0.57,0-0.79C276.963,75.52,276.609,75.52,276.392,75.738"/>
		</g>
	</g>
	<g>
		<g>
			<defs>
				<rect id="SVGID_17_" x="264.894" y="60.713" width="24.69" height="24.486"/>
			</defs>
			<clipPath id="SVGID_18_">
				<use xlink:href="#SVGID_17_"  overflow="visible"/>
			</clipPath>
			<path clip-path="url(#SVGID_18_)" fill="#FFFFFF" d="M267.543,81.717c-0.186,0-0.356,0.072-0.484,0.201
				c-0.269,0.268-0.27,0.703-0.003,0.974c0.001,0,0.002,0.001,0.002,0.002c0.135,0.133,0.312,0.198,0.485,0.198
				s0.354-0.065,0.485-0.2c0.271-0.271,0.269-0.705,0-0.972C267.9,81.792,267.728,81.717,267.543,81.717L267.543,81.717z"/>
		</g>
	</g>
	<g>
		<g>
			<defs>
				<rect id="SVGID_19_" x="264.894" y="60.713" width="24.69" height="24.486"/>
			</defs>
			<clipPath id="SVGID_20_">
				<use xlink:href="#SVGID_19_"  overflow="visible"/>
			</clipPath>
			<path clip-path="url(#SVGID_20_)" fill="#FFFFFF" d="M285.807,78.887c-0.058-0.06-0.128-0.104-0.205-0.132L284,78.174
				l-5.786-5.784l0.936-0.937c0.22-0.219,0.22-0.572,0-0.791c-0.166-0.164-0.407-0.205-0.611-0.119l-8.752-8.75
				c-0.529-0.533-1.234-0.824-1.985-0.826h-0.003c-0.751,0-1.457,0.293-1.987,0.822c-0.531,0.531-0.824,1.237-0.823,1.989
				c0,0.751,0.293,1.457,0.823,1.987l8.753,8.752c-0.086,0.203-0.046,0.446,0.12,0.61c0.218,0.22,0.571,0.22,0.79,0l0.938-0.936
				l5.783,5.787l0.581,1.604c0.028,0.076,0.072,0.146,0.13,0.203l3.248,3.248c0.108,0.107,0.252,0.162,0.396,0.162
				c0.143,0,0.286-0.055,0.396-0.162l2.111-2.113c0.105-0.104,0.164-0.248,0.164-0.396c0-0.146-0.059-0.289-0.164-0.396
				L285.807,78.887z M277.029,71.995c-0.002,0-0.003,0.002-0.004,0.004l-1.703,1.703l-8.724-8.725
				c-0.319-0.32-0.496-0.745-0.497-1.198c0-0.452,0.177-0.878,0.497-1.198c0.32-0.317,0.745-0.494,1.197-0.494h0.002
				c0.452,0,0.877,0.178,1.195,0.496l8.725,8.726L277.029,71.995C277.031,71.993,277.03,71.993,277.029,71.995 M286.546,83.851
				l-2.766-2.766l-0.579-1.602c-0.028-0.076-0.073-0.146-0.133-0.205l-5.873-5.875l0.229-0.228l5.874,5.875
				c0.058,0.059,0.128,0.103,0.205,0.131l1.602,0.58l2.766,2.764L286.546,83.851z"/>
		</g>
	</g>
	<g>
		<g>
			<defs>
				<rect id="SVGID_21_" x="264.894" y="60.713" width="24.69" height="24.486"/>
			</defs>
			<clipPath id="SVGID_22_">
				<use xlink:href="#SVGID_21_"  overflow="visible"/>
			</clipPath>
			<path clip-path="url(#SVGID_22_)" fill="#FFFFFF" d="M268.188,63.381c-0.219-0.219-0.57-0.219-0.79,0
				c-0.218,0.219-0.218,0.57,0,0.789l7.706,7.705c0.109,0.109,0.252,0.164,0.396,0.164c0.144,0,0.286-0.055,0.396-0.164
				c0.218-0.217,0.218-0.57,0-0.789L268.188,63.381z"/>
		</g>
	</g>
</g>
<g>
	<g>
		<g>
			<defs>
				<rect id="SVGID_23_" x="163.638" y="32.677" width="23.535" height="20.601"/>
			</defs>
			<clipPath id="SVGID_24_">
				<use xlink:href="#SVGID_23_"  overflow="visible"/>
			</clipPath>
			<path clip-path="url(#SVGID_24_)" fill="#FFFFFF" d="M163.638,49V33.004c0.16-0.263,0.396-0.327,0.696-0.327
				c7.381,0.007,14.761,0.007,22.142,0c0.3,0,0.537,0.063,0.697,0.327V49c-0.133,0.274-0.355,0.359-0.654,0.358
				c-2.55-0.006-5.101-0.003-7.648-0.003c-0.099,0-0.195,0-0.323,0c0.2,1,0.395,1.969,0.589,2.942c0.103,0,0.172-0.006,0.239,0.002
				c0.253,0.025,0.438,0.228,0.443,0.473c0.006,0.246-0.178,0.461-0.424,0.496c-0.066,0.011-0.138,0.007-0.207,0.007
				c-2.128,0-4.259,0-6.386,0c-0.438,0-0.875,0.004-1.31-0.003c-0.295-0.005-0.501-0.218-0.5-0.491
				c0.002-0.268,0.194-0.463,0.479-0.482c0.063-0.004,0.121-0.006,0.204-0.01c0.194-0.972,0.386-1.938,0.584-2.934h-0.435
				c-2.514,0-5.023-0.003-7.536,0.003C163.994,49.361,163.77,49.277,163.638,49 M175.405,46.405c0.089,0.004,0.147,0.01,0.208,0.01
				c3.446,0,6.895-0.002,10.343,0.006c0.219,0,0.242-0.084,0.242-0.27c-0.005-4.083-0.003-8.166-0.005-12.249
				c0-0.074-0.008-0.147-0.012-0.229h-21.544v12.72h0.976v-3.892h9.792V46.405L175.405,46.405z M174.411,43.487h-7.813v2.916h7.813
				V43.487z M178.109,52.29c0-0.049,0.005-0.086-0.001-0.123c-0.175-0.869-0.354-1.735-0.521-2.605
				c-0.031-0.165-0.096-0.204-0.255-0.203c-1.285,0.007-2.57,0.004-3.856,0.006c-0.064,0-0.134,0.009-0.214,0.013
				c-0.193,0.974-0.385,1.937-0.581,2.914L178.109,52.29L178.109,52.29z M175.219,47.407H164.63v0.948h10.553
				C174.817,47.987,174.826,47.711,175.219,47.407 M186.184,47.409h-10.595c0.395,0.297,0.404,0.559,0.047,0.943h10.548V47.409z"/>
		</g>
	</g>
	<g>
		<g>
			<defs>
				<rect id="SVGID_25_" x="163.638" y="32.677" width="23.535" height="20.601"/>
			</defs>
			<clipPath id="SVGID_26_">
				<use xlink:href="#SVGID_25_"  overflow="visible"/>
			</clipPath>
			<path clip-path="url(#SVGID_26_)" fill="#FFFFFF" d="M185.193,41.499h-19.578v-6.836h19.578V41.499z M184.224,35.641h-17.627
				v4.873h17.627V35.641z"/>
		</g>
	</g>
	<g>
		<g>
			<defs>
				<rect id="SVGID_27_" x="163.638" y="32.677" width="23.535" height="20.601"/>
			</defs>
			<clipPath id="SVGID_28_">
				<use xlink:href="#SVGID_27_"  overflow="visible"/>
			</clipPath>
			<path clip-path="url(#SVGID_28_)" fill="#FFFFFF" d="M180.319,42.484c1.096,0,2.188,0,3.282,0.001
				c0.092,0,0.188,0.006,0.271,0.029c0.223,0.058,0.36,0.252,0.354,0.475c-0.005,0.214-0.141,0.4-0.354,0.454
				c-0.104,0.023-0.212,0.03-0.317,0.03c-2.166,0.001-4.332,0-6.497,0c-0.44,0-0.685-0.185-0.677-0.506
				c0.009-0.315,0.239-0.482,0.675-0.482C178.146,42.484,179.233,42.484,180.319,42.484"/>
		</g>
	</g>
	<g>
		<g>
			<defs>
				<rect id="SVGID_29_" x="163.638" y="32.677" width="23.535" height="20.601"/>
			</defs>
			<clipPath id="SVGID_30_">
				<use xlink:href="#SVGID_29_"  overflow="visible"/>
			</clipPath>
			<path clip-path="url(#SVGID_30_)" fill="#FFFFFF" d="M180.3,44.45c1.125,0.002,2.249,0,3.374,0.002
				c0.333,0,0.551,0.192,0.556,0.48c0.006,0.28-0.204,0.489-0.516,0.491c-0.719,0.006-1.439,0.004-2.157,0.004
				c-1.508,0-3.016,0-4.521,0c-0.063,0-0.123,0-0.186-0.004c-0.266-0.021-0.463-0.225-0.466-0.477
				c-0.003-0.265,0.197-0.486,0.472-0.494c0.392-0.012,0.781-0.004,1.171-0.004C178.785,44.45,179.543,44.45,180.3,44.45"/>
		</g>
	</g>
	<g>
		<g>
			<defs>
				<rect id="SVGID_31_" x="163.638" y="32.677" width="23.535" height="20.601"/>
			</defs>
			<clipPath id="SVGID_32_">
				<use xlink:href="#SVGID_31_"  overflow="visible"/>
			</clipPath>
			<path clip-path="url(#SVGID_32_)" fill="#FFFFFF" d="M175.407,38.567c-2.092,0-4.182,0-6.271,0
				c-0.356-0.001-0.568-0.161-0.591-0.444c-0.023-0.313,0.178-0.529,0.518-0.532c0.666-0.006,1.331-0.003,1.998-0.003
				c3.506,0,7.015,0,10.521,0.001c0.076,0,0.151-0.003,0.229,0.003c0.271,0.021,0.453,0.217,0.453,0.482
				c0.002,0.261-0.184,0.463-0.449,0.489c-0.053,0.004-0.105,0.002-0.16,0.002C179.572,38.566,177.49,38.566,175.407,38.567
				L175.407,38.567z"/>
		</g>
	</g>
</g>
<g>
	<g>
		<g>
			<defs>
				<rect id="SVGID_33_" x="195.714" y="33.337" width="23.479" height="22.014"/>
			</defs>
			<clipPath id="SVGID_34_">
				<use xlink:href="#SVGID_33_"  overflow="visible"/>
			</clipPath>
			<path clip-path="url(#SVGID_34_)" fill="#FFFFFF" d="M219.194,40.675h-0.724v-3.659h-13.22v7.31h-0.728c0-0.093,0-0.175,0-0.257
				c0-3.493,0-6.986-0.001-10.479c0-0.084-0.004-0.168-0.006-0.252h14.676L219.194,40.675L219.194,40.675z M218.456,34.08H205.26
				v2.18h13.196V34.08z"/>
		</g>
	</g>
	<g>
		<g>
			<defs>
				<rect id="SVGID_35_" x="195.714" y="33.337" width="23.479" height="22.014"/>
			</defs>
			<clipPath id="SVGID_36_">
				<use xlink:href="#SVGID_35_"  overflow="visible"/>
			</clipPath>
			<path clip-path="url(#SVGID_36_)" fill="#FFFFFF" d="M218.001,55.35c-0.099-0.112-0.222-0.211-0.287-0.341
				c-0.244-0.465-0.561-0.922-0.679-1.42c-0.116-0.491-0.035-1.031-0.035-1.553c-0.001-3.361,0-6.726,0-10.086
				c0-0.436,0.101-0.535,0.54-0.536c0.383,0,0.765,0.011,1.146-0.004c0.233-0.009,0.397,0.068,0.508,0.272v11.923
				c-0.237,0.469-0.473,0.938-0.722,1.401c-0.068,0.13-0.191,0.229-0.288,0.342L218.001,55.35L218.001,55.35z M218.063,54.12
				c0.032,0.004,0.063,0.006,0.097,0.01c0.103-0.289,0.293-0.575,0.296-0.869c0.021-2.899,0.012-5.803,0.012-8.705
				c0-0.065-0.009-0.133-0.013-0.203h-0.733v0.308c0,2.805,0.007,5.606-0.009,8.409C217.708,53.481,217.908,53.782,218.063,54.12
				 M217.732,43.604h0.716v-1.459h-0.716V43.604z"/>
		</g>
	</g>
	<g>
		<g>
			<defs>
				<rect id="SVGID_37_" x="195.714" y="33.337" width="23.479" height="22.014"/>
			</defs>
			<clipPath id="SVGID_38_">
				<use xlink:href="#SVGID_37_"  overflow="visible"/>
			</clipPath>
			<path clip-path="url(#SVGID_38_)" fill="#FFFFFF" d="M203.784,33.337c-0.002,1.375-0.006,2.75-0.009,4.126
				c0,0.082,0,0.164,0,0.27c-0.104,0-0.188,0-0.269,0c-2.507,0-5.014,0-7.521,0c-0.092,0-0.182,0.004-0.271,0.007v-4.403
				L203.784,33.337L203.784,33.337z M203.049,34.078h-6.597v2.917h6.597V34.078z"/>
		</g>
	</g>
	<g>
		<g>
			<defs>
				<rect id="SVGID_39_" x="195.714" y="33.337" width="23.479" height="22.014"/>
			</defs>
			<clipPath id="SVGID_40_">
				<use xlink:href="#SVGID_39_"  overflow="visible"/>
			</clipPath>
			<path clip-path="url(#SVGID_40_)" fill="#FFFFFF" d="M195.714,38.474c1.926,0.002,3.851,0.005,5.777,0.006
				c0.672,0,1.346,0,2.019,0c0.081,0,0.163,0,0.256,0v5.837h-0.699v-5.103h-6.608v6.599h0.705v0.729h-1.447L195.714,38.474
				L195.714,38.474z"/>
		</g>
	</g>
	<g>
		<g>
			<defs>
				<rect id="SVGID_41_" x="195.714" y="33.337" width="23.479" height="22.014"/>
			</defs>
			<clipPath id="SVGID_42_">
				<use xlink:href="#SVGID_41_"  overflow="visible"/>
			</clipPath>
			<polygon clip-path="url(#SVGID_42_)" fill="#FFFFFF" points="204.519,55.35 204.519,53.901 205.234,53.901 205.234,54.62 
				216.626,54.62 216.626,55.35 			"/>
		</g>
	</g>
	<g>
		<g>
			<defs>
				<rect id="SVGID_43_" x="195.714" y="33.337" width="23.479" height="22.014"/>
			</defs>
			<clipPath id="SVGID_44_">
				<use xlink:href="#SVGID_43_"  overflow="visible"/>
			</clipPath>
			<path clip-path="url(#SVGID_44_)" fill="#FFFFFF" d="M197.933,45.096h15.372v8.034h-15.372V45.096z M198.65,52.407h13.931v-6.365
				c-0.083,0.037-0.146,0.063-0.205,0.092c-2.15,1.076-4.305,2.146-6.449,3.232c-0.219,0.11-0.384,0.115-0.607,0.004
				c-2.139-1.08-4.281-2.147-6.427-3.224c-0.072-0.035-0.146-0.065-0.24-0.108L198.65,52.407L198.65,52.407z M199.858,45.818
				c0.093,0.056,0.122,0.076,0.155,0.093c1.822,0.912,3.646,1.825,5.469,2.729c0.077,0.039,0.209,0.031,0.289-0.008
				c1.807-0.896,3.605-1.797,5.407-2.697c0.05-0.024,0.097-0.059,0.195-0.116L199.858,45.818L199.858,45.818z"/>
		</g>
	</g>
	<g>
		<g>
			<defs>
				<rect id="SVGID_45_" x="195.714" y="33.337" width="23.479" height="22.014"/>
			</defs>
			<clipPath id="SVGID_46_">
				<use xlink:href="#SVGID_45_"  overflow="visible"/>
			</clipPath>
			<rect x="197.199" y="39.96" clip-path="url(#SVGID_46_)" fill="#FFFFFF" width="5.099" height="0.696"/>
		</g>
	</g>
	<g>
		<g>
			<defs>
				<rect id="SVGID_47_" x="195.714" y="33.337" width="23.479" height="22.014"/>
			</defs>
			<clipPath id="SVGID_48_">
				<use xlink:href="#SVGID_47_"  overflow="visible"/>
			</clipPath>
			<rect x="210.044" y="38.495" clip-path="url(#SVGID_48_)" fill="#FFFFFF" width="0.688" height="0.696"/>
		</g>
	</g>
	<g>
		<g>
			<defs>
				<rect id="SVGID_49_" x="195.714" y="33.337" width="23.479" height="22.014"/>
			</defs>
			<clipPath id="SVGID_50_">
				<use xlink:href="#SVGID_49_"  overflow="visible"/>
			</clipPath>
			<rect x="211.508" y="38.493" clip-path="url(#SVGID_50_)" fill="#FFFFFF" width="0.695" height="0.696"/>
		</g>
	</g>
	<g>
		<g>
			<defs>
				<rect id="SVGID_51_" x="195.714" y="33.337" width="23.479" height="22.014"/>
			</defs>
			<clipPath id="SVGID_52_">
				<use xlink:href="#SVGID_51_"  overflow="visible"/>
			</clipPath>
			<rect x="212.973" y="38.498" clip-path="url(#SVGID_52_)" fill="#FFFFFF" width="0.693" height="0.686"/>
		</g>
	</g>
	<g>
		<g>
			<defs>
				<rect id="SVGID_53_" x="195.714" y="33.337" width="23.479" height="22.014"/>
			</defs>
			<clipPath id="SVGID_54_">
				<use xlink:href="#SVGID_53_"  overflow="visible"/>
			</clipPath>
			<rect x="206.005" y="34.823" clip-path="url(#SVGID_54_)" fill="#FFFFFF" width="11.702" height="0.697"/>
		</g>
	</g>
	<g>
		<g>
			<defs>
				<rect id="SVGID_55_" x="195.714" y="33.337" width="23.479" height="22.014"/>
			</defs>
			<clipPath id="SVGID_56_">
				<use xlink:href="#SVGID_55_"  overflow="visible"/>
			</clipPath>
			<rect x="197.94" y="35.197" clip-path="url(#SVGID_56_)" fill="#FFFFFF" width="0.685" height="0.691"/>
		</g>
	</g>
	<g>
		<g>
			<defs>
				<rect id="SVGID_57_" x="195.714" y="33.337" width="23.479" height="22.014"/>
			</defs>
			<clipPath id="SVGID_58_">
				<use xlink:href="#SVGID_57_"  overflow="visible"/>
			</clipPath>
			<rect x="199.401" y="35.192" clip-path="url(#SVGID_58_)" fill="#FFFFFF" width="0.694" height="0.696"/>
		</g>
	</g>
	<g>
		<g>
			<defs>
				<rect id="SVGID_59_" x="195.714" y="33.337" width="23.479" height="22.014"/>
			</defs>
			<clipPath id="SVGID_60_">
				<use xlink:href="#SVGID_59_"  overflow="visible"/>
			</clipPath>
			<rect x="200.871" y="35.188" clip-path="url(#SVGID_60_)" fill="#FFFFFF" width="0.689" height="0.696"/>
		</g>
	</g>
</g>
<g>
	<g>
		<g>
			<defs>
				<rect id="SVGID_61_" x="266.953" y="32.9" width="18.222" height="18.222"/>
			</defs>
			<clipPath id="SVGID_62_">
				<use xlink:href="#SVGID_61_"  overflow="visible"/>
			</clipPath>
			<path clip-path="url(#SVGID_62_)" fill="none" stroke="#FFFFFF" stroke-miterlimit="10" d="M284.852,48.696
				c0,1.34-1.087,2.426-2.424,2.426h-12.727c-1.341,0-2.427-1.086-2.427-2.426V35.969c0-1.338,1.086-2.425,2.427-2.425h12.727
				c1.337,0,2.424,1.086,2.424,2.425V48.696z"/>
		</g>
	</g>
	<g>
		<g>
			<defs>
				<rect id="SVGID_63_" x="266.953" y="32.9" width="18.222" height="18.222"/>
			</defs>
			<clipPath id="SVGID_64_">
				<use xlink:href="#SVGID_63_"  overflow="visible"/>
			</clipPath>
			<circle clip-path="url(#SVGID_64_)" fill="none" stroke="#FFFFFF" stroke-miterlimit="10" cx="273.371" cy="38.924" r="2.954"/>
		</g>
	</g>
	<g>
		<g>
			<defs>
				<rect id="SVGID_65_" x="266.953" y="32.9" width="18.222" height="18.222"/>
			</defs>
			<clipPath id="SVGID_66_">
				<use xlink:href="#SVGID_65_"  overflow="visible"/>
			</clipPath>
			
				<rect x="275.202" y="41.243" clip-path="url(#SVGID_66_)" fill="none" stroke="#FFFFFF" stroke-miterlimit="10" width="6.526" height="6.526"/>
		</g>
	</g>
</g>
<g>
	<g>
		<g>
			<defs>
				<rect id="SVGID_67_" x="225.59" y="32.9" width="26.438" height="26.45"/>
			</defs>
			<clipPath id="SVGID_68_">
				<use xlink:href="#SVGID_67_"  overflow="visible"/>
			</clipPath>
			<path clip-path="url(#SVGID_68_)" fill="#FFFFFF" d="M232.691,51.782c-1.344,0-2.608,0-3.875,0c-0.85,0-1.702-0.014-2.552,0.004
				c-0.485,0.012-0.676-0.17-0.675-0.674c0.012-5.154,0.012-10.312,0.001-15.467c0-0.502,0.203-0.667,0.686-0.664
				c3.229,0.01,6.458,0.004,9.688,0.004c0.17,0,0.34,0,0.573,0c0-0.523,0.011-1.004-0.002-1.484
				c-0.013-0.412,0.158-0.604,0.585-0.601c1.127,0.01,2.256,0.01,3.384,0c0.423-0.004,0.6,0.185,0.591,0.6
				c-0.014,0.467-0.005,0.936-0.005,1.487c0.224,0,0.424,0,0.622,0c3.179,0,6.354,0,9.531,0.001c0.721,0,0.784,0.062,0.784,0.759
				c0.002,5.084,0,10.171,0,15.259c0,0.705-0.063,0.773-0.77,0.775c-1.855,0.002-3.714,0-5.572,0.002c-0.223,0-0.447,0-0.734,0
				c0.043,0.229,0.063,0.408,0.107,0.586c0.501,2.016,1.003,4.033,1.507,6.051c0.193,0.783,0.089,0.914-0.73,0.916
				c-0.624,0-1.251-0.035-1.873,0.008c-0.522,0.039-0.737-0.172-0.854-0.661c-0.504-2.105-1.037-4.204-1.561-6.308
				c-0.168-0.678-0.177-0.678-0.992-0.517c0,0.484,0,0.982,0,1.48c-0.003,0.904-0.009,1.807,0,2.709
				c0.004,0.404-0.143,0.613-0.578,0.604c-0.782-0.019-1.563-0.017-2.344,0c-0.431,0.008-0.584-0.183-0.579-0.6
				c0.014-1.23,0.003-2.466,0.003-3.697c0-0.168,0-0.337,0-0.496c-0.793-0.167-0.813-0.154-0.979,0.518
				c-0.523,2.104-1.06,4.203-1.562,6.309c-0.117,0.494-0.336,0.697-0.855,0.658c-0.62-0.043-1.247-0.01-1.874-0.01
				c-0.842,0-0.927-0.121-0.719-0.961c0.518-2.067,1.027-4.138,1.538-6.205C232.632,52.071,232.65,51.972,232.691,51.782
				 M226.432,50.973h24.758V35.809h-24.758V50.973z M242.238,51.825c0.542,2.193,1.063,4.309,1.601,6.418
				c0.028,0.115,0.186,0.271,0.291,0.277c0.524,0.026,1.057,0.012,1.648,0.012c-0.554-2.215-1.083-4.346-1.628-6.471
				c-0.025-0.103-0.211-0.222-0.324-0.228C243.326,51.81,242.824,51.825,242.238,51.825 M235.393,51.821
				c-0.493,0-0.909,0.03-1.316-0.008c-0.426-0.039-0.604,0.104-0.701,0.528c-0.294,1.316-0.638,2.623-0.959,3.934
				c-0.185,0.73-0.362,1.468-0.554,2.234h1.866C234.275,56.312,234.821,54.116,235.393,51.821 M237.891,55.823h1.82v-3.975h-1.82
				V55.823z M240.259,33.742h-2.887v1.214h2.887V33.742z"/>
		</g>
	</g>
	<g>
		<g>
			<defs>
				<rect id="SVGID_69_" x="225.59" y="32.9" width="26.438" height="26.45"/>
			</defs>
			<clipPath id="SVGID_70_">
				<use xlink:href="#SVGID_69_"  overflow="visible"/>
			</clipPath>
			<path clip-path="url(#SVGID_70_)" fill="#FFFFFF" d="M233.284,43.729c1.212,0,2.335,0.018,3.458-0.011
				c0.442-0.01,0.562,0.123,0.523,0.568c-0.183,2.196-2.092,3.875-4.367,3.803c-2.141-0.067-3.938-1.896-3.979-4.043
				c-0.042-2.282,1.651-4.165,3.856-4.311c0.396-0.026,0.52,0.088,0.513,0.48C233.271,41.359,233.284,42.502,233.284,43.729
				 M232.905,40.219c-1.229-0.129-2.674,0.838-3.269,2.144c-0.678,1.484-0.337,3.205,0.86,4.347
				c1.163,1.107,2.963,1.348,4.396,0.582c1.221-0.65,2.079-2.061,1.897-3.168c-1.015,0-2.036,0.002-3.059,0
				c-0.888-0.002-0.826,0.102-0.826-0.853C232.905,42.251,232.905,41.231,232.905,40.219"/>
		</g>
	</g>
	<g>
		<g>
			<defs>
				<rect id="SVGID_71_" x="225.59" y="32.9" width="26.438" height="26.45"/>
			</defs>
			<clipPath id="SVGID_72_">
				<use xlink:href="#SVGID_71_"  overflow="visible"/>
			</clipPath>
			<path clip-path="url(#SVGID_72_)" fill="#FFFFFF" d="M237.052,42.127c-0.555-0.001-1.109-0.013-1.663,0.004
				c-0.328,0.011-0.476-0.095-0.474-0.44c0.01-1.181,0.008-2.359,0-3.538c-0.001-0.324,0.144-0.408,0.45-0.398
				c2.033,0.067,3.862,1.895,3.932,3.938c0.009,0.312-0.112,0.444-0.424,0.438C238.267,42.123,237.659,42.128,237.052,42.127
				 M235.288,38.218c0,1.096-0.01,2.198,0.017,3.301c0.002,0.079,0.239,0.215,0.371,0.219c0.638,0.022,1.28,0.011,1.921,0.011
				c0.421,0,0.842,0,1.265,0C238.773,39.768,237.021,38.048,235.288,38.218"/>
		</g>
	</g>
	<g>
		<g>
			<defs>
				<rect id="SVGID_73_" x="225.59" y="32.9" width="26.438" height="26.45"/>
			</defs>
			<clipPath id="SVGID_74_">
				<use xlink:href="#SVGID_73_"  overflow="visible"/>
			</clipPath>
			<path clip-path="url(#SVGID_74_)" fill="#FFFFFF" d="M245.173,49.793c-0.063-0.121-0.171-0.242-0.172-0.363
				c-0.015-1.646-0.015-3.29-0.006-4.936c0.001-0.115,0.081-0.229,0.136-0.379C245.397,44.427,245.496,48.711,245.173,49.793"/>
		</g>
	</g>
	<g>
		<g>
			<defs>
				<rect id="SVGID_75_" x="225.59" y="32.9" width="26.438" height="26.45"/>
			</defs>
			<clipPath id="SVGID_76_">
				<use xlink:href="#SVGID_75_"  overflow="visible"/>
			</clipPath>
			<path clip-path="url(#SVGID_76_)" fill="#FFFFFF" d="M240.592,49.738c0-0.563,0-1.13,0-1.694c0-0.643-0.007-1.283,0.008-1.926
				c0.001-0.095,0.096-0.188,0.148-0.285c0.069,0.08,0.206,0.158,0.207,0.238c0.011,1.161,0.01,2.323-0.003,3.483
				c-0.001,0.08-0.124,0.158-0.189,0.24C240.705,49.777,240.647,49.756,240.592,49.738"/>
		</g>
	</g>
	<g>
		<g>
			<defs>
				<rect id="SVGID_77_" x="225.59" y="32.9" width="26.438" height="26.45"/>
			</defs>
			<clipPath id="SVGID_78_">
				<use xlink:href="#SVGID_77_"  overflow="visible"/>
			</clipPath>
			<path clip-path="url(#SVGID_78_)" fill="#FFFFFF" d="M243.173,48.342c0,0.384,0.01,0.765-0.009,1.145
				c-0.004,0.093-0.109,0.183-0.166,0.271c-0.07-0.096-0.197-0.188-0.198-0.284c-0.017-0.778-0.016-1.56-0.003-2.341
				c0.003-0.09,0.104-0.18,0.165-0.271c0.067,0.097,0.192,0.188,0.2,0.286C243.185,47.547,243.173,47.946,243.173,48.342"/>
		</g>
	</g>
	<g>
		<g>
			<defs>
				<rect id="SVGID_79_" x="225.59" y="32.9" width="26.438" height="26.45"/>
			</defs>
			<clipPath id="SVGID_80_">
				<use xlink:href="#SVGID_79_"  overflow="visible"/>
			</clipPath>
			<path clip-path="url(#SVGID_80_)" fill="#FFFFFF" d="M247.416,46.034c0.231,0.358,0.227,3.383-0.008,3.727
				C247.115,49.417,247.122,46.342,247.416,46.034"/>
		</g>
	</g>
	<g>
		<g>
			<defs>
				<rect id="SVGID_81_" x="225.59" y="32.9" width="26.438" height="26.45"/>
			</defs>
			<clipPath id="SVGID_82_">
				<use xlink:href="#SVGID_81_"  overflow="visible"/>
			</clipPath>
			<path clip-path="url(#SVGID_82_)" fill="#FFFFFF" d="M247.251,37.773c-0.361,0-0.727,0.013-1.086-0.009
				c-0.084-0.005-0.16-0.124-0.241-0.189c0.074-0.057,0.149-0.163,0.225-0.166c0.74-0.011,1.483-0.011,2.226,0.001
				c0.072,0.001,0.145,0.112,0.216,0.172c-0.084,0.064-0.164,0.177-0.25,0.183C247.977,37.786,247.614,37.773,247.251,37.773"/>
		</g>
	</g>
	<g>
		<g>
			<defs>
				<rect id="SVGID_83_" x="225.59" y="32.9" width="26.438" height="26.45"/>
			</defs>
			<clipPath id="SVGID_84_">
				<use xlink:href="#SVGID_83_"  overflow="visible"/>
			</clipPath>
			<path clip-path="url(#SVGID_84_)" fill="#FFFFFF" d="M248.622,42.267c-0.129,0.057-0.259,0.159-0.39,0.164
				c-0.652,0.017-1.31,0.018-1.964-0.001c-0.118-0.005-0.229-0.136-0.347-0.205c0.109-0.056,0.22-0.154,0.33-0.155
				c0.707-0.013,1.414-0.006,2.122-0.002c0.063,0,0.127,0.03,0.189,0.047C248.585,42.165,248.604,42.217,248.622,42.267"/>
		</g>
	</g>
	<g>
		<g>
			<defs>
				<rect id="SVGID_85_" x="225.59" y="32.9" width="26.438" height="26.45"/>
			</defs>
			<clipPath id="SVGID_86_">
				<use xlink:href="#SVGID_85_"  overflow="visible"/>
			</clipPath>
			<path clip-path="url(#SVGID_86_)" fill="#FFFFFF" d="M245.816,39.788c0.995-0.098,1.88-0.097,2.854-0.009
				C248.317,40.172,246.244,40.186,245.816,39.788"/>
		</g>
	</g>
</g>
<path fill="#FFFFFF" d="M25.8,8.606c0,4.744,0,9.386,0,14.131c-0.233,0.806-0.813,1.413-1.743,1.614c-7.438,0-14.875,0-22.43,0
	c-0.581-0.201-1.046-0.405-1.279-0.81C0.233,23.241,0.116,23.038,0,22.737c0-4.745,0-9.387,0-14.131c0,0,0,0,0-0.102
	C0.465,7.294,1.046,6.991,2.44,6.991c1.627,0,3.255,0,4.767,0c0.115,0,0.232,0,0.464,0c0-0.504,0-0.908,0-1.312
	c0-0.707,0.465-1.212,1.162-1.515c0.231-0.101,0.35-0.101,0.581-0.202c2.441,0,4.766,0,7.206,0c1.511,0.403,1.859,1.211,1.742,2.222
	c0,0.303,0,0.504,0,0.807c0.233,0,0.35,0,0.467,0c1.511,0,3.138,0,4.647,0c1.162,0,1.859,0.505,2.208,1.413
	C25.683,8.505,25.8,8.505,25.8,8.606z M1.511,15.671c0,0.102,0,0.102,0,0.201c0,2.221,0,4.341,0,6.561
	c0,0.506,0.232,0.708,0.813,0.708c6.973,0,14.062,0,21.034,0c0.698,0,0.931-0.202,0.931-0.809c0-2.119,0-4.239,0-6.358
	c0-0.102,0-0.201,0-0.303c-2.905,0-5.812,0-8.602,0c0,0.102,0,0.102,0,0.201c-0.114,0.81-0.695,1.413-1.743,1.514
	c-0.582,0-1.277,0-1.858,0c-0.814-0.101-1.396-0.402-1.627-1.108c-0.116-0.202-0.116-0.404-0.116-0.605
	C7.322,15.671,4.416,15.671,1.511,15.671z M10.227,14.663c0-0.102,0-0.203,0-0.304c0.117-0.809,0.931-1.413,1.86-1.413
	c0.581,0,1.045,0,1.626,0c0.813,0,1.511,0.504,1.744,1.212c0,0.201,0,0.302,0.117,0.505c2.904,0,5.693,0,8.6,0
	c0-0.102,0-0.102,0-0.203c0-1.815,0-3.633,0-5.45c0-0.505-0.233-0.707-0.814-0.707c-4.299,0-8.716,0-13.016,0
	c-0.931,0-1.86,0-2.79,0c-1.859,0-3.718,0-5.462,0c-0.348,0-0.581,0.102-0.581,0.404c0,0.102,0,0.202,0,0.404
	c0,1.715,0,3.532,0,5.248c0,0.101,0,0.202,0,0.304C4.416,14.663,7.322,14.663,10.227,14.663z M9.182,6.991c2.555,0,5.112,0,7.67,0
	V6.889c0-0.303,0-0.706,0-1.01c0-0.505-0.232-0.604-0.813-0.604c-0.582,0-1.278,0-1.859,0c-1.395,0-2.906,0-4.3,0
	c-0.466,0-0.697,0.203-0.697,0.505C9.182,6.083,9.182,6.486,9.182,6.991z M11.389,15.671c0,0.505,0.232,0.807,0.698,0.807
	c0.581,0,1.162,0,1.743,0c0.464,0,0.813-0.402,0.696-0.807C13.481,15.671,12.436,15.671,11.389,15.671z M14.527,14.663
	c0-0.404-0.232-0.708-0.696-0.708c-0.581,0-1.162,0-1.743,0c-0.466,0-0.698,0.304-0.698,0.708
	C12.436,14.663,13.481,14.663,14.527,14.663z"/>
<g>
	<path fill="#FFFFFF" d="M103.4,19.9c0.101-0.4,0.101-0.9,0.2-1.3c0.602-2.4,3.102-4.5,5.602-4.601c1.5,0,2.898-0.101,4.398,0.101
		c3.2,0.5,5.102,3.198,5.2,5.3c0,0.101,0,0.101,0.1,0.2c0,1.5,0,3.1,0,4.6c-5.198,0-10.3,0-15.5,0
		C103.4,22.7,103.4,21.299,103.4,19.9z M111.8,23c0.1,0,0.1,0,0.2,0c1.8,0,3.6,0,5.5,0c0.2,0,0.3-0.101,0.3-0.301c0-0.9,0-1.9,0-2.8
		c-0.1-2.7-1.8-4.5-4.4-4.899c-0.198,0.899-0.8,1.299-1.698,1.399c0,0.2,0,0.3,0.1,0.398c0.3,1.4,0.6,2.9,0.9,4.302
		c0.1,0.3,0,0.6-0.2,0.899C112.3,22.299,112.1,22.6,111.8,23z M110.5,16.4c-0.8-0.102-1.4-0.5-1.7-1.3C108.8,15,108.6,15,108.5,15
		c-0.4,0.101-0.7,0.199-1,0.299c-1.9,0.9-3,2.302-3,4.4c0,0.9,0,1.801,0,2.7c0,0.5,0,0.5,0.5,0.5c1.7,0,3.3,0,5,0
		c0.1,0,0.2,0,0.398,0c-0.3-0.399-0.5-0.8-0.698-1.2C109.6,21.5,109.6,21.2,109.6,21c0.102-0.5,0.2-1.101,0.3-1.601
		C110.1,18.5,110.3,17.4,110.5,16.4z M111.1,19.1L111.1,19.1c-0.1,0.1-0.1,0.1-0.1,0.198c-0.102,0.5-0.2,1.102-0.4,1.602
		c-0.2,0.601,0.2,0.898,0.5,1.398c0.2-0.398,0.5-0.698,0.4-1C111.5,20.6,111.3,19.799,111.1,19.1z M110,14.799
		c0,0.5,0.1,0.5,0.5,0.5c0.5,0,0.898,0,1.398,0c0.4,0,0.5-0.1,0.4-0.5C111.5,14.799,110.7,14.799,110,14.799z"/>
	<path fill="#FFFFFF" d="M111.6,3.7c0.2,0,0.4,0.1,0.602,0.1c2.1,0.5,3.698,2.5,3.6,4.701c-0.1,2.299-1.8,4.199-4,4.5
		c-2.6,0.299-5-1.399-5.3-4c-0.4-2.601,1.398-4.899,4-5.301c0.1,0,0.1,0,0.2-0.1C110.9,3.7,111.3,3.7,111.6,3.7z M114.8,8.4
		c0-2-1.6-3.7-3.7-3.7c-2,0-3.7,1.6-3.7,3.7c0,2,1.602,3.7,3.602,3.7C113.1,12.1,114.8,10.5,114.8,8.4z"/>
</g>
<path fill="#FFFFFF" stroke="#FFFFFF" stroke-width="0.5" stroke-miterlimit="10" d="M144.8,9.99c0.1-0.199,0.1-0.399,0.2-0.6
	c0.398-0.9,1.2-1.5,2.2-1.601c0.398,0,0.898,0,1.3,0c1,0,1.8,0.601,2.2,1.5c0.1,0.199,0.198,0.3,0.398,0.3c2.602,0,5.3,0,7.9,0
	c0.2,0,0.3-0.101,0.398-0.3c0.5-0.899,1.2-1.399,2.2-1.399c0.4,0,0.8,0,1.2,0c1.2,0,2.2,0.801,2.5,2c0,0,0,0.1,0.1,0.1
	c0,0.701,0,1.4,0,2.101c-0.898,0-1.8,0-2.698,0c0,1.5,0,3.102,0,4.602c1.1,0.5,1.5,1.199,1.3,2.1c-0.2,0.8-0.9,1.4-1.8,1.4
	c-0.802,0-1.5-0.602-1.7-1.4c-0.102-0.801,0.2-1.7,1.3-2.1c0-1.5,0-3,0-4.602c-0.1,0-0.3,0-0.5,0c-0.6,0-1.2,0-1.8,0
	c-0.4,0-0.4-0.101-0.4-0.398c0-0.4,0-0.9,0-1.301c-2.8,0-5.5,0-8.3,0c0,0.6,0,1.1,0,1.699c-0.9,0-1.8,0-2.7,0c0,0.102,0,0.2,0,0.399
	c0,1.301,0,2.601,0,3.9c0,0.199,0.102,0.301,0.3,0.399c0.802,0.3,1.2,1.101,1.102,2c-0.102,0.8-0.9,1.4-1.7,1.4s-1.6-0.602-1.7-1.4
	c-0.2-0.899,0.3-1.7,1.102-2c0.1-0.1,0.3-0.1,0.3-0.301c0-1.399,0-2.799,0-4.299v-0.102c-0.8,0-1.602,0-2.3,0
	c-0.102,0-0.2-0.101-0.4-0.101C144.8,11.191,144.8,10.591,144.8,9.99z M150.1,11.191c0-0.301,0-0.701,0-1c0-0.9-0.6-1.602-1.5-1.701
	c-0.5-0.1-1,0-1.6,0c-0.7,0.101-1.2,0.5-1.4,1.101c-0.1,0.5-0.1,1-0.1,1.5C147.1,11.191,148.6,11.191,150.1,11.191z M164.6,11.191
	c0-0.4,0-0.701,0-1c0-0.9-0.6-1.602-1.6-1.701c-0.5-0.1-1,0-1.5,0c-0.7,0-1.3,0.601-1.4,1.301c-0.1,0.4-0.1,0.9-0.1,1.4
	C161.6,11.191,163.1,11.191,164.6,11.191z M147.9,19.391c0.602,0,1-0.5,1-1c0-0.601-0.5-1-1.1-1s-1,0.5-1,1.1
	C146.8,18.891,147.3,19.391,147.9,19.391z M162.3,17.291c-0.6,0-1,0.5-1,1c0,0.601,0.4,1,1,1.101c0.6,0,1.1-0.5,1.1-1
	C163.3,17.791,162.9,17.291,162.3,17.291z"/>
<path fill="#FFFFFF" stroke="#FFFFFF" stroke-width="0.5" stroke-miterlimit="10" d="M144.8,22.391c0.1-0.199,0.1-0.4,0.2-0.601
	c0.398-0.899,1.2-1.399,2.2-1.5c0.398,0,0.8,0,1.3,0c1.2,0,2.1,0.699,2.398,1.8c0.102,0.2,0.2,0.301,0.4,0.301c2.6,0,5.2,0,7.8,0
	c0.2,0,0.3-0.101,0.3-0.301c0.302-1.101,1.2-1.8,2.4-1.8c0.4,0,0.8,0,1.2,0c1.2,0,2.2,0.8,2.5,2c0,0,0,0.101,0.1,0.101
	c0,0.699,0,1.399,0,2.1c-2,0-4.1,0-6.1,0c0-0.5-0.102-0.899-0.102-1.399c-2.8,0-5.5,0-8.3,0c0,0.5,0,0.899,0,1.399
	c-2.1,0-4.1,0-6.2,0C144.8,23.691,144.8,23.091,144.8,22.391z M150.1,23.591c0-0.3,0-0.601,0-0.898c0-0.9-0.6-1.602-1.6-1.701
	c-0.5-0.1-1,0-1.5,0c-0.7,0-1.3,0.601-1.4,1.301c-0.1,0.4,0,0.9,0,1.4C147.1,23.591,148.6,23.591,150.1,23.591z M160,23.591
	c1.5,0,3,0,4.6,0c0-0.3,0-0.699,0-1c0-0.898-0.6-1.601-1.5-1.699c-0.5-0.101-1,0-1.6,0c-0.7,0.1-1.4,0.699-1.5,1.399
	C160,22.791,160,23.191,160,23.591z"/>
<path fill="#FFFFFF" stroke="#FFFFFF" stroke-width="0.5" stroke-miterlimit="10" d="M148.2,4.091c0.1,0,0.198,0.102,0.198,0.102
	c0.802,0.299,1.302,1.1,1.2,2c-0.1,0.799-0.898,1.398-1.8,1.398c-0.8,0-1.6-0.601-1.7-1.398c-0.1-0.9,0.4-1.701,1.2-2
	c0.1,0,0.1-0.102,0.2-0.102C147.7,4.091,147.9,4.091,148.2,4.091z M147.8,6.891c0.6,0,1-0.4,1-1c0-0.601-0.4-1-1-1.101
	c-0.6,0-1.1,0.5-1.1,1C146.8,6.49,147.3,6.891,147.8,6.891z"/>
<path fill="#FFFFFF" stroke="#FFFFFF" stroke-width="0.5" stroke-miterlimit="10" d="M162.6,4.091c0.102,0,0.102,0.102,0.2,0.102
	c0.9,0.299,1.3,1.1,1.2,2c-0.102,0.799-0.9,1.398-1.7,1.398c-0.9,0-1.6-0.601-1.8-1.398c-0.102-0.9,0.3-1.701,1.2-2
	c0.1,0,0.198-0.102,0.198-0.102C162.2,4.091,162.4,4.091,162.6,4.091z M162.3,6.891c0.6,0,1-0.5,1-1c0-0.601-0.5-1.101-1.1-1
	c-0.602,0-1,0.5-1,1C161.3,6.49,161.7,6.891,162.3,6.891z"/>
<path fill="#FFFFFF" stroke="#FFFFFF" stroke-width="0.25" stroke-miterlimit="10" d="M318.601,83.75c-0.3,0-0.601,0-0.9,0
	c0,0,0,0-0.1,0c-1.101-0.199-1.9-0.898-2.3-2c0-0.1-0.2-0.199-0.301-0.199c-3.5,0-6.899,0-10.399,0c-0.2,0-0.3,0.101-0.3,0.199
	c-0.2,0.602-0.601,1.102-1,1.301c-0.4,0.199-0.9,0.4-1.3,0.699c-0.301,0-0.602,0-0.9,0c-0.1,0-0.2-0.1-0.3-0.1c-1-0.3-1.7-1-2-1.9
	c-0.101-0.199-0.101-0.299-0.101-0.6c0-0.3,0-0.601,0-0.9c0,0,0-0.1,0.101-0.1c0.2-1.101,0.899-1.9,1.899-2.3
	c0.101,0,0.199-0.2,0.199-0.301c0-3.301,0-6.699,0-10.1c0-0.201-0.1-0.301-0.199-0.4c-0.699-0.199-1.199-0.699-1.601-1.301
	c-0.1-0.299-0.2-0.699-0.3-1c0-0.299,0-0.6,0-0.898c0-0.102,0.1-0.2,0.1-0.301c0.301-1,0.9-1.801,1.9-2.1
	c0.1-0.101,0.3-0.101,0.399-0.101c0.301,0,0.601,0,0.899,0c0,0,0,0,0.101,0c1.101,0.199,1.899,0.898,2.301,2
	c0,0.101,0.199,0.199,0.3,0.199c3.5,0,6.898,0,10.398,0c0.2,0,0.3-0.1,0.4-0.199c0.3-0.399,0.6-1,1-1.301
	c0.3-0.301,0.898-0.399,1.3-0.699c0.3,0,0.6,0,0.9,0c0.1,0,0.198,0.101,0.3,0.101c1,0.299,1.7,1,2,1.899
	c0.1,0.199,0.1,0.3,0.1,0.601c0,0.299,0,0.6,0,0.899l-0.1,0.101c-0.2,1.1-0.9,1.799-1.9,2.199c-0.1,0-0.2,0.2-0.2,0.301
	c0,3.299,0,6.699,0,10.1c0,0.199,0.102,0.301,0.301,0.4c0.699,0.199,1.199,0.699,1.601,1.299c0.101,0.301,0.2,0.701,0.3,1
	c0,0.301,0,0.602,0,0.9c0,0.1-0.1,0.2-0.1,0.301c-0.301,1-0.9,1.799-1.9,2.1C319,83.55,318.699,83.75,318.601,83.75z M310,80.05
	L310,80.05c1.699,0,3.5,0,5.101,0c0.2,0,0.3-0.1,0.399-0.301c0.301-0.799,0.899-1.398,1.699-1.799c0.2-0.101,0.301-0.201,0.301-0.4
	c0-3.301,0-6.699,0-10c0-0.199,0-0.301-0.301-0.399c-0.898-0.3-1.398-0.9-1.699-1.699c-0.101-0.201-0.199-0.301-0.399-0.301
	c-3.5,0-6.8,0-10.2,0c-0.199,0-0.3,0.1-0.398,0.301c-0.301,0.899-0.9,1.399-1.801,1.799c-0.199,0.102-0.301,0.201-0.301,0.4
	c0,3.301,0,6.7,0,10c0,0.2,0,0.301,0.2,0.399c0.9,0.301,1.4,0.9,1.8,1.801c0.102,0.199,0.2,0.3,0.4,0.3
	C306.501,80.05,308.199,80.05,310,80.05z M303.401,64.35c0-1-0.8-1.801-1.699-1.801c-1,0-1.801,0.801-1.801,1.801
	s0.801,1.8,1.801,1.8C302.601,66.15,303.401,65.35,303.401,64.35z M318.199,66.15c1,0,1.801-0.8,1.801-1.8s-0.801-1.801-1.801-1.801
	s-1.8,0.801-1.8,1.801S317.199,66.15,318.199,66.15z M316.401,80.85c0,1,0.8,1.8,1.8,1.8c0.9,0,1.8-0.8,1.8-1.8
	s-0.8-1.801-1.8-1.801C317.199,78.951,316.401,79.85,316.401,80.85z M303.401,80.85c0-1-0.8-1.801-1.8-1.801s-1.8,0.801-1.8,1.801
	s0.8,1.8,1.8,1.8C302.601,82.55,303.401,81.85,303.401,80.85z"/>
<g>
	<path fill="#3D3C40" stroke="#3D3C40" stroke-miterlimit="10" d="M225.237,97.2c-0.798-4.3-4.298-7.3-8.298-7.3
		c-0.601,0-1.101,0.101-1.702,0.2c-2.197,0.399-4.099,1.8-5.397,3.8s-1.7,4.5-1.3,6.898c0.3,1.602,0.898,3.102,1.5,4.4
		c1.1,2.5,2.5,5.1,4.5,8.1c0.398,0.603,0.898,1.302,1.3,1.9l0,0l0.101,0.1l0,0c0.199,0.302,0.602,0.5,0.899,0.5
		c0.2,0,0.601-0.1,1-0.6c1.3-1.9,2.5-3.699,3.5-5.5c1.2-2.1,2.7-4.8,3.601-7.9C225.439,100.299,225.538,98.7,225.237,97.2z
		 M223.737,101.5c-0.897,2.899-2.299,5.601-3.397,7.601c-1,1.8-2.2,3.5-3.399,5.399l0,0v-0.1l0,0l0,0
		c-0.398-0.603-0.898-1.301-1.301-1.9c-1.9-2.899-3.3-5.399-4.4-7.801c-0.5-1.199-1.1-2.6-1.397-4.1c-0.399-2.101,0-4.2,1.101-5.9
		c1.102-1.699,2.699-2.9,4.602-3.3c0.5-0.102,1-0.102,1.5-0.102c3.5,0,6.398,2.602,7.1,6.302
		C224.237,98.799,224.138,100.1,223.737,101.5z M216.838,94.7c-2.2,0-3.899,1.9-3.899,4.2s1.799,4.2,3.899,4.2
		c2.1,0,3.897-1.9,3.897-4.2S219.038,94.7,216.838,94.7z M216.838,101.799c-1.5,0-2.7-1.299-2.7-2.898c0-1.601,1.2-2.899,2.7-2.899
		s2.7,1.299,2.7,2.899C219.538,100.5,218.338,101.799,216.838,101.799z"/>
</g>
<path fill="#3D3C40" stroke="#3D3C40" stroke-miterlimit="10" d="M252.939,90.55c0.5,0.201,0.899,0.602,1.199,1c1,1.5,2,3,3,4.5
	c0.5,0.701,0.5,1.4,0.1,2.102c-0.397,0.7-0.799,1.5-1.197,2.2c-0.2,0.3-0.2,0.5,0,0.698c2,2.602,4.3,4.9,6.898,6.9
	c0.199,0.2,0.399,0.2,0.602,0c0.6-0.4,1.3-0.699,1.898-1.1c0.899-0.5,1.699-0.5,2.602,0.1c1.5,1.1,3,2,4.5,3
	c0.898,0.6,1.197,1.5,0.6,2.4c-1,1.5-2.1,2.801-3.6,3.801c-0.7,0.5-1.5,0.199-2.303,0.1c-2.5-0.6-4.6-1.801-6.6-3.399
	c-4-3-7.5-6.5-10.3-10.601c-1.2-1.701-2.2-3.5-2.7-5.601c-0.1-0.2-0.1-0.5-0.199-0.7c0-0.4,0-0.8,0-1.199
	c0.199-0.399,0.399-0.701,0.699-1.101c1.1-1.3,2.301-2.399,3.7-3.2C252.338,90.55,252.638,90.55,252.939,90.55z M268.737,115.451
	c0.201-0.1,0.603-0.199,0.803-0.4c0.898-1,1.898-2,2.697-3c0.4-0.397,0.201-0.897-0.299-1.198c-1.5-1-3-1.9-4.398-3
	c-0.602-0.4-1-0.4-1.602-0.101c-0.801,0.399-1.5,0.799-2.301,1.299c-0.4,0.201-0.601,0.201-0.9,0
	c-1.397-1.198-2.897-2.398-4.197-3.698c-1.303-1.302-2.4-2.7-3.602-4.101c-0.301-0.301-0.301-0.601-0.101-1
	c0.5-0.801,0.897-1.601,1.3-2.301c0.301-0.5,0.301-0.9-0.101-1.5c-1-1.5-2-3-3-4.5c-0.302-0.5-0.802-0.6-1.199-0.3
	c-1,0.898-2.103,1.8-3,2.8c-0.2,0.2-0.301,0.7-0.301,1c0.101,1.301,0.5,2.4,1.101,3.5c0.899,1.9,2.2,3.7,3.6,5.301
	c2.9,3.399,6.103,6.5,9.9,9C264.838,114.451,266.638,115.251,268.737,115.451z"/>
<g>
	<path fill="#3D3C40" stroke="#3D3C40" stroke-miterlimit="10" d="M327.438,96.2v-0.1c0-0.4-0.199-0.9-0.5-1.2l0,0l0,0
		c-0.1-0.102-0.2-0.102-0.2-0.2c0,0,0,0-0.101,0c-0.102,0-0.2-0.1-0.301-0.1c0,0,0,0-0.101,0s-0.2-0.101-0.301-0.101
		c0,0,0,0-0.102,0c-0.1,0-0.3,0-0.398,0h-24.8c-0.199,0-0.3,0-0.5,0h-0.101c-0.101,0-0.199,0-0.302,0.101c0,0,0,0-0.1,0
		c-0.102,0-0.199,0.1-0.3,0.1l0,0c-0.103,0-0.2,0.1-0.2,0.1l-0.097,0.102c-0.303,0.3-0.4,0.601-0.5,1c0,0,0,0,0,0.101v16.601
		c0,0,0,0,0,0.1c0.1,0.5,0.3,1,0.697,1.201c0.303,0.199,0.803,0.397,1.303,0.397h24.998l0,0l0,0c0.102,0,0.302,0,0.399,0
		c0,0,0,0,0.101,0c0.102,0,0.2,0,0.302-0.1l0,0c0.8-0.299,1.198-1,1.198-1.699v-0.1l0,0l0,0V96.4
		C327.438,96.2,327.438,96.2,327.438,96.2L327.438,96.2z M324.938,95.6l-12,11.5l-2.699-2.601l0,0l-9.399-8.899H324.938
		L324.938,95.6z M299.838,112.1V96.6l8.898,8.399L299.838,112.1z M312.638,112.901h-11.5l8.601-7.001l2.8,2.7
		c0.102,0.1,0.2,0.1,0.301,0.198l0,0c0,0,0,0,0.101,0l0,0h0.102l0,0c0.101,0,0.301-0.1,0.301-0.198l2.6-2.5l8.7,6.801H312.638
		L312.638,112.901z M326.036,112.2l-8.898-7.1l8.898-8.5V112.2z"/>
</g>
</svg>
